<svg xmlns="http://www.w3.org/2000/svg" xmlns:xlink="http://www.w3.org/1999/xlink" fill="none" version="1.1" width="300" height="167" viewBox="0 0 300 167"><defs><clipPath id="master_svg0_55_7"><rect x="0" y="0" width="300" height="167" rx="0"/></clipPath></defs><g clip-path="url(#master_svg0_55_7)"><g><path d="M192.24,105.921L224.498,56.2062L230.678,46.6827L230.602,46.6337L240.213,32.0281L212.78,32.0281L207.514,40.6199L205.398,43.8817L193.495,62.2263L186.879,50.6244L206.201,22.6866L258.367,22.6866L192.942,124.343L114.157,0L0,0L108.312,167L142.674,109.176L98.7122,41.2254L93.0075,32.0281L65.5736,32.0281L73.5306,43.9304L73.4287,43.9927L79.5955,53.5244L115.928,109.683L107.466,123.922L41.8076,22.6866L101.621,22.6866L192.792,166.579L300,0L194.255,0L160.046,49.4635L192.24,105.921Z" fill-rule="evenodd" fill="#2557DD" fill-opacity="1"/></g></g></svg>