<?xml version="1.0" standalone="no"?><!DOCTYPE svg PUBLIC "-//W3C//DTD SVG 1.1//EN" "http://www.w3.org/Graphics/SVG/1.1/DTD/svg11.dtd"><svg class="icon" width="200px" height="200.00px" viewBox="0 0 1024 1024" version="1.1" xmlns="http://www.w3.org/2000/svg"><path fill="#ffffff" d="M422.4 610.133333c-8.533333 0-17.066667-4.266667-21.333333-8.533333-12.8-12.8-12.8-34.133333 0-46.933333l247.466666-247.466667c12.8-12.8 34.133333-12.8 46.933334 0s12.8 34.133333 0 46.933333l-247.466667 247.466667c-8.533333 4.266667-17.066667 8.533333-25.6 8.533333z"  /><path fill="#ffffff" d="M640 921.6c-8.533333 0-17.066667 0-21.333333-4.266667-21.333333-4.266667-38.4-17.066667-46.933334-38.4l-170.666666-281.6-285.866667-170.666666c-21.333333-8.533333-34.133333-29.866667-38.4-51.2-4.266667-21.333333 0-42.666667 8.533333-64 12.8-17.066667 29.866667-29.866667 46.933334-38.4l686.933333-200.533334c42.666667-12.8 89.6 12.8 102.4 55.466667 4.266667 17.066667 4.266667 34.133333 0 46.933333l-204.8 682.666667c-4.266667 21.333333-21.333333 38.4-38.4 51.2-8.533333 8.533333-25.6 12.8-38.4 12.8z m204.8-780.8h-4.266667L153.6 337.066667c-4.266667 4.266667-8.533333 4.266667-12.8 8.533333 0 4.266667-4.266667 8.533333 0 17.066667 0 4.266667 4.266667 8.533333 8.533333 12.8l290.133334 179.2c4.266667 4.266667 8.533333 4.266667 12.8 12.8l174.933333 285.866666c4.266667 4.266667 8.533333 8.533333 12.8 8.533334h12.8c4.266667 0 8.533333-8.533333 8.533333-12.8l204.8-682.666667v-12.8c-4.266667-8.533333-12.8-12.8-21.333333-12.8z"  /></svg>