<?xml version="1.0" standalone="no"?><!DOCTYPE svg PUBLIC "-//W3C//DTD SVG 1.1//EN" "http://www.w3.org/Graphics/SVG/1.1/DTD/svg11.dtd"><svg class="icon" width="200px" height="200.00px" viewBox="0 0 1024 1024" version="1.1" xmlns="http://www.w3.org/2000/svg"><path d="M512 952.47a63.88 63.88 0 0 1-37.64-12.28l-254.11-184.8A224.7 224.7 0 0 1 128 574.23v-277a96.19 96.19 0 0 1 56.27-87.39l288-130.9a96 96 0 0 1 79.46 0l288 130.9A96.21 96.21 0 0 1 896 297.21v277a224.7 224.7 0 0 1-92.25 181.16L549.64 940.19A63.86 63.86 0 0 1 512 952.47zM210.76 268.08A32.06 32.06 0 0 0 192 297.21v277a160.48 160.48 0 0 0 65.89 129.4L512 888.43l254.11-184.8A160.48 160.48 0 0 0 832 574.23v-277a32.06 32.06 0 0 0-18.76-29.13l-288-130.91a32 32 0 0 0-26.48 0l-288 130.91z" fill="#333333" /><path d="M457.37 630.63L352 525.25a32 32 0 0 1 0-45.25 32 32 0 0 1 45.25 0l71.44 71.43a16 16 0 0 0 22.62 0l194.75-194.74a16 16 0 0 1 22.63 0l22.62 22.62a16 16 0 0 1 0 22.63L502.63 630.63a32 32 0 0 1-45.26 0z" fill="#EB4242" /></svg>