<?xml version="1.0" standalone="no"?><!DOCTYPE svg PUBLIC "-//W3C//DTD SVG 1.1//EN" "http://www.w3.org/Graphics/SVG/1.1/DTD/svg11.dtd"><svg class="icon" width="200px" height="200.00px" viewBox="0 0 1024 1024" version="1.1" xmlns="http://www.w3.org/2000/svg"><path fill="#ffffff" d="M695.466667 947.2H362.666667c-170.666667 0-277.333333-106.666667-277.333334-273.066667V341.333333c0-183.466667 81.066667-273.066667 238.933334-273.066666h85.333333c38.4 0 81.066667 21.333333 102.4 51.2L554.666667 170.666667c12.8 17.066667 29.866667 25.6 51.2 25.6H725.333333c166.4 0 243.2 85.333333 243.2 264.533333v213.333333c0 166.4-106.666667 273.066667-273.066666 273.066667zM328.533333 128C204.8 128 149.333333 192 149.333333 341.333333v332.8c0 136.533333 76.8 209.066667 213.333334 209.066667h332.8c136.533333 0 209.066667-76.8 209.066666-209.066667v-213.333333c0-145.066667-51.2-200.533333-179.2-200.533333h-119.466666c-38.4 0-81.066667-21.333333-102.4-51.2l-38.4-51.2c-12.8-17.066667-34.133333-29.866667-51.2-29.866667h-85.333334z"  /><path fill="#ffffff" d="M733.866667 648.533333H324.266667c-17.066667 0-34.133333-12.8-34.133334-34.133333s12.8-34.133333 34.133334-34.133333h409.6c17.066667 0 34.133333 12.8 34.133333 34.133333s-17.066667 34.133333-34.133333 34.133333z"  /></svg>