<?xml version="1.0" standalone="no"?><!DOCTYPE svg PUBLIC "-//W3C//DTD SVG 1.1//EN" "http://www.w3.org/Graphics/SVG/1.1/DTD/svg11.dtd"><svg class="icon" width="200px" height="200.00px" viewBox="0 0 1024 1024" version="1.1" xmlns="http://www.w3.org/2000/svg"><path fill="#ffffff" d="M715.8272 102.4 308.1216 102.4c0 0-50.9952 0-50.9952 51.2l509.696 0C766.8224 102.4 715.8272 102.4 715.8272 102.4zM868.7616 256c0-51.2-50.944-51.2-50.944-51.2L206.1824 204.8c0 0-50.944 0-50.944 51.2l0 51.2 713.5232 0L868.7616 256zM970.6496 307.2C940.544 276.8896 940.544 276.8896 940.544 276.8896L940.544 358.4 83.456 358.4 83.456 276.8896c0 0 0 0-30.1568 30.3104C23.1424 337.5104 1.536 345.6 13.6704 409.6c12.0832 63.7952 70.6048 413.4912 79.3088 460.8 9.5232 51.9168 62.3104 51.2 62.3104 51.2l713.5232 0c0 0 52.736 0.7168 62.3104-51.2 8.704-47.3088 67.1744-397.0048 79.3088-460.8C1022.464 345.6 1000.8576 337.5104 970.6496 307.2zM716.8 614.2464C716.8 642.6112 693.8112 665.6 665.4464 665.6L358.5536 665.6C330.1888 665.6 307.2 642.6112 307.2 614.2464L307.2 512l51.2 0 0 102.4 307.2 0 0-102.4 51.2 0L716.8 614.2464z" /></svg>