<svg xmlns="http://www.w3.org/2000/svg" xmlns:xlink="http://www.w3.org/1999/xlink" fill="none" version="1.1" width="200" height="200" viewBox="0 0 200 200"><defs><clipPath id="master_svg0_42_02197"><rect x="200" y="0" width="200" height="200" rx="0"/></clipPath></defs><g transform="matrix(-1,0,0,1,400,0)" clip-path="url(#master_svg0_42_02197)"><g><path d="M250,58.333330000000004C250,53.73096,253.73096,50,258.33333,50C258.33333,50,341.6667,50,341.6667,50C346.2692,50,350,53.73096,350,58.333330000000004C350,62.9357,346.2692,66.66669999999999,341.6667,66.66669999999999C341.6667,66.66669999999999,278.4517,66.66669999999999,278.4517,66.66669999999999C278.4517,66.66669999999999,347.55920000000003,135.7742,347.55920000000003,135.7742C350.813,139.0283,350.813,144.305,347.55920000000003,147.5592C344.305,150.813,339.0283,150.813,335.7742,147.5592C335.7742,147.5592,266.6667,78.4517,266.6667,78.4517C266.6667,78.4517,266.6667,141.6667,266.6667,141.6667C266.6667,146.2692,262.9357,150,258.33333,150C253.73096,150,250,146.2692,250,141.6667C250,141.6667,250,58.333330000000004,250,58.333330000000004C250,58.333330000000004,250,58.333330000000004,250,58.333330000000004Z" fill-rule="evenodd" fill="#B8BABB" fill-opacity="1"/></g></g></svg>