<svg xmlns="http://www.w3.org/2000/svg" xmlns:xlink="http://www.w3.org/1999/xlink" fill="none" version="1.1" width="200" height="200" viewBox="0 0 200 200"><defs><clipPath id="master_svg0_42_02812"><rect x="0" y="200" width="200" height="200" rx="0"/></clipPath></defs><g transform="matrix(0,-1,1,0,-200,200)" clip-path="url(#master_svg0_42_02812)"><g><path d="M94.107548046875,269.1073959765625C97.361948046875,265.8530339765625,102.63824804687499,265.8530339765625,105.892648046875,269.1073959765625C105.892648046875,269.1073959765625,155.892748046875,319.1074259765625,155.892748046875,319.1074259765625C159.14674804687502,322.3618259765625,159.14674804687502,327.6381259765625,155.892748046875,330.8925259765625C152.63874804687498,334.14682597656247,147.361748046875,334.14682597656247,144.107748046875,330.8925259765625C144.107748046875,330.8925259765625,100.00004804687501,286.7850259765625,100.00004804687501,286.7850259765625C100.00004804687501,286.7850259765625,55.892648046874996,330.8925259765625,55.892648046874996,330.8925259765625C52.638248046875,334.14682597656247,47.361888046875,334.14682597656247,44.107518046875,330.8925259765625C40.853156046875,327.6381259765625,40.853156046875,322.3618259765625,44.107518046875,319.1074259765625C44.107518046875,319.1074259765625,94.107548046875,269.1073959765625,94.107548046875,269.1073959765625C94.107548046875,269.1073959765625,94.107548046875,269.1073959765625,94.107548046875,269.1073959765625Z" fill-rule="evenodd" fill="#000000" fill-opacity="1"/></g></g></svg>