<?xml version="1.0" standalone="no"?><!DOCTYPE svg PUBLIC "-//W3C//DTD SVG 1.1//EN" "http://www.w3.org/Graphics/SVG/1.1/DTD/svg11.dtd"><svg class="icon" width="200px" height="200.00px" viewBox="0 0 1024 1024" version="1.1" xmlns="http://www.w3.org/2000/svg"><path d="M830.39 129.61A222.53 222.53 0 0 0 672 64H352a224 224 0 0 0-224 224v448a224 224 0 0 0 224 224h320a224 224 0 0 0 224-224V288a222.53 222.53 0 0 0-65.61-158.39zM704 144.89V224a32 32 0 0 1-32 32H544a32 32 0 0 1-32-32v-80a16 16 0 0 1 16-16h144a160.34 160.34 0 0 1 17.77 1A16 16 0 0 1 704 144.89zM832 736a160 160 0 0 1-160 160H352a160 160 0 0 1-160-160V288a160 160 0 0 1 160-160h96v96a96 96 0 0 0 96 96h128a96 96 0 0 0 96-96v-26.39c0-15.15 19-21.75 28.52-10A159.25 159.25 0 0 1 832 288z" fill="#333333" /><path d="M352 704h144a16 16 0 0 1 16 16v32a16 16 0 0 1-16 16H352a32 32 0 0 1-32-32 32 32 0 0 1 32-32z" fill="#EB4242" /></svg>