<?xml version="1.0" standalone="no"?><!DOCTYPE svg PUBLIC "-//W3C//DTD SVG 1.1//EN" "http://www.w3.org/Graphics/SVG/1.1/DTD/svg11.dtd"><svg class="icon" width="200px" height="200.00px" viewBox="0 0 1024 1024" version="1.1" xmlns="http://www.w3.org/2000/svg"><path d="M672 960.5H352a224 224 0 0 1-224-224V288A224 224 0 0 1 352 64h256a32 32 0 0 1 0 64H352c-88.22 0-160 71.78-160 160v448.5c0 88.22 71.78 160 160 160h320c88.22 0 160-71.78 160-160V352a32 32 0 0 1 64 0v384.5a224 224 0 0 1-224 224z" fill="#333333" /><path d="M448 544a32 32 0 0 1-22.63-54.63l416-416a32 32 0 0 1 45.26 45.26l-416 416A31.9 31.9 0 0 1 448 544z" fill="#333333" /><path d="M688 704H352a32 32 0 0 1-32-32 32 32 0 0 1 32-32h336a16 16 0 0 1 16 16v32a16 16 0 0 1-16 16z" fill="#EB4242" /></svg>