<?xml version="1.0" standalone="no"?><!DOCTYPE svg PUBLIC "-//W3C//DTD SVG 1.1//EN" "http://www.w3.org/Graphics/SVG/1.1/DTD/svg11.dtd"><svg class="icon" width="200px" height="200.00px" viewBox="0 0 1024 1024" version="1.1" xmlns="http://www.w3.org/2000/svg"><path d="M508.16 270.08l245.76 245.76L416.938667 853.333333c-15.786667 15.786667-35.84 26.026667-57.6 29.866667l-202.24 33.706667c-2.56 0.426667-4.693333 0.426667-7.253334 0.426666a43.861333 43.861333 0 0 1-42.666666-50.346666l33.706666-202.24c3.84-21.76 14.08-41.813333 29.866667-57.6l337.493333-337.066667zM866.133333 157.866667c-32.853333-33.28-76.373333-51.2-122.88-51.2-46.506667 0-90.026667 17.92-122.88 51.2l-51.584 51.626666 245.76 245.76 51.626667-51.626666c33.28-32.853333 51.2-76.373333 51.2-122.88 0-46.506667-17.92-90.026667-51.2-122.88z" fill="#73D13D" /><path d="M544.981333 306.858667l150.826667 150.826666L252.586667 900.992l-95.488 15.914667c-2.56 0.426667-4.693333 0.426667-7.253334 0.426666a43.861333 43.861333 0 0 1-42.666666-50.346666l24.405333-146.688 413.44-413.44zM745.130667 106.666667c45.824 0.469333 88.618667 18.346667 121.045333 51.2a170.496 170.496 0 0 1 46.634667 82.901333l-156.416 156.330667-150.826667-150.826667z" fill="#8FDA63" /><path d="M508.16 270.08l36.821333 36.778667-413.354666 413.354666 9.216-55.466666c3.84-21.76 14.08-41.813333 29.866666-57.6l337.493334-337.066667z m235.093333-163.413333h1.877334l-139.52 139.605333-36.821334-36.778667 51.626667-51.626666c32.853333-33.28 76.373333-51.2 122.88-51.2z" fill="#ABE38A" /><path d="M695.850667 457.728l58.112 58.112L416.853333 853.333333c-15.786667 15.786667-35.84 26.026667-57.6 29.866667l-106.709333 17.792 443.264-443.306667z m216.96-216.96c2.986667 12.928 4.565333 26.325333 4.565333 39.978667 0 46.506667-17.92 90.026667-51.2 122.88l-51.626667 51.626666-58.112-58.112z" fill="#81D550" /></svg>