<?xml version="1.0" standalone="no"?><!DOCTYPE svg PUBLIC "-//W3C//DTD SVG 1.1//EN" "http://www.w3.org/Graphics/SVG/1.1/DTD/svg11.dtd"><svg class="icon" width="200px" height="200.00px" viewBox="0 0 1024 1024" version="1.1" xmlns="http://www.w3.org/2000/svg"><path fill="#ffffff" d="M866.133333 320l-217.6-226.133333c-4.266667-4.266667-12.8-8.533333-21.333333-8.533334h-8.533333-273.066667C238.933333 85.333333 153.6 170.666667 149.333333 277.333333v456.533334c-4.266667 106.666667 85.333333 196.266667 192 200.533333h345.6c106.666667-4.266667 192-93.866667 187.733334-200.533333V341.333333c4.266667-8.533333 0-12.8-8.533334-21.333333z m-89.6 0H725.333333c-42.666667 0-76.8-34.133333-76.8-76.8V187.733333l128 132.266667z m-89.6 550.4H341.333333c-72.533333 0-128-59.733333-128-136.533333V277.333333c0-72.533333 59.733333-128 132.266667-128h238.933333v89.6C584.533333 320 648.533333 384 725.333333 384h85.333334v349.866667c4.266667 72.533333-55.466667 132.266667-123.733334 136.533333z"  /><path fill="#ffffff" d="M610.133333 695.466667H379.733333c-17.066667 0-34.133333-12.8-34.133333-34.133334s12.8-34.133333 34.133333-34.133333h230.4c17.066667 0 34.133333 12.8 34.133334 34.133333s-17.066667 34.133333-34.133334 34.133334z"  /><path fill="#ffffff" d="M520.533333 486.4H379.733333c-17.066667 0-34.133333-12.8-34.133333-34.133333s12.8-34.133333 34.133333-34.133334h145.066667c17.066667 0 34.133333 12.8 34.133333 34.133334s-17.066667 34.133333-38.4 34.133333z"  /></svg>