<?xml version="1.0" standalone="no"?><!DOCTYPE svg PUBLIC "-//W3C//DTD SVG 1.1//EN" "http://www.w3.org/Graphics/SVG/1.1/DTD/svg11.dtd"><svg class="icon" width="200px" height="200.00px" viewBox="0 0 1024 1024" version="1.1" xmlns="http://www.w3.org/2000/svg"><path d="M586.34 750.61a31.88 31.88 0 0 1-8.71-5.38c-0.73-0.63-73.3-63.22-126.86-85.41s-149.13-29.24-150.09-29.31a32 32 0 0 1-21.9-52.88c0.62-0.73 63.21-73.3 85.4-126.86s29.24-149.13 29.31-150.09a32 32 0 0 1 52.88-21.9c0.73 0.62 73.3 63.21 126.86 85.4s149.13 29.24 150.09 29.31a32 32 0 0 1 21.9 52.88c-0.62 0.72-63.21 73.3-85.4 126.86s-29.24 149.13-29.31 150.09a32 32 0 0 1-44.17 27.29zM475.26 600.69c25.35 10.5 53 27.59 77.33 44.47a16 16 0 0 0 24.87-10.3c5.24-29.12 12.73-60.78 23.23-86.12s27.59-53 44.47-77.33a16 16 0 0 0-10.3-24.87c-29.12-5.24-60.78-12.73-86.12-23.23s-53-27.59-77.33-44.47a16 16 0 0 0-24.87 10.3c-5.24 29.12-12.74 60.78-23.23 86.12s-27.59 53-44.47 77.33a16 16 0 0 0 10.3 24.87c29.12 5.24 60.78 12.73 86.12 23.23z" fill="#EB4242" /><path d="M512 960A448.11 448.11 0 0 1 337.61 99.22a448.11 448.11 0 0 1 348.78 825.56A445.19 445.19 0 0 1 512 960z m0-832c-211.74 0-384 172.26-384 384s172.26 384 384 384 384-172.26 384-384-172.26-384-384-384z" fill="#333333" /></svg>