<?xml version="1.0" standalone="no"?><!DOCTYPE svg PUBLIC "-//W3C//DTD SVG 1.1//EN" "http://www.w3.org/Graphics/SVG/1.1/DTD/svg11.dtd"><svg class="icon" width="200px" height="200.00px" viewBox="0 0 1024 1024" version="1.1" xmlns="http://www.w3.org/2000/svg"><path d="M309.333333 437.333333A32 32 0 0 1 341.333333 405.333333h341.333334a32 32 0 0 1 0 64H341.333333a32 32 0 0 1-32-32zM384 341.333333h256a32 32 0 0 0 0-64H384A32 32 0 0 0 384 341.333333z m554.666667 244.821334v107.178666c0 105.898667-86.144 192-192 192h-469.333334a192.213333 192.213333 0 0 1-192-192v-107.178666c0-18.432 2.944-36.650667 8.746667-54.058667L176.64 284.501333A213.077333 213.077333 0 0 1 379.008 138.666667h265.984a213.034667 213.034667 0 0 1 202.368 145.834666l82.56 247.594667c5.802667 17.408 8.746667 35.626667 8.746667 54.058667zM180.096 544H384a21.333333 21.333333 0 0 1 21.333333 21.333333c0 58.88 47.872 106.666667 106.666667 106.666667s106.666667-47.786667 106.666667-106.666667a21.333333 21.333333 0 0 1 21.333333-21.333333h203.904l-77.482667-232.448a127.829333 127.829333 0 0 0-121.429333-87.552H379.008a127.829333 127.829333 0 0 0-121.429333 87.552L180.096 544z" fill="#FF9449" /><path d="M783.232 544l-341.333333 341.333333H277.333333a190.890667 190.890667 0 0 1-105.514666-31.616l243.456-243.413333A106.837333 106.837333 0 0 0 512 672c58.794667 0 106.666667-47.786667 106.666667-106.666667a21.333333 21.333333 0 0 1 21.333333-21.333333h143.232z m64.128-259.498667l48.810667 146.517334-67.413334 67.498666-62.336-186.965333a128.170667 128.170667 0 0 0-17.792-34.688l60.885334-60.757333c16.384 19.84 29.354667 42.922667 37.845333 68.394666zM682.666667 405.333333a32 32 0 0 1 0 64h-126.464l64-64H682.666667z" fill="#FF9E5B" /><path d="M180.181333 543.616l-0.085333 0.426667H384a21.333333 21.333333 0 0 1 21.333333 21.333333c0 16.042667 3.541333 31.232 9.941334 44.928l-243.456 243.370667A192 192 0 0 1 85.333333 693.333333v-54.826666l94.848-94.890667z m439.978667-138.24l-64 64H341.333333a32 32 0 0 1 0-64h278.826667z m19.84-128A32 32 0 0 1 640 341.333333H384L382.549333 341.333333l63.914667-64z m4.992-138.709333c65.066667 0 124.8 29.312 164.48 77.397333l-60.842667 60.8a127.829333 127.829333 0 0 0-103.637333-52.864h-145.194667l85.376-85.333333h59.818667z" fill="#FFA96D" /><path d="M585.216 138.624l-85.376 85.333333-120.832 0.042667a127.829333 127.829333 0 0 0-121.429333 87.552l-77.354667 232.064L85.333333 638.506667v-52.352c0-18.432 2.944-36.650667 8.746667-54.058667L176.64 284.501333A213.077333 213.077333 0 0 1 379.008 138.666667l206.208-0.042667z m-138.709333 138.666667L382.592 341.333333A32 32 0 0 1 384 277.333333h62.506667z" fill="#FFBE91" /></svg>