<?xml version="1.0" standalone="no"?><!DOCTYPE svg PUBLIC "-//W3C//DTD SVG 1.1//EN" "http://www.w3.org/Graphics/SVG/1.1/DTD/svg11.dtd"><svg class="icon" width="200px" height="199.80px" viewBox="0 0 1025 1024" version="1.1" xmlns="http://www.w3.org/2000/svg"><path fill="#ffffff" d="M872.493247 471.516279H715.321153c-42.865116 0-85.730233-19.051163-109.544186-47.627907-28.576744-28.576744-42.865116-66.67907-38.102325-109.544186V157.172093C562.911851 71.44186 634.353712 0 715.321153 0h157.172094c42.865116 0 85.730233 19.051163 109.544186 47.627907 28.576744 28.576744 42.865116 66.67907 38.102325 109.544186v152.409302c4.762791 90.493023-66.67907 161.934884-147.646511 161.934884zM715.321153 71.44186c-42.865116 0-80.967442 38.102326-80.967441 80.967442v161.934884c0 23.813953 4.762791 42.865116 19.051162 57.153488 14.288372 14.288372 38.102326 23.813953 57.153489 23.813954h157.172093c42.865116 0 80.967442-38.102326 80.967442-85.730233V157.172093c0-23.813953-4.762791-42.865116-19.051163-57.153488-14.288372-14.288372-38.102326-23.813953-57.153488-23.813954H715.321153z"  /><path fill="#ffffff" d="M310.483944 466.753488H153.311851c-42.865116 0-85.730233-19.051163-109.544186-47.627907C15.190921 385.786047 0.902549 347.683721 5.66534 304.818605V152.409302C0.902549 119.069767 15.190921 80.967442 39.004874 52.390698c28.576744-28.576744 71.44186-47.627907 114.306977-47.627907h157.172093c42.865116 0 85.730233 19.051163 109.544186 47.627907 28.576744 28.576744 42.865116 66.67907 38.102326 109.544186v152.409302c0 80.967442-66.67907 152.409302-147.646512 152.409302zM153.311851 71.44186c-23.813953 0-47.627907 9.525581-61.916279 23.813954-9.525581 19.051163-19.051163 38.102326-19.051163 52.390698v161.934883c0 23.813953 9.525581 42.865116 23.813954 57.153489 14.288372 14.288372 38.102326 23.813953 57.153488 23.813953h157.172093c42.865116 0 76.204651-38.102326 76.204651-76.204651V157.172093c0-23.813953-4.762791-42.865116-19.051162-57.153488-14.288372-19.051163-33.339535-28.576744-57.153489-28.576745H153.311851zM310.483944 1024H153.311851c-42.865116 0-85.730233-19.051163-109.544186-47.627907-28.576744-28.576744-42.865116-66.67907-38.102325-109.544186L0.902549 714.418605c-4.762791-38.102326 9.525581-76.204651 38.102325-109.544186 28.576744-28.576744 66.67907-47.627907 109.544186-47.627907h157.172093c42.865116 0 85.730233 19.051163 109.544187 47.627907 28.576744 28.576744 42.865116 66.67907 38.102325 109.544186v152.409302c4.762791 90.493023-61.916279 157.172093-142.883721 157.172093z m-157.172093-390.548837c-23.813953 0-42.865116 9.525581-57.153488 23.813953-14.288372 14.288372-19.051163 33.339535-19.051163 57.153489v161.934883c0 23.813953 4.762791 42.865116 19.051163 57.153489 14.288372 14.288372 33.339535 19.051163 57.153488 19.051163h157.172093c42.865116 0 76.204651-38.102326 76.204651-85.730233V714.418605c0-23.813953-4.762791-42.865116-19.051162-57.153489-14.288372-14.288372-38.102326-23.813953-57.153489-23.813953H153.311851zM872.493247 1024H715.321153c-42.865116 0-85.730233-19.051163-109.544186-47.627907-28.576744-28.576744-42.865116-66.67907-38.102325-109.544186V714.418605c0-85.730233 66.67907-157.172093 152.409302-157.172093h157.172093c42.865116 0 85.730233 19.051163 109.544186 47.627907 28.576744 28.576744 42.865116 66.67907 38.102326 109.544186v152.409302c0 90.493023-71.44186 157.172093-152.409302 157.172093zM715.321153 633.451163c-42.865116 0-80.967442 38.102326-80.967441 85.730232v157.172093c0 23.813953 4.762791 42.865116 19.051162 57.153489 14.288372 14.288372 38.102326 23.813953 57.153489 23.813953h157.172093c42.865116 0 80.967442-38.102326 80.967442-85.730232V714.418605c0-23.813953-4.762791-42.865116-19.051163-57.153489-14.288372-14.288372-38.102326-23.813953-57.153488-23.813953H715.321153z"  /></svg>