<?xml version="1.0" standalone="no"?><!DOCTYPE svg PUBLIC "-//W3C//DTD SVG 1.1//EN" "http://www.w3.org/Graphics/SVG/1.1/DTD/svg11.dtd"><svg class="icon" width="200px" height="200.00px" viewBox="0 0 1024 1024" version="1.1" xmlns="http://www.w3.org/2000/svg"><path d="M512 864a518.79 518.79 0 0 1-172.54-29.31c-52.38-18.42-100-44.55-141.56-77.67C112.8 689.2 64 599.89 64 512s48.8-177.2 133.9-245c41.55-33.12 89.18-59.25 141.56-77.67a522.5 522.5 0 0 1 345.08 0c52.38 18.42 100 44.55 141.56 77.67C911.2 334.8 960 424.1 960 512s-48.8 177.2-133.9 245c-41.55 33.12-89.18 59.25-141.56 77.67A518.79 518.79 0 0 1 512 864z m0-640c-101.56 0-198.95 33-274.21 93C168 372.63 128 443.7 128 512s40 139.37 109.79 195c75.26 60 172.65 93 274.21 93s199-33 274.21-93C856 651.37 896 580.3 896 512s-40-139.37-109.79-195C711 257 613.56 224 512 224z" fill="#333333" /><path d="M512 672c-88.22 0-160-71.78-160-160s71.78-160 160-160 160 71.78 160 160-71.78 160-160 160z m0-256a96 96 0 1 0 96 96 96.11 96.11 0 0 0-96-96z" fill="#EB4242" /></svg>