<?xml version="1.0" standalone="no"?><!DOCTYPE svg PUBLIC "-//W3C//DTD SVG 1.1//EN" "http://www.w3.org/Graphics/SVG/1.1/DTD/svg11.dtd"><svg class="icon" width="200px" height="200.00px" viewBox="0 0 1024 1024" version="1.1" xmlns="http://www.w3.org/2000/svg"><path d="M920 874.75l-126.7-126.7a32 32 0 0 1-3.15-41.58 385 385 0 1 0-83.68 83.68 32 32 0 0 1 41.58 3.15L874.75 920a32 32 0 0 0 45.25 0 32 32 0 0 0 0-45.25zM480 800c-176.45 0-320-143.55-320-320s143.55-320 320-320 320 143.55 320 320-143.55 320-320 320z" fill="#333333" /><path d="M512 240.13a16 16 0 0 0-15.39-16q-4.29-0.13-8.61-0.13a264.08 264.08 0 0 0-261.52 227.57A32 32 0 0 0 258.19 488a31.92 31.92 0 0 0 31.68-27.43C303.29 363.22 387 288 488 288c2.45 0 4.88 0.05 7.3 0.13a16 16 0 0 0 16.7-16z" fill="#EB4242" /></svg>