<svg xmlns="http://www.w3.org/2000/svg" xmlns:xlink="http://www.w3.org/1999/xlink" fill="none" version="1.1" width="200" height="200" viewBox="0 0 200 200"><defs><clipPath id="master_svg0_42_02199"><rect x="0" y="0" width="200" height="200" rx="0"/></clipPath></defs><g clip-path="url(#master_svg0_42_02199)"><g><path d="M44.107426494140626,44.1073959765625C47.36179649414063,40.8530339765625,52.638156494140624,40.8530339765625,55.89255649414062,44.1073959765625C55.89255649414062,44.1073959765625,99.99995649414063,88.21482597656251,99.99995649414063,88.21482597656251C99.99995649414063,88.21482597656251,144.10765649414063,44.1073959765625,144.10765649414063,44.1073959765625C147.36165649414062,40.8530339765625,152.6386564941406,40.8530339765625,155.89265649414062,44.1073959765625C159.14665649414064,47.3617659765625,159.14665649414064,52.6381259765625,155.89265649414062,55.892525976562496C155.89265649414062,55.892525976562496,111.78505649414062,99.99992597656251,111.78505649414062,99.99992597656251C111.78505649414062,99.99992597656251,155.89265649414062,144.1076259765625,155.89265649414062,144.1076259765625C159.14665649414064,147.3616259765625,159.14665649414064,152.63862597656248,155.89265649414062,155.8926259765625C152.6386564941406,159.14662597656252,147.36165649414062,159.14662597656252,144.10765649414063,155.8926259765625C144.10765649414063,155.8926259765625,99.99995649414063,111.7850259765625,99.99995649414063,111.7850259765625C99.99995649414063,111.7850259765625,55.89255649414062,155.8926259765625,55.89255649414062,155.8926259765625C52.638156494140624,159.14662597656252,47.36179649414063,159.14662597656252,44.107426494140626,155.8926259765625C40.853064494140625,152.63862597656248,40.853064494140625,147.3616259765625,44.107426494140626,144.1076259765625C44.107426494140626,144.1076259765625,88.21485649414063,99.99992597656251,88.21485649414063,99.99992597656251C88.21485649414063,99.99992597656251,44.107426494140626,55.892525976562496,44.107426494140626,55.892525976562496C40.853064494140625,52.6381259765625,40.853064494140625,47.3617659765625,44.107426494140626,44.1073959765625C44.107426494140626,44.1073959765625,44.107426494140626,44.1073959765625,44.107426494140626,44.1073959765625Z" fill-rule="evenodd" fill="#B8BABB" fill-opacity="1"/></g></g></svg>