<svg xmlns="http://www.w3.org/2000/svg" xmlns:xlink="http://www.w3.org/1999/xlink" fill="none" version="1.1" width="200" height="200" viewBox="0 0 200 200"><defs><clipPath id="master_svg0_234_02550"><rect x="0" y="0" width="200" height="200" rx="0"/></clipPath></defs><g clip-path="url(#master_svg0_234_02550)"><g><path d="M100.13526640625,194.065880859375C82.17046640625,194.065880859375,64.82936640625,189.027880859375,49.76756640625,179.462880859375L36.49106640625,185.462880859375C32.37936640625,187.321880859375,27.73816640625,186.859880859375,24.07636640625,184.227880859375C20.41466640625,181.595880859375,18.49106640625,177.348880859375,18.938166406249998,172.856880859375L21.10286640625,151.065880859375C11.03522640625,135.536880859375,5.82639940625,117.559880859375,6.02345847625,98.930780859375C6.56757640625,47.492580859375,48.74106640625,5.827880859375,100.14106640625,5.827880859375L100.63816640625,5.827880859375C119.15606640625,5.924939659375,137.05006640625,11.398470859375,152.38806640625,21.654380859375C167.34406640625,31.654380859375,179.07006640625,45.621980859375,186.30306640625,62.039680859375C187.61206640625,65.013180859375,186.26506640625,68.483780859375,183.29106640625,69.795480859375C180.31706640625,71.104380859375,176.84706640625,69.757280859375,175.53506640625,66.783780859375C162.44706640625,37.074980859375,133.02306640625,17.766080859375002,100.57636640625,17.598480859375L100.14106640625,17.598480859375C55.16166640625,17.598480859375,18.26166640625,54.051380859375,17.78816640625,99.060180859375C17.60876640625,115.998880859375,22.53226640625,132.315880859375,32.02636640625,146.251880859375L33.22936640625,148.018880859375L30.64406640625,174.024880859375C30.63226640625,174.136880859375,30.60286640625,174.433880859375,30.93816640625,174.674880859375C31.27346640625,174.912880859375,31.54406640625,174.792880859375,31.64696640625,174.745880859375L50.89696640625,166.045880859375L53.62936640625,167.918880859375C67.35576640625,177.330880859375,83.43816640625,182.303880859375,100.13816640625,182.303880859375C145.54706640625,182.303880859375,182.49106640625,145.359880859375,182.49106640625,99.951380859375C182.49106640625,96.701380859375,185.12306640625,94.069080859375,188.37306640625,94.069080859375C191.62306640625,94.069080859375,194.25606640625,96.701380859375,194.25606640625,99.951380859375C194.25606640625,125.089880859375,184.46506640625,148.724880859375,166.68806640625,166.501880859375C148.90906640625,184.274880859375,125.27606640625,194.065880859375,100.13526640625,194.065880859375ZM99.99106640625,144.842880859375C86.25286640625,144.842880859375,73.57636640625,136.906880859375,66.08226640625,123.612880859375C64.48816640625,120.783880859375,65.48816640625,117.195880859375,68.31756640625,115.601880859375C71.14696640625,114.003880859375,74.73526640625,115.006880859375,76.32936640625,117.836880859375C81.70876640625,127.380880859375,90.55576640625,133.077880859375,99.98816640625,133.077880859375C109.42306640625,133.077880859375,118.26806640625,127.380880859375,123.64706640625,117.836880859375C125.24106640625,115.006880859375,128.82906640625,114.003880859375,131.65906640625002,115.601880859375C134.48806640625,117.195880859375,135.49106640625,120.783880859375,133.89406640625,123.612880859375C126.40606640625,136.903880859375,113.72906640625,144.842880859375,99.99106640625,144.842880859375Z" fill="#000000" fill-opacity="1"/></g></g></svg>