<?xml version="1.0" standalone="no"?><!DOCTYPE svg PUBLIC "-//W3C//DTD SVG 1.1//EN" "http://www.w3.org/Graphics/SVG/1.1/DTD/svg11.dtd"><svg t="1689567557842" class="icon" viewBox="0 0 1024 1024" version="1.1" xmlns="http://www.w3.org/2000/svg" p-id="4172" xmlns:xlink="http://www.w3.org/1999/xlink" width="200" height="200"><path d="M704 896v80c0 26.51-21.49 48-48 48H112c-26.51 0-48-21.49-48-48V240c0-26.51 21.49-48 48-48h144v592c0 61.758 50.242 112 112 112h336z m0-688V0H368c-26.51 0-48 21.49-48 48v736c0 26.51 21.49 48 48 48h544c26.51 0 48-21.49 48-48V256H752c-26.4 0-48-21.6-48-48z m241.942-62.058L814.058 14.058A48 48 0 0 0 780.118 0H768v192h192v-12.118a48 48 0 0 0-14.058-33.94z" p-id="4173"></path></svg>