<?xml version="1.0" standalone="no"?><!DOCTYPE svg PUBLIC "-//W3C//DTD SVG 1.1//EN" "http://www.w3.org/Graphics/SVG/1.1/DTD/svg11.dtd"><svg class="icon" width="200px" height="200.00px" viewBox="0 0 1024 1024" version="1.1" xmlns="http://www.w3.org/2000/svg"><path fill="#ffffff" d="M922.317764 0H101.64469A100.312307 100.312307 0 0 0 1.634036 100.010654V923.989346a100.312307 100.312307 0 0 0 100.010654 100.010654h820.673074a100.299739 100.299739 0 0 0 99.998085-100.010654V100.06093A100.299739 100.299739 0 0 0 922.317764 0zM427.933063 402.04107l-177.321894 103.064894 177.321894 97.094672v81.257871L179.684925 534.831388v-57.477532l248.248138-160.529857z m70.938812 364.661192h-53.970812l78.643542-509.303973h53.958243z m345.393085-231.845736L596.004253 683.445938v-81.257871l177.321894-97.094672-177.321894-103.064894v-85.217071l248.260707 160.542426z" /></svg>