<?xml version="1.0" standalone="no"?><!DOCTYPE svg PUBLIC "-//W3C//DTD SVG 1.1//EN" "http://www.w3.org/Graphics/SVG/1.1/DTD/svg11.dtd"><svg class="icon" width="200px" height="200.00px" viewBox="0 0 1024 1024" version="1.1" xmlns="http://www.w3.org/2000/svg"><path d="M768 97H448a160 160 0 0 0-160 160v95a32 32 0 0 1-32 32A160 160 0 0 0 96 544v256a128 128 0 0 0 128 128h544a160 160 0 0 0 160-160V257A160 160 0 0 0 768 97zM160 800V544a96 96 0 0 1 96-96 32 32 0 0 1 32 32v319c0 35.12-27.89 64.43-63 65a64.06 64.06 0 0 1-65-64z m704-32a96.11 96.11 0 0 1-96 96H334.82A127.23 127.23 0 0 0 352 800V257a96.11 96.11 0 0 1 96-96h320a96.11 96.11 0 0 1 96 96z" fill="#333333" /><path d="M512 384m32 0l128 0q32 0 32 32l0 0q0 32-32 32l-128 0q-32 0-32-32l0 0q0-32 32-32Z" fill="#333333" /><path d="M544 576h144a16 16 0 0 1 16 16v32a16 16 0 0 1-16 16H544a32 32 0 0 1-32-32 32 32 0 0 1 32-32z" fill="#EB4242" /></svg>