<?xml version="1.0" standalone="no"?><!DOCTYPE svg PUBLIC "-//W3C//DTD SVG 1.1//EN" "http://www.w3.org/Graphics/SVG/1.1/DTD/svg11.dtd"><svg class="icon" width="200px" height="200.00px" viewBox="0 0 1024 1024" version="1.1" xmlns="http://www.w3.org/2000/svg"><path d="M768 448h-64a32 32 0 0 1-32-32V256A160 160 0 0 0 512 96H256A160 160 0 0 0 96 256v512a160 160 0 0 0 160 160h512a160 160 0 0 0 160-160V608a160 160 0 0 0-160-160zM576 864H256a96 96 0 0 1-96-96V256a96 96 0 0 1 96-96h256a96 96 0 0 1 96 96v576a32 32 0 0 1-32 32z m288-96a96 96 0 0 1-96 96h-64a32 32 0 0 1-32-32V544a32 32 0 0 1 32-32h64a96 96 0 0 1 96 96z" fill="#333333" /><path d="M256 320m32 0l128 0q32 0 32 32l0 0q0 32-32 32l-128 0q-32 0-32-32l0 0q0-32 32-32Z" fill="#333333" /><path d="M288 512h144a16 16 0 0 1 16 16v32a16 16 0 0 1-16 16H288a32 32 0 0 1-32-32 32 32 0 0 1 32-32z" fill="#EB4242" /></svg>