<?xml version="1.0" standalone="no"?><!DOCTYPE svg PUBLIC "-//W3C//DTD SVG 1.1//EN" "http://www.w3.org/Graphics/SVG/1.1/DTD/svg11.dtd"><svg class="icon" width="200px" height="200.00px" viewBox="0 0 1024 1024" version="1.1" xmlns="http://www.w3.org/2000/svg"><path d="M512 106.666667c-223.573333 0-405.333333 181.76-405.333333 405.333333s181.76 405.333333 405.333333 405.333333 405.333333-181.76 405.333333-405.333333-181.76-405.333333-405.333333-405.333333zM682.666667 554.666667h-170.666667c-23.466667 0-42.666667-19.2-42.666667-42.666667V298.666667c0-23.466667 19.2-42.666667 42.666667-42.666667s42.666667 19.2 42.666667 42.666667v170.666666h128c23.466667 0 42.666667 19.2 42.666666 42.666667s-19.2 42.666667-42.666666 42.666667z" fill="#9254DE" /><path d="M799.232 226.218667a405.077333 405.077333 0 0 1 107.648 194.133333L420.352 906.88a405.077333 405.077333 0 0 1-194.133333-107.648l256.426666-256.341333c7.68 7.253333 18.005333 11.776 29.354667 11.776h170.666667c23.466667 0 42.666667-19.2 42.666666-42.666667s-19.2-42.666667-42.666666-42.666667h-126.506667z" fill="#9D65E1" /><path d="M606.08 117.674667a405.162667 405.162667 0 0 1 193.237333 108.629333l-243.114666 242.986667L554.666667 469.333333V298.666667c0-23.466667-19.2-42.666667-42.666667-42.666667s-42.666667 19.2-42.666667 42.666667v213.333333c0 12.117333 5.12 23.125333 13.312 30.890667l-256.341333 256.426666a405.162667 405.162667 0 0 1-108.629333-193.237333z" fill="#A776E4" /><path d="M512 106.666667c32.426667 0 63.914667 3.84 94.165333 11.050666L117.717333 606.165333A405.290667 405.290667 0 0 1 106.666667 512c0-223.573333 181.76-405.333333 405.333333-405.333333z" fill="#BD98EB" /></svg>