<?xml version="1.0" standalone="no"?><!DOCTYPE svg PUBLIC "-//W3C//DTD SVG 1.1//EN" "http://www.w3.org/Graphics/SVG/1.1/DTD/svg11.dtd"><svg class="icon" width="200px" height="200.00px" viewBox="0 0 1024 1024" version="1.1" xmlns="http://www.w3.org/2000/svg"><path d="M601.12 896H288C164.29 896 64 795.71 64 672V480c0-88.22 71.78-160 160-160a76.35 76.35 0 0 0 67.28-40c20.67-38.28 36.1-77 45.86-115a134.43 134.43 0 0 1 264.2 44.23c-2.82 34-8 63.59-15.91 90.3A16 16 0 0 0 600.85 320H743.3a159.81 159.81 0 0 1 149.81 216.18l-80.43 214.47a223 223 0 0 1-81.33 104.89C693.25 882.2 647.63 896 601.12 896zM467.33 128a70.35 70.35 0 0 0-68.2 52.84c-11.05 43.1-28.39 86.68-51.54 129.55A140.26 140.26 0 0 1 223.92 384 96 96 0 0 0 128 480v192a160 160 0 0 0 160 160h314.94a160.75 160.75 0 0 0 149.82-103.82l80.42-214.47A96 96 0 0 0 743.3 384H555.41a48.84 48.84 0 0 1-41.67-22.79 47.87 47.87 0 0 1-2.64-45.55c14.27-30.59 22.68-66.11 26.45-111.76a70.32 70.32 0 0 0-70.22-75.9z" fill="#333333" /><path d="M288 512a32 32 0 0 1 32 32v144a16 16 0 0 1-16 16h-32a16 16 0 0 1-16-16V544a32 32 0 0 1 32-32z" fill="#EB4242" /></svg>