<?xml version="1.0" standalone="no"?><!DOCTYPE svg PUBLIC "-//W3C//DTD SVG 1.1//EN" "http://www.w3.org/Graphics/SVG/1.1/DTD/svg11.dtd"><svg class="icon" width="200px" height="200.00px" viewBox="0 0 1024 1024" version="1.1" xmlns="http://www.w3.org/2000/svg"><path d="M597.333333 426.666667c0 46.933333-38.4 85.333333-85.333333 85.333333s-85.333333-38.4-85.333333-85.333333 38.4-85.333333 85.333333-85.333334 85.333333 38.4 85.333333 85.333334z m234.666667 0c0 259.413333-199.253333 421.973333-284.586667 479.573333-10.666667 7.68-23.04 11.093333-35.413333 11.093333-12.373333 0-24.746667-3.413333-35.84-11.093333-85.333333-57.6-284.16-219.733333-284.16-479.573333 0-182.613333 137.386667-320 320-320 182.186667 0 320 137.386667 320 320zM682.666667 426.666667c0-94.293333-76.373333-170.666667-170.666667-170.666667s-170.666667 76.373333-170.666667 170.666667 76.373333 170.666667 170.666667 170.666666 170.666667-76.373333 170.666667-170.666666z" fill="#40A9FF" /><path d="M832 426.666667c0 25.685333-1.962667 50.432-5.546667 74.24L444.032 883.2c-43.861333-33.194667-101.12-83.925333-149.930667-151.765333l148.736-148.736a170.624 170.624 0 0 0 225.28-225.28l111.317334-111.36C812.8 296.917333 832 358.656 832 426.666667z m-234.752 1.621333L597.333333 426.666667a85.589333 85.589333 0 0 1-83.626666 85.333333l83.541333-83.712z" fill="#53B1FF" /><path d="M341.333333 426.666667a170.666667 170.666667 0 0 0 101.504 156.074666l-148.736 148.736c-41.386667-57.514667-76.714667-127.232-92.8-208.938666l148.224-148.266667A170.666667 170.666667 0 0 0 341.333333 426.666667z m170.666667-85.333334c46.933333 0 85.333333 38.4 85.333333 85.333334l-0.085333 1.578666L513.621333 512H512c-46.933333 0-85.333333-38.4-85.333333-85.333333s38.4-85.333333 85.333333-85.333334z m267.434667-95.189333l-111.36 111.36a170.666667 170.666667 0 0 0-208.426667-93.312l144.981333-144.981333a307.797333 307.797333 0 0 1 174.805334 126.933333z" fill="#66BAFF" /><path d="M512 106.666667c32.469333 0 63.530667 4.352 92.672 12.586666l-145.024 144.938667a171.008 171.008 0 0 0-110.122667 110.122667l-148.224 148.266666c-5.973333-30.336-9.301333-62.293333-9.301333-95.914666 0-182.613333 137.386667-320 320-320z" fill="#8CCBFF" /></svg>