<?xml version="1.0" standalone="no"?><!DOCTYPE svg PUBLIC "-//W3C//DTD SVG 1.1//EN" "http://www.w3.org/Graphics/SVG/1.1/DTD/svg11.dtd"><svg class="icon" width="200px" height="200.00px" viewBox="0 0 1024 1024" version="1.1" xmlns="http://www.w3.org/2000/svg"><path d="M336.213333 118.4c5.12-2.56 10.24-4.693333 15.786667-6.4v703.189333l-90.88 46.506667c-32.853333 17.066667-70.826667 15.36-102.4-3.84a108.245333 108.245333 0 0 1-52.053333-93.44V330.368c0-58.026667 31.573333-110.421333 82.346666-136.448l147.2-75.52z m79.786667-6.4v703.189333l176.213333 90.453334c5.12 2.56 10.24 4.650667 15.786667 6.357333V208.810667l-176.213333-90.453334c-5.12-2.56-10.24-4.650667-15.786667-6.357333z m449.28 54.186667c-31.573333-19.2-69.546667-20.48-102.4-3.84l-90.88 46.464v703.189333c5.546667-1.706667 10.666667-3.84 15.786667-6.4l147.2-75.477333a152.362667 152.362667 0 0 0 82.346666-136.448V259.541333c0-38.826667-19.626667-73.813333-52.053333-93.397333z" fill="#FF9449" /><path d="M336.213333 118.4c5.12-2.56 10.24-4.693333 15.786667-6.4v703.189333l-90.88 46.506667c-32.853333 17.066667-70.826667 15.36-102.4-3.84a108.245333 108.245333 0 0 1-52.053333-93.44V330.368c0-58.026667 31.573333-110.421333 82.346666-136.448l147.2-75.52z m79.786667-6.4v703.189333l176.213333 90.453334c5.12 2.56 10.24 4.650667 15.786667 6.357333V208.810667l-176.213333-90.453334c-5.12-2.56-10.24-4.650667-15.786667-6.357333z m449.28 54.186667c-31.573333-19.2-69.546667-20.48-102.4-3.84l-90.88 46.464v703.189333c5.546667-1.706667 10.666667-3.84 15.786667-6.4l147.2-75.477333a152.362667 152.362667 0 0 0 82.346666-136.448V259.541333c0-38.826667-19.626667-73.813333-52.053333-93.397333z" fill="#FF9449" /><path d="M352 588.245333v226.986667l-90.88 46.464c-32.853333 17.066667-70.826667 15.36-102.4-3.84a107.136 107.136 0 0 1-37.717333-38.656l230.954666-230.954667z m256-256.042666v301.738666L422.997333 818.773333l-7.04-3.626666v-290.986667l192-192zM786.602667 153.6a104.021333 104.021333 0 0 1 78.634666 12.544c32.426667 19.626667 52.053333 54.613333 52.053334 93.44v65.024l-245.333334 245.333333V268.202667z" fill="#FF9E5B" /><path d="M352 112v174.506667l-245.333333 245.333333V330.325333c0-58.026667 31.573333-110.421333 82.346666-136.448l147.2-75.52c5.12-2.56 10.24-4.650667 15.786667-6.357333z m64 0c5.546667 1.706667 10.666667 3.84 15.786667 6.4l58.410666 29.909333-74.24 74.197334z" fill="#FFBE91" /><path d="M352 286.549333v301.653334L120.96 819.2a110.208 110.208 0 0 1-14.336-54.698667v-232.618666l245.333333-245.290667z m138.154667-138.197333l117.845333 60.458667v123.392l-192 192v-301.653334l74.154667-74.197333z m296.490666 5.248l-114.688 114.602667 0.042667-59.392 90.88-46.506667c7.68-3.84 15.658667-6.826667 23.765333-8.704z" fill="#FFA96D" /></svg>