<?xml version="1.0" standalone="no"?><!DOCTYPE svg PUBLIC "-//W3C//DTD SVG 1.1//EN" "http://www.w3.org/Graphics/SVG/1.1/DTD/svg11.dtd"><svg class="icon" width="200px" height="200.00px" viewBox="0 0 1024 1024" version="1.1" xmlns="http://www.w3.org/2000/svg"><path fill="#ffffff" d="M708.266667 955.733333H332.8c-145.066667 0-247.466667-102.4-247.466667-256V341.333333c0-153.6 98.133333-256 247.466667-256h157.866667c17.066667 0 34.133333 12.8 34.133333 34.133334s-12.8 34.133333-34.133333 34.133333H332.8C221.866667 149.333333 149.333333 226.133333 149.333333 341.333333v354.133334c0 115.2 72.533333 192 183.466667 192h375.466667c110.933333 0 183.466667-76.8 183.466666-192v-170.666667c0-17.066667 12.8-34.133333 34.133334-34.133333s34.133333 12.8 34.133333 34.133333v170.666667c-8.533333 157.866667-106.666667 260.266667-251.733333 260.266666z"  /><path fill="#ffffff" d="M503.466667 721.066667H345.6c-8.533333 0-17.066667-4.266667-21.333333-8.533334-4.266667-4.266667-8.533333-12.8-8.533334-21.333333l4.266667-162.133333c0-34.133333 12.8-64 38.4-85.333334l320-320c51.2-51.2 136.533333-51.2 187.733333 0l51.2 51.2c25.6 25.6 38.4 59.733333 38.4 93.866667 0 34.133333-12.8 68.266667-38.4 93.866667L597.333333 682.666667c-25.6 25.6-59.733333 38.4-93.866666 38.4z m-123.733334-64h128c17.066667 0 29.866667-4.266667 42.666667-17.066667l320-320c12.8-12.8 21.333333-29.866667 21.333333-51.2 0-17.066667-8.533333-34.133333-21.333333-51.2L814.933333 170.666667c-25.6-25.6-72.533333-25.6-98.133333 0l-320 320c-12.8 12.8-17.066667 25.6-17.066667 42.666666v123.733334z"  /><path fill="#ffffff" d="M840.533333 422.4c-8.533333 0-17.066667-4.266667-21.333333-8.533333l-196.266667-196.266667c-12.8-12.8-12.8-34.133333 0-46.933333s34.133333-12.8 46.933334 0l196.266666 196.266666c12.8 12.8 12.8 34.133333 0 46.933334-8.533333 4.266667-17.066667 8.533333-25.6 8.533333z"  /></svg>