<?xml version="1.0" standalone="no"?><!DOCTYPE svg PUBLIC "-//W3C//DTD SVG 1.1//EN" "http://www.w3.org/Graphics/SVG/1.1/DTD/svg11.dtd"><svg class="icon" width="200px" height="200.00px" viewBox="0 0 1024 1024" version="1.1" xmlns="http://www.w3.org/2000/svg"><path d="M512 960A448.11 448.11 0 0 1 337.61 99.22a448.11 448.11 0 0 1 348.78 825.56A445.19 445.19 0 0 1 512 960z m0-832c-211.74 0-384 172.26-384 384s172.26 384 384 384 384-172.26 384-384-172.26-384-384-384z" fill="#333333" /><path d="M544 768h-1.61a32 32 0 0 1-29.61-24.91l-42.53-188.31L281 512.22a32 32 0 0 1-3.1-61.58l384-128a32 32 0 0 1 40.47 40.5l-128 383A32 32 0 0 1 544 768z m-82.28-311.17c-15.38 5.12-14.27 27.23 1.55 30.78l40.73 9.17A32 32 0 0 1 528.21 521l9.13 40.38c3.57 15.79 25.65 16.9 30.78 1.54L611.19 434A16 16 0 0 0 591 413.75z" fill="#EB4242" /></svg>