<?xml version="1.0" standalone="no"?><!DOCTYPE svg PUBLIC "-//W3C//DTD SVG 1.1//EN" "http://www.w3.org/Graphics/SVG/1.1/DTD/svg11.dtd"><svg class="icon" width="200px" height="200.00px" viewBox="0 0 1024 1024" version="1.1" xmlns="http://www.w3.org/2000/svg"><path fill="#ffffff" d="M401.269241 16.445242 67.941212 16.445242c-37.31468 0-67.565145 30.103462-67.565145 67.229857l0 335.252161c0 37.132436 30.249458 67.229857 67.565145 67.229857L401.269241 486.157117c37.31468 0 67.574207-30.097421 67.574207-67.229857L468.843448 83.675099C468.843448 46.548704 438.583921 16.445242 401.269241 16.445242zM940.623439 16.445242 607.305479 16.445242c-37.31468 0-67.571187 30.103462-67.571187 67.229857l0 335.252161c0 37.132436 30.256507 67.229857 67.571187 67.229857l333.31796 0c37.324749 0 67.574207-30.097421 67.574207-67.229857L1008.197646 83.675099C1008.197646 46.548704 977.948187 16.445242 940.623439 16.445242zM401.269241 554.288125 67.941212 554.288125c-37.31468 0-67.565145 30.106483-67.565145 67.236905l0 335.249141c0 37.129416 30.249458 67.226836 67.565145 67.226836L401.269241 1024.001007c37.31468 0 67.574207-30.097421 67.574207-67.226836L468.843448 621.524023C468.843448 584.394607 438.583921 554.288125 401.269241 554.288125zM940.623439 554.288125 607.305479 554.288125c-37.31468 0-67.571187 30.106483-67.571187 67.236905l0 335.249141c0 37.129416 30.256507 67.226836 67.571187 67.226836l333.31796 0c37.324749 0 67.574207-30.097421 67.574207-67.226836L1008.197646 621.524023C1008.197646 584.394607 977.948187 554.288125 940.623439 554.288125z" /></svg>