<?xml version="1.0" standalone="no"?><!DOCTYPE svg PUBLIC "-//W3C//DTD SVG 1.1//EN" "http://www.w3.org/Graphics/SVG/1.1/DTD/svg11.dtd"><svg class="icon" width="200px" height="200.00px" viewBox="0 0 1024 1024" version="1.1" xmlns="http://www.w3.org/2000/svg"><path d="M704 928H320A224 224 0 0 1 96 704V320A224 224 0 0 1 320 96h96a32 32 0 0 1 32 32 32 32 0 0 1-32 32h-96a160 160 0 0 0-160 160v384a160 160 0 0 0 160 160h384a160 160 0 0 0 160-160v-96a32 32 0 0 1 32-32 32 32 0 0 1 32 32v96a224 224 0 0 1-224 224z" fill="#333333" /><path d="M481.49 688.27a32 32 0 0 1-25.26-39.55 911.17 911.17 0 0 1 63-168.81c31.42-64.06 69.15-121.49 112.13-170.71 54.18-62 116.85-111.1 186.29-145.82l28.62 57.24C705.52 291 622 415.8 576.73 508.09a849.52 849.52 0 0 0-58.54 156.79 32 32 0 0 1-36.7 23.39z" fill="#333333" /><path d="M912 448h-32a16 16 0 0 1-16-16V320a160 160 0 0 0-160-160h-96a32 32 0 0 1-32-32 32 32 0 0 1 32-32h96a224 224 0 0 1 224 224v112a16 16 0 0 1-16 16z" fill="#EB4242" /></svg>