<?xml version="1.0" standalone="no"?><!DOCTYPE svg PUBLIC "-//W3C//DTD SVG 1.1//EN" "http://www.w3.org/Graphics/SVG/1.1/DTD/svg11.dtd"><svg class="icon" width="200px" height="200.00px" viewBox="0 0 1024 1024" version="1.1" xmlns="http://www.w3.org/2000/svg"><path fill="#ffffff" d="M750.933333 499.2c-17.066667 0-34.133333-12.8-34.133333-34.133333s12.8-34.133333 34.133333-34.133334c51.2 0 93.866667-42.666667 93.866667-89.6 0-25.6-8.533333-46.933333-25.6-64-17.066667-17.066667-38.4-25.6-64-25.6-17.066667 0-34.133333-12.8-34.133333-34.133333 0-17.066667 12.8-34.133333 34.133333-34.133333 42.666667 0 81.066667 17.066667 110.933333 46.933333 29.866667 29.866667 46.933333 68.266667 46.933334 110.933333-8.533333 85.333333-76.8 157.866667-162.133334 157.866667z"  /><path fill="#ffffff" d="M870.4 776.533333c-17.066667 0-29.866667-12.8-29.866667-29.866666 0-17.066667 12.8-34.133333 29.866667-34.133334 17.066667 0 38.4-12.8 46.933333-25.6 4.266667-4.266667 4.266667-12.8 0-17.066666-12.8-12.8-29.866667-25.6-46.933333-25.6h-4.266667c-17.066667-4.266667-38.4-8.533333-55.466666-8.533334s-29.866667-17.066667-29.866667-34.133333 17.066667-29.866667 34.133333-29.866667c21.333333 0 42.666667 4.266667 64 8.533334 38.4 4.266667 72.533333 25.6 93.866667 55.466666 0 0 0 4.266667 4.266667 4.266667 12.8 25.6 12.8 51.2 0 76.8 0 0 0 4.266667-4.266667 4.266667-29.866667 29.866667-64 51.2-102.4 55.466666z"  /><path fill="#ffffff" d="M268.8 499.2c-85.333333 0-157.866667-68.266667-157.866667-153.6s68.266667-153.6 153.6-157.866667c21.333333 0 34.133333 12.8 34.133334 29.866667 0 17.066667-12.8 34.133333-34.133334 34.133333-51.2 0-89.6 42.666667-89.6 93.866667 0 51.2 42.666667 89.6 93.866667 89.6 17.066667 0 34.133333 12.8 34.133333 34.133333s-17.066667 29.866667-34.133333 29.866667z"  /><path fill="#ffffff" d="M149.333333 776.533333c-42.666667-4.266667-76.8-25.6-98.133333-55.466666 0 0 0-4.266667-4.266667-4.266667-12.8-25.6-12.8-51.2 0-76.8 0 0 0-4.266667 4.266667-4.266667 21.333333-29.866667 55.466667-51.2 93.866667-55.466666 21.333333-4.266667 42.666667-8.533333 64-8.533334 17.066667 0 34.133333 12.8 34.133333 29.866667 0 17.066667-12.8 34.133333-29.866667 34.133333-17.066667 0-38.4 4.266667-55.466666 8.533334h-4.266667c-17.066667 0-34.133333 12.8-46.933333 25.6-4.266667 4.266667-4.266667 12.8 0 17.066666 12.8 17.066667 29.866667 25.6 46.933333 25.6 17.066667 0 29.866667 17.066667 29.866667 34.133334-4.266667 17.066667-17.066667 29.866667-34.133334 29.866666zM507.733333 870.4c-81.066667 0-290.133333 0-290.133333-136.533333s217.6-136.533333 290.133333-136.533334c72.533333 0 290.133333 0 290.133334 136.533334s-217.6 136.533333-290.133334 136.533333z m0-209.066667c-102.4 0-226.133333 12.8-226.133333 72.533334s123.733333 72.533333 226.133333 72.533333 226.133333-12.8 226.133334-72.533333-123.733333-72.533333-226.133334-72.533334z"  /><path fill="#ffffff" d="M507.733333 541.866667c-51.2 0-102.4-21.333333-140.8-55.466667S311.466667 396.8 311.466667 341.333333c0-106.666667 89.6-196.266667 196.266666-196.266666 51.2 0 102.4 21.333333 140.8 55.466666 38.4 38.4 59.733333 85.333333 59.733334 140.8 0 51.2-21.333333 102.4-55.466667 140.8-42.666667 38.4-89.6 59.733333-145.066667 59.733334 4.266667 0 0 0 0 0z m0-64s4.266667 0 0 0c38.4 0 68.266667-12.8 93.866667-38.4 25.6-25.6 38.4-59.733333 38.4-98.133334 0-34.133333-12.8-68.266667-38.4-93.866666-25.6-25.6-59.733333-38.4-93.866667-38.4-34.133333 0-68.266667 12.8-93.866666 38.4-21.333333 25.6-38.4 59.733333-38.4 93.866666s12.8 68.266667 38.4 93.866667c25.6 25.6 59.733333 42.666667 93.866666 42.666667z"  /></svg>