<?xml version="1.0" standalone="no"?><!DOCTYPE svg PUBLIC "-//W3C//DTD SVG 1.1//EN" "http://www.w3.org/Graphics/SVG/1.1/DTD/svg11.dtd"><svg class="icon" width="200px" height="200.00px" viewBox="0 0 1024 1024" version="1.1" xmlns="http://www.w3.org/2000/svg"><path d="M512 85.333333C276.906667 85.333333 85.333333 276.906667 85.333333 512s191.573333 426.666667 426.666667 426.666667 426.666667-191.573333 426.666667-426.666667S747.093333 85.333333 512 85.333333z m0 640c-23.466667 0-42.666667-19.2-42.666667-42.666666s19.2-42.666667 42.666667-42.666667 42.666667 19.2 42.666667 42.666667-19.2 42.666667-42.666667 42.666666z m42.666667-213.333333c0 23.466667-19.2 42.666667-42.666667 42.666667s-42.666667-19.2-42.666667-42.666667V341.333333c0-23.466667 19.2-42.666667 42.666667-42.666666s42.666667 19.2 42.666667 42.666666v170.666667z" fill="#FF9449" /><path d="M814.250667 211.285333a427.093333 427.093333 0 0 1 110.208 191.488L402.773333 924.458667a427.093333 427.093333 0 0 1-191.488-110.208l271.36-271.36c7.68 7.296 18.048 11.776 29.354667 11.776 23.466667 0 42.666667-19.2 42.666667-42.666667v-41.130667zM512 640c-23.466667 0-42.666667 19.2-42.666667 42.666667s19.2 42.666667 42.666667 42.666666 42.666667-19.2 42.666667-42.666666-19.2-42.666667-42.666667-42.666667z" fill="#FF9E5B" /><path d="M623.658667 100.181333a427.178667 427.178667 0 0 1 190.592 111.104L554.666667 470.869333 554.666667 341.333333c0-21.76-16.554667-39.893333-37.717334-42.368L512 298.666667c-23.466667 0-42.666667 19.2-42.666667 42.666666v170.666667c0 12.117333 5.12 23.125333 13.312 30.890667l-271.36 271.36a427.178667 427.178667 0 0 1-111.104-190.592z" fill="#FFA96D" /><path d="M512 85.333333c38.613333 0 76.032 5.162667 111.658667 14.848L100.181333 623.658667A425.130667 425.130667 0 0 1 85.333333 512C85.333333 276.906667 276.906667 85.333333 512 85.333333z" fill="#FFBE91" /></svg>