<?xml version="1.0" standalone="no"?><!DOCTYPE svg PUBLIC "-//W3C//DTD SVG 1.1//EN" "http://www.w3.org/Graphics/SVG/1.1/DTD/svg11.dtd"><svg class="icon" width="200px" height="200.00px" viewBox="0 0 1024 1024" version="1.1" xmlns="http://www.w3.org/2000/svg"><path d="M512 106.666667c-223.573333 0-405.333333 181.76-405.333333 405.333333s181.76 405.333333 405.333333 405.333333 405.333333-181.76 405.333333-405.333333-181.76-405.333333-405.333333-405.333333zM320 565.333333a53.333333 53.333333 0 1 1 0-106.666666 53.333333 53.333333 0 0 1 0 106.666666z m192 0a53.333333 53.333333 0 1 1 0-106.666666 53.333333 53.333333 0 0 1 0 106.666666z m192 0a53.333333 53.333333 0 1 1 0-106.666666 53.333333 53.333333 0 0 1 0 106.666666z" fill="#FF9449" /><path d="M799.232 226.218667a405.077333 405.077333 0 0 1 107.648 194.133333L420.352 906.88a405.077333 405.077333 0 0 1-194.133333-107.648l248.874666-248.746667a53.333333 53.333333 0 0 0 75.392-75.392zM704 458.666667a53.333333 53.333333 0 1 0 0 106.666666 53.333333 53.333333 0 0 0 0-106.666666z" fill="#FF9E5B" /><path d="M512 106.666667c32.426667 0 63.914667 3.84 94.165333 11.050666L117.717333 606.165333A405.290667 405.290667 0 0 1 106.666667 512c0-223.573333 181.76-405.333333 405.333333-405.333333z" fill="#FFBE91" /><path d="M606.08 117.674667a405.162667 405.162667 0 0 1 193.237333 108.629333l-248.832 248.746667a53.333333 53.333333 0 1 0-75.392 75.392l-248.789333 248.874666a405.162667 405.162667 0 0 1-108.629333-193.237333zM320 458.666667a53.333333 53.333333 0 1 0 0 106.666666 53.333333 53.333333 0 0 0 0-106.666666z" fill="#FFA96D" /></svg>