<?xml version="1.0" standalone="no"?><!DOCTYPE svg PUBLIC "-//W3C//DTD SVG 1.1//EN" "http://www.w3.org/Graphics/SVG/1.1/DTD/svg11.dtd"><svg class="icon" width="200px" height="200.00px" viewBox="0 0 1024 1024" version="1.1" xmlns="http://www.w3.org/2000/svg"><path d="M133.973333 707.413333A188.8 188.8 0 0 1 98.602667 597.333333v-170.666666c0-105.856 86.698667-192 193.237333-192h214.698667c28.288 0 55.253333 6.058667 80.128 17.92a21.290667 21.290667 0 0 1 5.888 34.304l-425.984 423.253333a21.589333 21.589333 0 0 1-15.189334 6.229333c-0.597333 0-1.194667 0-1.792-0.085333a21.589333 21.589333 0 0 1-15.701333-8.917333z m760.832-372.48a67.626667 67.626667 0 0 0-69.077333 3.328l-48.938667 32.426667a16.128 16.128 0 0 0-7.168 13.312v256c0 5.333333 2.688 10.325333 7.168 13.312l48.896 32.426667a67.2 67.2 0 0 0 69.12 3.328 66.986667 66.986667 0 0 0 35.84-59.306667V394.24a67.114667 67.114667 0 0 0-35.84-59.306667z m-14.378666-134.101333a42.410667 42.410667 0 0 0 0-60.330667 43.093333 43.093333 0 0 0-60.714667 0l-687.018667 682.666667a42.453333 42.453333 0 0 0 0 60.330667 42.965333 42.965333 0 0 0 60.714667 0l95.146667-94.549334c1.152 0 2.133333 0.384 3.328 0.384h214.698666c106.538667 0 193.237333-86.144 193.237334-192v-170.666666c0-14.293333-1.664-28.202667-4.693334-41.685334l185.301334-184.149333z" fill="#40A9FF" /><path d="M819.712 140.501333a43.093333 43.093333 0 0 1 60.757333 0 42.410667 42.410667 0 0 1 0 60.330667l-185.344 184.149333c3.029333 13.482667 4.693333 27.392 4.693334 41.685334l-0.042667 115.456-247.210667 247.210666H291.882667a9.216 9.216 0 0 1-1.664-0.213333l-1.664-0.170667-95.146667 94.549334a42.965333 42.965333 0 0 1-60.714667 0 42.453333 42.453333 0 0 1 0-60.330667z m6.016 197.76a67.626667 67.626667 0 0 1 76.629333 1.322667l-132.736 132.693333V384c0-4.266667 1.706667-8.32 4.693334-11.306667l2.474666-2.005333z" fill="#53B1FF" /><path d="M506.581333 234.666667c28.288 0 55.253333 6.058667 80.128 17.92a21.290667 21.290667 0 0 1 5.888 34.304l-425.984 423.253333a21.589333 21.589333 0 0 1-15.189333 6.229333l-1.792-0.085333a21.589333 21.589333 0 0 1-15.701333-8.917333A188.8 188.8 0 0 1 98.645333 597.333333v-57.429333L403.797333 234.666667l102.741334 0.042666z" fill="#66BAFF" /><path d="M403.84 234.666667l-305.194667 305.194666V426.666667c0-105.856 86.698667-192 193.237334-192h111.957333z" fill="#8CCBFF" /></svg>