<?xml version="1.0" standalone="no"?><!DOCTYPE svg PUBLIC "-//W3C//DTD SVG 1.1//EN" "http://www.w3.org/Graphics/SVG/1.1/DTD/svg11.dtd"><svg class="icon" width="200px" height="200.00px" viewBox="0 0 1024 1024" version="1.1" xmlns="http://www.w3.org/2000/svg"><path fill="#ffffff" d="M256 972.8c-46.933333 0-93.866667-17.066667-128-51.2-34.133333-34.133333-51.2-76.8-51.2-128V418.133333c0-42.666667 21.333333-81.066667 55.466667-106.666666l273.066666-221.866667c59.733333-46.933333 145.066667-46.933333 209.066667 0L896 315.733333c34.133333 25.6 51.2 64 51.2 106.666667v371.2c0 46.933333-21.333333 93.866667-51.2 128-34.133333 34.133333-76.8 51.2-128 51.2h-81.066667c-46.933333 0-81.066667-38.4-81.066666-85.333333v-132.266667c0-8.533333-4.266667-12.8-8.533334-21.333333-8.533333-4.266667-12.8-8.533333-21.333333-8.533334h-123.733333c-17.066667 0-29.866667 12.8-29.866667 29.866667V896c-4.266667 42.666667-42.666667 76.8-85.333333 76.8H256z m320-311.466667c51.2 0 93.866667 42.666667 93.866667 93.866667v132.266667c0 12.8 8.533333 21.333333 21.333333 21.333333h81.066667a116.565333 116.565333 0 0 0 115.2-115.2V418.133333c0-21.333333-12.8-42.666667-29.866667-55.466666l-281.6-221.866667c-38.4-29.866667-89.6-29.866667-128 0L166.4 362.666667c-17.066667 17.066667-25.6 34.133333-25.6 59.733333v371.2A116.565333 116.565333 0 0 0 256 908.8h81.066667c12.8 0 21.333333-8.533333 21.333333-21.333333v-132.266667c0-51.2 42.666667-93.866667 93.866667-93.866667h123.733333z"  /></svg>