<?xml version="1.0" standalone="no"?><!DOCTYPE svg PUBLIC "-//W3C//DTD SVG 1.1//EN" "http://www.w3.org/Graphics/SVG/1.1/DTD/svg11.dtd"><svg class="icon" width="200px" height="200.00px" viewBox="0 0 1024 1024" version="1.1" xmlns="http://www.w3.org/2000/svg"><path d="M692.83 896H335a160 160 0 0 1-158.38-137.37l-48.3-338.1a32 32 0 0 1 51.13-29.94l162.74 124.59a16 16 0 0 0 24.06-5.59l117.09-235.82A32 32 0 0 1 512 256a32 32 0 0 1 28.62 17.69L659.5 511.45a16 16 0 0 0 23.61 5.86L861.4 390a32 32 0 0 1 50.1 31.67l-61.16 342.5A159.83 159.83 0 0 1 692.83 896zM202.76 489L240 749.58c6.71 47 47.57 82.42 95 82.42h357.83a95.91 95.91 0 0 0 94.51-79.12l47.35-265.19L674.6 602a32 32 0 0 1-47.22-11.73L512.1 359.75 397.66 590.23a32 32 0 0 1-48.11 11.18z" fill="#333333" /><path d="M864 448a96 96 0 1 1 96-96 96.11 96.11 0 0 1-96 96z m0-128a32 32 0 1 0 32 32 32 32 0 0 0-32-32zM160 448a96 96 0 1 1 96-96 96.11 96.11 0 0 1-96 96z m0-128a32 32 0 1 0 32 32 32 32 0 0 0-32-32z" fill="#333333" /><path d="M512 288a96 96 0 1 1 96-96 96.11 96.11 0 0 1-96 96z m0-128a32 32 0 1 0 32 32 32 32 0 0 0-32-32z" fill="#EB4242" /></svg>