<?xml version="1.0" standalone="no"?><!DOCTYPE svg PUBLIC "-//W3C//DTD SVG 1.1//EN" "http://www.w3.org/Graphics/SVG/1.1/DTD/svg11.dtd"><svg class="icon" width="200px" height="200.00px" viewBox="0 0 1024 1024" version="1.1" xmlns="http://www.w3.org/2000/svg"><path d="M829.781333 619.605333a21.248 21.248 0 0 1-19.114666 30.848H277.333333v234.88a42.666667 42.666667 0 1 1-85.333333 0V288A192.213333 192.213333 0 0 1 384 96h426.666667a21.333333 21.333333 0 0 1 19.114666 30.848l-108.928 217.728c-8.96 17.92-8.96 39.338667 0 57.258667l108.928 217.770666z" fill="#FF9449" /><path d="M277.290667 705.578667v179.754666a42.666667 42.666667 0 1 1-85.333334 0v-94.421333l85.333334-85.333333z m526.08-526.122667l-82.517334 165.12c-8.96 17.92-8.96 39.338667 0 57.258667l53.930667 107.946666-140.672 140.672H332.373333L803.413333 179.413333z" fill="#FF9E5B" /><path d="M810.666667 96a21.333333 21.333333 0 0 1 19.114666 30.848l-26.368 52.565333-470.997333 471.04H277.333333v55.082667l-85.333333 85.333333V489.130667l393.216-393.173334L810.666667 96z" fill="#FFA96D" /><path d="M585.173333 96L192 489.173333V287.957333A192.213333 192.213333 0 0 1 384 96h201.173333z" fill="#FFBE91" /></svg>