<?xml version="1.0" standalone="no"?><!DOCTYPE svg PUBLIC "-//W3C//DTD SVG 1.1//EN" "http://www.w3.org/Graphics/SVG/1.1/DTD/svg11.dtd"><svg class="icon" width="200px" height="200.00px" viewBox="0 0 1024 1024" version="1.1" xmlns="http://www.w3.org/2000/svg"><path d="M498.6368 973.4656c-221.184 0-366.6432-168.8064-379.6992-332.8512-12.5952-157.9008 48.0256-237.2608 188.672-355.3792C430.08 182.3232 466.3808 71.7312 466.7392 70.6048a30.88384 30.88384 0 0 1 18.7904-19.5584 30.8736 30.8736 0 0 1 26.9312 2.9184c115.3536 73.2672 179.5072 149.504 196.1472 233.0624 5.7856 29.0816 5.0688 56.2688 1.024 80.9984 8.704-9.6768 18.176-20.6848 29.5424-33.8944l5.4272-6.2976a30.86336 30.86336 0 0 1 23.1936-10.7008h0.1024c8.9088 0 17.3056 3.84 23.1424 10.5472 111.5648 128.1024 151.3984 251.648 118.4256 367.1552-45.824 160.5632-217.9072 245.1968-258.048 257.536a30.4128 30.4128 0 0 1-21.4528-1.28c-63.4368-28.0576-109.5168-87.2448-143.4112-148.3776 1.8944 37.5808 14.3872 73.4208 41.8304 125.5936 5.0176 9.472 4.6592 20.8896-0.8192 30.1056s-15.4112 14.848-26.1632 14.9504c-0.9216 0.1024-1.8432 0.1024-2.7648 0.1024z m11.3664-847.2576c-21.9136 46.08-70.2464 128.256-162.8672 206.0288-132.1984 111.0528-177.2544 173.568-166.912 303.4624 9.8816 124.1088 112.128 251.4944 270.6944 273.1008-33.792-79.4624-31.5392-133.4272-10.9568-221.44a30.72 30.72 0 0 1 27.5456-23.6544c13.4144-1.024 25.856 6.7072 30.8224 19.1488 44.8 111.36 91.392 177.5616 145.7152 206.848 44.1344-18.4832 171.4176-89.2416 206.336-211.6608 24.6784-86.528-3.2256-181.4528-82.944-282.5728-33.0752 37.9392-55.1424 59.8528-104.3456 91.904a30.7456 30.7456 0 0 1-45.2608-37.2736c1.8944-4.6592 3.9424-9.5744 6.144-14.7456 30.0032-71.0144 74.6496-176.6912-113.9712-309.1456z" fill="#303135" /><path d="M280.32 728.8832c-10.9568 0-21.5552-5.888-27.0848-16.1792-46.8992-87.296-6.5536-214.784 58.9824-274.5856 59.392-54.2208 116.6336-107.1104 117.1968-107.6224a30.6944 30.6944 0 0 1 43.4176 1.7408 30.6944 30.6944 0 0 1-1.7408 43.4176c-0.5632 0.512-57.9584 53.504-117.4528 107.8784-53.0432 48.4352-75.52 145.7152-46.2848 200.1408 8.0384 14.9504 2.4064 33.5872-12.544 41.6256-4.608 2.4064-9.5744 3.584-14.4896 3.584z" fill="#FF623E" /></svg>