<?xml version="1.0" standalone="no"?><!DOCTYPE svg PUBLIC "-//W3C//DTD SVG 1.1//EN" "http://www.w3.org/Graphics/SVG/1.1/DTD/svg11.dtd"><svg class="icon" width="200px" height="200.00px" viewBox="0 0 1024 1024" version="1.1" xmlns="http://www.w3.org/2000/svg"><path d="M307.2 661.333333c-8.533333 0-12.8-4.266667-21.333333-8.533333-12.8-12.8-17.066667-29.866667-4.266667-46.933333l128-166.4c4.266667-8.533333 12.8-12.8 21.333333-12.8s17.066667 0 25.6 8.533333l119.466667 93.866667L682.666667 396.8c8.533333-12.8 29.866667-17.066667 42.666666-4.266667 12.8 12.8 17.066667 29.866667 4.266667 46.933334L605.866667 597.333333c-4.266667 8.533333-12.8 12.8-21.333334 12.8s-17.066667 0-25.6-8.533333L443.733333 512l-106.666666 140.8c-8.533333 4.266667-17.066667 8.533333-29.866667 8.533333z" fill="#200E32" opacity=".4" /><path d="M853.333333 294.4c-64 0-115.2-51.2-115.2-115.2 0-64 51.2-115.2 115.2-115.2s115.2 51.2 115.2 115.2c0 64-51.2 115.2-115.2 115.2zM853.333333 128c-25.6 0-51.2 21.333333-51.2 51.2 0 25.6 21.333333 51.2 51.2 51.2s51.2-21.333333 51.2-51.2c0-25.6-25.6-51.2-51.2-51.2z" fill="#200E32" /><path d="M695.466667 947.2H328.533333c-145.066667 0-238.933333-102.4-238.933333-251.733333v-341.333334c0-149.333333 98.133333-251.733333 238.933333-251.733333H640c17.066667 0 34.133333 12.8 34.133333 34.133333s-12.8 34.133333-34.133333 34.133334H328.533333C221.866667 170.666667 153.6 243.2 153.6 358.4v345.6c0 115.2 68.266667 187.733333 174.933333 187.733333h366.933334c106.666667 0 174.933333-72.533333 174.933333-187.733333v-298.666667c0-17.066667 12.8-34.133333 34.133333-34.133333s34.133333 12.8 34.133334 34.133333v298.666667c-4.266667 145.066667-102.4 243.2-243.2 243.2z" fill="#200E32" /></svg>