<?xml version="1.0" standalone="no"?><!DOCTYPE svg PUBLIC "-//W3C//DTD SVG 1.1//EN" "http://www.w3.org/Graphics/SVG/1.1/DTD/svg11.dtd"><svg class="icon" width="200px" height="200.00px" viewBox="0 0 1024 1024" version="1.1" xmlns="http://www.w3.org/2000/svg"><path fill="#ffffff" d="M315.733333 759.466667c-17.066667 0-34.133333-12.8-34.133333-34.133334v-294.4c0-17.066667 12.8-34.133333 34.133333-34.133333s34.133333 12.8 34.133334 34.133333V725.333333c-4.266667 21.333333-17.066667 34.133333-34.133334 34.133334z"  /><path fill="#ffffff" d="M512 759.466667c-17.066667 0-34.133333-12.8-34.133333-34.133334V294.4c0-17.066667 12.8-34.133333 34.133333-34.133333s34.133333 12.8 34.133333 34.133333V725.333333c0 21.333333-12.8 34.133333-34.133333 34.133334z"  /><path fill="#ffffff" d="M708.266667 759.466667c-17.066667 0-34.133333-12.8-34.133334-34.133334v-136.533333c0-17.066667 12.8-34.133333 34.133334-34.133333s34.133333 12.8 34.133333 34.133333V725.333333c0 21.333333-17.066667 34.133333-34.133333 34.133334z"  /><path fill="#ffffff" d="M712.533333 972.8H311.466667c-153.6 0-260.266667-106.666667-260.266667-268.8V324.266667c0-162.133333 102.4-268.8 260.266667-268.8h401.066666c153.6 0 260.266667 106.666667 260.266667 268.8v375.466666c0 162.133333-106.666667 273.066667-260.266667 273.066667z m-401.066666-853.333333c-119.466667 0-196.266667 81.066667-196.266667 204.8v375.466666c0 123.733333 76.8 204.8 196.266667 204.8h401.066666c119.466667 0 196.266667-81.066667 196.266667-204.8V324.266667c0-123.733333-76.8-204.8-196.266667-204.8H311.466667z"  /></svg>