<?xml version="1.0" standalone="no"?><!DOCTYPE svg PUBLIC "-//W3C//DTD SVG 1.1//EN" "http://www.w3.org/Graphics/SVG/1.1/DTD/svg11.dtd"><svg class="icon" width="200px" height="200.00px" viewBox="0 0 1024 1024" version="1.1" xmlns="http://www.w3.org/2000/svg"><path d="M640 416H384v-106.666667c0-70.4 57.6-128 128-128 59.733333 0 115.2 41.386667 129.28 96 5.973333 22.613333 29.013333 36.693333 52.053333 30.72 22.613333-5.973333 36.693333-29.013333 30.72-52.053333-23.893333-92.586667-113.066667-160-212.053333-160-117.76 0-213.333333 95.573333-213.333333 213.333333v127.573334c-63.146667 31.573333-106.666667 96-106.666667 171.093333v128c0 105.813333 86.186667 192 192 192h256c105.813333 0 192-86.186667 192-192v-128c0-105.813333-86.186667-192-192-192z m-85.333333 277.333333c0 23.466667-19.2 42.666667-42.666667 42.666667s-42.666667-19.2-42.666667-42.666667v-42.666666c0-23.466667 19.2-42.666667 42.666667-42.666667s42.666667 19.2 42.666667 42.666667v42.666666z" fill="#FF3D3F" /><path d="M688.64 422.229333a192.64 192.64 0 0 1 141.653333 160.085334l-345.685333 345.642666L384 928a191.530667 191.530667 0 0 1-140.16-60.970667l226.816-226.816a42.368 42.368 0 0 0-1.322667 10.453334v42.666666c0 23.466667 19.2 42.666667 42.666667 42.666667s42.666667-19.2 42.666667-42.666667v-42.666666a42.794667 42.794667 0 0 0-53.12-41.386667z" fill="#FF5052" /><path d="M393.173333 416H640c16.810667 0 33.109333 2.133333 48.64 6.229333l-187.136 187.093334c-15.104 3.84-27.008 15.786667-30.848 30.890666l-226.816 226.858667A191.274667 191.274667 0 0 1 192 736v-118.869333L393.130667 416z m265.002667-264.96A208.896 208.896 0 0 1 724.053333 256c5.973333 23.04-8.106667 46.08-30.72 52.053333-23.04 5.973333-46.08-8.106667-52.053333-30.72-6.656-25.813333-22.570667-48.682667-43.818667-65.621333z" fill="#FF6365" /><path d="M512 96c54.912 0 106.752 20.736 146.176 54.997333l-60.714667 60.714667A138.24 138.24 0 0 0 512 181.333333c-70.4 0-128 57.6-128 128v106.666667h9.173333L192 617.173333v-9.173333c0-71.808 39.808-133.888 98.56-166.826667l8.106667-4.266666V309.333333c0-117.76 95.573333-213.333333 213.333333-213.333333z" fill="#FF8A8B" /></svg>