<?xml version="1.0" standalone="no"?><!DOCTYPE svg PUBLIC "-//W3C//DTD SVG 1.1//EN" "http://www.w3.org/Graphics/SVG/1.1/DTD/svg11.dtd"><svg class="icon" width="200px" height="200.00px" viewBox="0 0 1024 1024" version="1.1" xmlns="http://www.w3.org/2000/svg"><path d="M693.333333 426.666667v170.666666c0 105.856-86.144 192-192 192h-213.333333a192.213333 192.213333 0 0 1-192-192v-170.666666c0-105.856 86.144-192 192-192h213.333333c105.856 0 192 86.144 192 192z m196.224-96.469334a71.978667 71.978667 0 0 0-74.069333 3.626667l-48.64 32.426667A21.376 21.376 0 0 0 757.333333 384v256c0 7.125333 3.541333 13.781333 9.514667 17.749333l48.597333 32.384a71.978667 71.978667 0 0 0 74.112 3.669334c23.722667-12.629333 38.442667-37.162667 38.442667-64.042667V394.24c0-26.88-14.72-51.413333-38.442667-64.042667z" fill="#40A9FF" /><path d="M693.333333 426.666667v121.941333L452.48 789.333333H288a190.890667 190.890667 0 0 1-105.514667-31.658666L642.986667 297.216c31.274667 34.133333 50.346667 79.616 50.346666 129.450667z m122.154667-92.842667a71.978667 71.978667 0 0 1 87.253333 5.376l-145.450666 145.408L757.333333 384a21.333333 21.333333 0 0 1 6.229334-15.061333l3.285333-2.688z" fill="#53B1FF" /><path d="M501.333333 234.666667a191.573333 191.573333 0 0 1 141.653334 62.549333L182.485333 757.674667A192 192 0 0 1 96 597.333333v-54.826666L403.797333 234.666667l97.493334 0.042666z" fill="#66BAFF" /><path d="M403.84 234.666667L96 542.506667V426.666667c0-105.856 86.144-192 192-192h115.84z" fill="#8CCBFF" /></svg>