<?xml version="1.0" standalone="no"?><!DOCTYPE svg PUBLIC "-//W3C//DTD SVG 1.1//EN" "http://www.w3.org/Graphics/SVG/1.1/DTD/svg11.dtd"><svg class="icon" width="200px" height="200.00px" viewBox="0 0 1024 1024" version="1.1" xmlns="http://www.w3.org/2000/svg"><path d="M938.666667 266.666667a42.666667 42.666667 0 0 1-42.666667 42.666666H128a42.666667 42.666667 0 1 1 0-85.333333h151.850667a42.624 42.624 0 0 0 40.490666-29.184l13.482667-40.448A85.290667 85.290667 0 0 1 414.762667 96h194.517333c36.778667 0 69.333333 23.466667 80.938667 58.325333l13.482666 40.533334a42.666667 42.666667 0 0 0 40.490667 29.141333H896a42.666667 42.666667 0 0 1 42.666667 42.666667z m-115.2 129.28l-26.026667 392.533333a150.314667 150.314667 0 0 1-149.333333 139.52H375.893333c-78.08 0-143.786667-61.013333-149.333333-139.093333L200.533333 395.946667c-0.426667-5.546667 1.706667-11.52 5.546667-15.786667 4.266667-4.266667 9.813333-6.826667 15.786667-6.826667h580.266666c5.973333 0 11.52 2.56 15.786667 6.826667 3.84 4.266667 5.973333 10.24 5.546667 15.786667zM469.333333 522.666667c0-23.466667-19.2-42.666667-42.666666-42.666667s-42.666667 19.2-42.666667 42.666667v213.333333c0 23.466667 19.2 42.666667 42.666667 42.666667s42.666667-19.2 42.666666-42.666667v-213.333333z m170.666667 0c0-23.466667-19.2-42.666667-42.666667-42.666667s-42.666667 19.2-42.666666 42.666667v213.333333c0 23.466667 19.2 42.666667 42.666666 42.666667s42.666667-19.2 42.666667-42.666667v-213.333333z" fill="#FF3D3F" /><path d="M802.133333 373.333333c5.973333 0 11.52 2.56 15.786667 6.826667 3.84 4.266667 5.973333 10.24 5.546667 15.786667l-1.578667 24.064L640 601.856V522.666667c0-23.466667-19.2-42.666667-42.666667-42.666667s-42.666667 19.2-42.666666 42.666667v164.565333l-231.168 231.253333A150.357333 150.357333 0 0 1 226.56 788.906667l-4.693333-70.613334 162.133333-162.133333v179.84c0 23.466667 19.2 42.666667 42.666667 42.666667s42.666667-19.2 42.666666-42.666667v-213.333333a42.666667 42.666667 0 0 0-17.408-34.304l114.986667-115.072 235.221333 0.042666z m-57.941333-149.333333H896a42.666667 42.666667 0 1 1 0 85.333333h-265.088l91.349333-91.392a42.666667 42.666667 0 0 0 21.930667 6.058667z" fill="#FF5052" /><path d="M566.869333 373.333333l-114.944 114.986667A42.368 42.368 0 0 0 426.666667 480c-23.466667 0-42.666667 19.2-42.666667 42.666667v33.536l-162.133333 162.133333-18.730667-283.008L265.173333 373.333333h301.696z m42.410667-277.333333c36.778667 0 69.333333 23.466667 80.938667 58.325333l13.482666 40.533334a42.581333 42.581333 0 0 0 18.602667 23.125333l-91.434667 91.306667h-301.653333l213.333333-213.333334 66.730667 0.042667z" fill="#FF6365" /><path d="M265.173333 373.333333l-62.037333 62.037334L200.533333 395.946667c-0.426667-5.546667 1.706667-11.52 5.546667-15.786667 4.266667-4.266667 9.813333-6.826667 15.786667-6.826667h43.306666z m277.333334-277.333333l-213.333334 213.333333H128a42.666667 42.666667 0 1 1 0-85.333333h151.850667a42.624 42.624 0 0 0 40.490666-29.184l13.482667-40.448A85.290667 85.290667 0 0 1 414.762667 96h127.744z" fill="#FF8A8B" /></svg>