<?xml version="1.0" standalone="no"?><!DOCTYPE svg PUBLIC "-//W3C//DTD SVG 1.1//EN" "http://www.w3.org/Graphics/SVG/1.1/DTD/svg11.dtd"><svg class="icon" width="200px" height="200.00px" viewBox="0 0 1024 1024" version="1.1" xmlns="http://www.w3.org/2000/svg"><path d="M736 896H544a223.68 223.68 0 0 1-172.46-81 32.07 32.07 0 0 1 8.48-48.3 32.11 32.11 0 0 1 40.79 7.43A160.67 160.67 0 0 0 544 832h192a160 160 0 0 0 160-160V544a160 160 0 0 0-160-160H544a160 160 0 0 0-160 160 32 32 0 0 1-32 32 32 32 0 0 1-32-32 224 224 0 0 1 224-224h192a224 224 0 0 1 224 224v128a224 224 0 0 1-224 224z" fill="#333333" /><path d="M288 128h192a223.68 223.68 0 0 1 172.46 81.05 32.07 32.07 0 0 1-8.48 48.3 32.11 32.11 0 0 1-40.79-7.43A160.67 160.67 0 0 0 480 192H288a160 160 0 0 0-160 160v128a160 160 0 0 0 160 160h192a160 160 0 0 0 160-160 32 32 0 0 1 32-32 32 32 0 0 1 32 32 224 224 0 0 1-224 224H288A224 224 0 0 1 64 480V352a224 224 0 0 1 224-224z" fill="#333333" /><path d="M704 768h-16a16 16 0 0 1-16-16v-32a16 16 0 0 1 16-16h16a64 64 0 0 0 64-64 32 32 0 0 1 32-32 32 32 0 0 1 32 32 128 128 0 0 1-128 128z" fill="#EB4242" /></svg>