<?xml version="1.0" standalone="no"?><!DOCTYPE svg PUBLIC "-//W3C//DTD SVG 1.1//EN" "http://www.w3.org/Graphics/SVG/1.1/DTD/svg11.dtd"><svg class="icon" width="200px" height="200.00px" viewBox="0 0 1024 1024" version="1.1" xmlns="http://www.w3.org/2000/svg"><path d="M917.333333 469.333333v426.666667c0 8.533333-5.12 16.64-13.226666 19.626667-2.56 1.28-5.546667 1.706667-8.106667 1.706666-5.546667 0-11.093333-2.133333-15.36-6.4l-77.226667-78.933333H426.666667c-82.346667 0-149.333333-66.986667-149.333334-149.333333H597.333333c117.76 0 213.333333-95.573333 213.333334-213.333334V326.4c61.44 18.346667 106.666667 75.52 106.666666 142.933333z m-170.666666 0V256c0-82.346667-66.986667-149.333333-149.333334-149.333333H256C173.653333 106.666667 106.666667 173.653333 106.666667 256v426.666667c0 8.533333 5.12 16.64 13.226666 19.626666 2.56 1.28 5.546667 1.706667 8.106667 1.706667 5.546667 0 11.093333-2.133333 15.36-6.4l77.226667-78.933333H597.333333c82.346667 0 149.333333-66.986667 149.333334-149.333334z" fill="#73D13D" /><path d="M516.565333 682.666667l-140.458666 140.544A149.589333 149.589333 0 0 1 277.333333 682.666667h239.232z m206.08-507.818667A148.48 148.48 0 0 1 746.666667 256v196.565333L580.565333 618.666667H278.869333zM810.666667 326.4c15.146667 4.522667 29.269333 11.392 41.984 20.181333L810.666667 388.565333V326.4z" fill="#81D550" /><path d="M597.333333 106.666667a149.333333 149.333333 0 0 1 125.312 68.224l-443.733333 443.733333-58.325333 0.042667-77.226667 78.933333c-4.266667 4.266667-9.813333 6.4-15.36 6.4-2.56 0-5.546667-0.426667-8.106667-1.706667A20.864 20.864 0 0 1 106.666667 682.666667v-193.493334L489.130667 106.666667z" fill="#8FDA63" /><path d="M489.173333 106.666667L106.666667 489.173333V256a149.504 149.504 0 0 1 141.141333-149.12L256 106.666667h233.173333z" fill="#ABE38A" /></svg>