<?xml version="1.0" standalone="no"?><!DOCTYPE svg PUBLIC "-//W3C//DTD SVG 1.1//EN" "http://www.w3.org/Graphics/SVG/1.1/DTD/svg11.dtd"><svg t="1690181104504" class="icon" viewBox="0 0 1024 1024" version="1.1" xmlns="http://www.w3.org/2000/svg" p-id="972" xmlns:xlink="http://www.w3.org/1999/xlink" width="200" height="200"><path d="M656.47104 793.46176L305.7664 442.752l252.01152-252.01152a247.9616 247.9616 0 0 1 350.52544 0.14336 247.9616 247.9616 0 0 1 0.18432 350.5664l-252.01664 252.0064z" fill="#FFA4A4" p-id="973"></path><path d="M118.99904 190.69952a247.9616 247.9616 0 0 1 350.6688 0l394.624 394.624-306.03264 306.02752a63.1808 63.1808 0 0 1-89.34912 0l-349.952-349.94688a247.9616 247.9616 0 0 1 0.04096-350.70464z" fill="#F66462" p-id="974"></path><path d="M369.408 612.096a40.96 40.96 0 0 1-28.928-11.9296L196.096 456.3968A40.96 40.96 0 0 1 253.9008 398.336l144.384 143.8208a40.96 40.96 0 0 1-28.8768 69.9392z" fill="#FFFFFF" p-id="975"></path></svg>