<?xml version="1.0" standalone="no"?><!DOCTYPE svg PUBLIC "-//W3C//DTD SVG 1.1//EN" "http://www.w3.org/Graphics/SVG/1.1/DTD/svg11.dtd"><svg class="icon" width="200px" height="200.00px" viewBox="0 0 1024 1024" version="1.1" xmlns="http://www.w3.org/2000/svg"><path fill="#ffffff" d="M208 425.6c0-70.4 25.6-128 80-179.2 54.4-51.2 118.4-73.6 195.2-73.6 76.8 0 140.8 25.6 195.2 73.6 54.4 51.2 80 108.8 80 179.2v28.8c-3.2 3.2 0 6.4 0 6.4l-3.2 22.4c-3.2 0 0 3.2 0 3.2-3.2 9.6-6.4 16-9.6 22.4-3.2 9.6-6.4 19.2-12.8 25.6-3.2 9.6-9.6 16-16 25.6-6.4 6.4-12.8 16-19.2 22.4l-19.2 19.2h-3.2l-6.4 6.4c-3.2 0-3.2 0-3.2 3.2l-12.8 9.6-12.8 16h-3.2c-9.6 6.4-16 12.8-19.2 22.4-3.2 6.4-6.4 12.8-12.8 16-3.2 3.2-9.6 6.4-22.4 6.4h-201.6c-9.6 0-16-3.2-22.4-6.4-3.2-3.2-6.4-9.6-12.8-16-3.2-6.4-9.6-16-19.2-22.4h-3.2l-3.2-3.2-12.8-9.6-3.2-3.2-6.4-6.4-3.2-3.2-19.2-19.2c-12.8-16-25.6-32-35.2-48-3.2-6.4-6.4-16-12.8-25.6-3.2-6.4-6.4-16-9.6-22.4v-6.4c-3.2-9.6-6.4-19.2-6.4-25.6v-6.4c-3.2-12.8-3.2-22.4-3.2-32z m163.2 297.6h230.4c12.8 0 22.4 9.6 22.4 22.4s-9.6 22.4-22.4 22.4h-230.4c-12.8 0-22.4-9.6-22.4-22.4-3.2-12.8 6.4-22.4 22.4-22.4z m9.6 83.2h208l-83.2 38.4c-12.8 6.4-28.8 6.4-41.6 0l-83.2-38.4z m128-505.6c28.8 0 54.4 9.6 76.8 32 25.6 19.2 35.2 48 35.2 76.8 0 9.6 9.6 22.4 22.4 22.4 12.8 0 22.4-9.6 22.4-22.4 0-44.8-16-83.2-48-108.8s-70.4-41.6-112-41.6c-12.8 0-22.4 9.6-22.4 22.4 0 9.6 9.6 19.2 25.6 19.2z" /></svg>