<?xml version="1.0" standalone="no"?><!DOCTYPE svg PUBLIC "-//W3C//DTD SVG 1.1//EN" "http://www.w3.org/Graphics/SVG/1.1/DTD/svg11.dtd"><svg class="icon" width="200px" height="200.00px" viewBox="0 0 1024 1024" version="1.1" xmlns="http://www.w3.org/2000/svg"><path d="M826.0096 256.5632h-27.8528a113.408 113.408 0 0 0-15.4624-131.1232c-21.0432-23.1936-51.0464-36.864-82.3296-37.376-31.4368-0.4096-61.7984 12.032-83.6096 34.4576L511.8464 230.4 406.9888 122.4704c-21.8112-22.4768-52.224-34.8672-83.6096-34.4576-31.3344 0.5632-61.3376 14.1824-82.3296 37.376-33.4848 37.0176-38.4 89.6512-15.4624 131.1232h-30.9248c-64.512 0-116.992 52.48-116.992 116.992v94.1056c0 38.5536 31.3856 69.9392 69.9392 69.9392h10.4448v267.3152c0 72.0896 58.624 130.7136 130.7136 130.7136h447.0784c72.0896 0 130.7136-58.624 130.7136-130.7136V629.76c0-16.9472-13.7728-30.72-30.72-30.72s-30.72 13.7728-30.72 30.72v175.1552c0 38.1952-31.0784 69.2736-69.2736 69.2736H288.7168c-38.1952 0-69.2736-31.0784-69.2736-69.2736V537.6h653.6192c38.5536 0 69.9392-31.3856 69.9392-69.9392V373.5552c0-64.512-52.48-116.992-116.992-116.992z m-165.2736-91.2384a51.6608 51.6608 0 0 1 38.4512-15.872c14.6432 0.256 28.0576 6.3488 37.888 17.2032a52.17792 52.17792 0 0 1-2.2528 72.6016l-17.7152 17.3056h-145.0496l88.6784-91.2384zM288.768 239.2576a52.224 52.224 0 0 1-2.2528-72.6016 51.7632 51.7632 0 0 1 37.888-17.2032c14.6432-0.3072 28.2624 5.376 38.4512 15.872L451.584 256.5632H306.5344l-17.7664-17.3056z m592.7936 228.4032c0 4.7104-3.84 8.4992-8.4992 8.4992H147.5584c-4.7104 0-8.4992-3.7888-8.4992-8.4992V373.5552c0-30.6176 24.9344-55.552 55.552-55.552h631.3984c30.6176 0 55.552 24.9344 55.552 55.552v94.1056z" fill="#363F5B" /><path d="M520.0896 468.224c-16.9472 0-30.72-13.7728-30.72-30.72V357.376c0-16.9472 13.7728-30.72 30.72-30.72s30.72 13.7728 30.72 30.72v80.128c0 16.9472-13.7216 30.72-30.72 30.72z" fill="#B11EFF" /></svg>