<?xml version="1.0" standalone="no"?><!DOCTYPE svg PUBLIC "-//W3C//DTD SVG 1.1//EN" "http://www.w3.org/Graphics/SVG/1.1/DTD/svg11.dtd"><svg class="icon" width="200px" height="200.00px" viewBox="0 0 1024 1024" version="1.1" xmlns="http://www.w3.org/2000/svg"><path d="M273.39 544H752c114.73 0 208.06-93.37 208-208.1-0.06-114.35-95.45-207.9-209.8-207.9H320a64 64 0 0 0-64-64 64 64 0 0 0-64 64h-64a32 32 0 0 0-32 32 32 32 0 0 0 32 32h64a64 64 0 0 0 64 64 64 64 0 0 0 64-64h432c79.54 0 144.22 64.82 144 144.41S830.2 480 750.61 480H272c-114.73 0-208.06 93.37-208 208.1 0.06 114.35 95.45 207.9 209.8 207.9h622.87a32 32 0 0 0 32-32 32 32 0 0 0-32-32H272c-79.54 0-144.22-64.82-144-144.41S193.8 544 273.39 544z" fill="#333333" /><path d="M768 768a64 64 0 0 1 64 64v96a32 32 0 0 1-32 32h-64a32 32 0 0 1-32-32v-96a64 64 0 0 1 64-64z" fill="#EB4242" /></svg>