<?xml version="1.0" standalone="no"?><!DOCTYPE svg PUBLIC "-//W3C//DTD SVG 1.1//EN" "http://www.w3.org/Graphics/SVG/1.1/DTD/svg11.dtd"><svg class="icon" width="200px" height="200.00px" viewBox="0 0 1024 1024" version="1.1" xmlns="http://www.w3.org/2000/svg"><path d="M597.333333 554.666667c0 46.933333-38.4 85.333333-85.333333 85.333333s-85.333333-38.4-85.333333-85.333333 38.4-85.333333 85.333333-85.333334 85.333333 38.4 85.333333 85.333334z m320-85.333334v213.333334c0 105.813333-86.186667 192-192 192H298.666667c-105.813333 0-192-86.186667-192-192v-213.333334c0-101.973333 79.786667-185.6 180.48-191.573333l53.76-81.066667c20.053333-29.44 52.906667-47.36 88.746666-47.36h164.693334c35.84 0 68.693333 17.92 88.746666 47.36l53.76 81.066667c100.693333 5.973333 180.48 89.6 180.48 191.573333zM682.666667 554.666667c0-94.293333-76.373333-170.666667-170.666667-170.666667s-170.666667 76.373333-170.666667 170.666667 76.373333 170.666667 170.666667 170.666666 170.666667-76.373333 170.666667-170.666666z m128-128c0-23.466667-19.2-42.666667-42.666667-42.666667s-42.666667 19.2-42.666667 42.666667 19.2 42.666667 42.666667 42.666666 42.666667-19.2 42.666667-42.666666z" fill="#FF3D3F" /><path d="M916.650667 453.248L495.232 874.666667 298.666667 874.666667a190.72 190.72 0 0 1-85.162667-19.968l178.56-178.56a170.624 170.624 0 0 0 241.365333-241.365334l148.736-148.778666a192.213333 192.213333 0 0 1 134.485334 167.253333zM597.333333 554.666667c0 46.933333-38.4 85.333333-85.333333 85.333333-23.04 0-44.074667-9.258667-59.477333-24.32l120.533333-120.490667c15.018667 15.36 24.277333 36.394667 24.277333 59.477334z m170.666667-170.666667c-23.466667 0-42.666667 19.2-42.666667 42.666667s19.2 42.666667 42.666667 42.666666 42.666667-19.2 42.666667-42.666666-19.2-42.666667-42.666667-42.666667z" fill="#FF5052" /><path d="M683.093333 196.693333l53.76 81.066667c15.701333 0.938667 30.890667 3.754667 45.312 8.234667l-148.693333 148.778666a170.624 170.624 0 1 0-241.365333 241.365334l-178.602667 178.56A192.298667 192.298667 0 0 1 106.666667 682.666667v-22.826667L615.082667 151.381333A107.733333 107.733333 0 0 1 683.093333 196.693333zM512 469.333333c23.893333 0 45.525333 9.941333 61.013333 25.856l-120.490666 120.533334A85.077333 85.077333 0 0 1 426.666667 554.666667c0-46.933333 38.4-85.333333 85.333333-85.333334z" fill="#FF6365" /><path d="M594.346667 149.333333c7.04 0 13.994667 0.682667 20.736 2.048L106.666667 659.84V469.333333c0-101.973333 79.786667-185.6 180.48-191.573333l53.76-81.066667c20.053333-29.44 52.906667-47.36 88.746666-47.36h164.693334z" fill="#FF8A8B" /></svg>