<?xml version="1.0" standalone="no"?><!DOCTYPE svg PUBLIC "-//W3C//DTD SVG 1.1//EN" "http://www.w3.org/Graphics/SVG/1.1/DTD/svg11.dtd"><svg class="icon" width="200px" height="200.00px" viewBox="0 0 1024 1024" version="1.1" xmlns="http://www.w3.org/2000/svg"><path fill="#ffffff" d="M606.4 346.4m-194 0a194 194 0 1 0 388 0 194 194 0 1 0-388 0ZM768.8 518.7c-42.4 40-99.6 64.6-162.3 64.6s-119.9-24.6-162.3-64.6c-113.8 59-191.9 177.8-191.9 314.6 0 16.9 13.7 30.6 30.6 30.6H930c16.9 0 30.6-13.7 30.6-30.6 0-136.7-78-255.6-191.8-314.6zM358.7 346.4c0-60.6 21.9-116.1 58.1-159.2-13.9-3.7-28.5-5.9-43.5-5.9-93 0-168.7 75.7-168.7 168.7s75.7 168.7 168.7 168.7c16.9 0 33.2-2.6 48.6-7.2-39.3-44-63.2-101.8-63.2-165.1zM330.8 551.4c-37.7-7.9-71.6-26.2-98.6-51.7-99 51.3-166.8 154.6-166.8 273.6 0 14.7 11.9 26.6 26.6 26.6h107c13.5-98.1 61.7-185.1 131.8-248.5z" /></svg>