<?xml version="1.0" standalone="no"?><!DOCTYPE svg PUBLIC "-//W3C//DTD SVG 1.1//EN" "http://www.w3.org/Graphics/SVG/1.1/DTD/svg11.dtd"><svg class="icon" width="200px" height="200.00px" viewBox="0 0 1024 1024" version="1.1" xmlns="http://www.w3.org/2000/svg"><path d="M894.39 193.61A222.53 222.53 0 0 0 736 128H288A224 224 0 0 0 64 352v320a224 224 0 0 0 224 224h448a224 224 0 0 0 224-224V352a222.53 222.53 0 0 0-65.61-158.39zM768 640c-70.83 0-128.41-57.83-128-128.75 0.41-70.63 58.78-127.25 129.41-127.25H880a16 16 0 0 1 16 16v224a16 16 0 0 1-16 16z m-32 192H288a160 160 0 0 1-160-160V352a160 160 0 0 1 160-160h448c69.5 0 128.78 44.54 150.82 106.57A16 16 0 0 1 871.77 320H769.66C664.11 320 576.05 406.35 576 511.9 576 617.82 662.1 704 768 704h103.77a16 16 0 0 1 15.05 21.43C864.78 787.46 805.5 832 736 832z" fill="#333333" /><path d="M224 320h144a16 16 0 0 1 16 16v32a16 16 0 0 1-16 16H224a32 32 0 0 1-32-32 32 32 0 0 1 32-32z" fill="#EB4242" /><path d="M736 512m-32 0a32 32 0 1 0 64 0 32 32 0 1 0-64 0Z" fill="#333333" /></svg>