<?xml version="1.0" standalone="no"?><!DOCTYPE svg PUBLIC "-//W3C//DTD SVG 1.1//EN" "http://www.w3.org/Graphics/SVG/1.1/DTD/svg11.dtd"><svg class="icon" width="200px" height="200.00px" viewBox="0 0 1024 1024" version="1.1" xmlns="http://www.w3.org/2000/svg"><path d="M917.333333 349.44c0-107.946667-85.333333-196.266667-192-202.24v-8.533333c0-23.466667-19.2-42.666667-42.666666-42.666667s-42.666667 19.2-42.666667 42.666667v7.253333H384v-7.253333c0-23.466667-19.2-42.666667-42.666667-42.666667s-42.666667 19.2-42.666666 42.666667v8.533333c-106.666667 5.973333-192 94.293333-192 202.24v80.64c0 1.28 0.426667 2.56 0.853333 3.84-0.426667 0.853333-0.853333 2.133333-0.853333 3.413333v298.666667c0 105.813333 86.186667 192 192 192h426.666666c105.813333 0 192-86.186667 192-192v-298.666667c0-1.28-0.426667-2.56-0.853333-3.413333 0.426667-1.28 0.853333-2.56 0.853333-3.84V349.44zM341.333333 778.666667c-23.466667 0-42.666667-19.2-42.666666-42.666667s19.2-42.666667 42.666666-42.666667 42.666667 19.2 42.666667 42.666667-19.2 42.666667-42.666667 42.666667z m0-170.666667c-23.466667 0-42.666667-19.2-42.666666-42.666667s19.2-42.666667 42.666666-42.666666 42.666667 19.2 42.666667 42.666666-19.2 42.666667-42.666667 42.666667z m170.666667 170.666667c-23.466667 0-42.666667-19.2-42.666667-42.666667s19.2-42.666667 42.666667-42.666667 42.666667 19.2 42.666667 42.666667-19.2 42.666667-42.666667 42.666667z m0-170.666667c-23.466667 0-42.666667-19.2-42.666667-42.666667s19.2-42.666667 42.666667-42.666666 42.666667 19.2 42.666667 42.666666-19.2 42.666667-42.666667 42.666667z m170.666667 170.666667c-23.466667 0-42.666667-19.2-42.666667-42.666667s19.2-42.666667 42.666667-42.666667 42.666667 19.2 42.666666 42.666667-19.2 42.666667-42.666666 42.666667z m0-170.666667c-23.466667 0-42.666667-19.2-42.666667-42.666667s19.2-42.666667 42.666667-42.666666 42.666667 19.2 42.666666 42.666666-19.2 42.666667-42.666666 42.666667z m149.333333-192h-640V349.44c0-61.866667 47.786667-112.213333 108.373333-117.333333 3.84 19.626667 20.48 34.56 40.96 34.56 20.906667 0 37.546667-15.36 41.386667-35.413334h258.56c3.84 20.053333 20.48 35.413333 41.386667 35.413334 20.48 0 37.12-14.933333 40.96-34.56 60.586667 5.12 108.373333 55.893333 108.373333 117.333333v66.56z" fill="#9254DE" /><path d="M825.898667 416l-116.266667 116.309333A42.453333 42.453333 0 0 0 682.666667 522.666667c-23.466667 0-42.666667 19.2-42.666667 42.666666 0 10.197333 3.626667 19.541333 9.642667 26.88l-110.677334 110.762667A42.453333 42.453333 0 0 0 512 693.333333c-23.466667 0-42.666667 19.2-42.666667 42.666667 0 10.197333 3.626667 19.541333 9.642667 26.88l-165.12 165.12H298.666667a192.341333 192.341333 0 0 1-174.506667-111.957333l208.938667-208.853334a42.794667 42.794667 0 0 0 50.090666-50.090666l141.013334-141.141334h301.696zM341.333333 693.333333c-23.466667 0-42.666667 19.2-42.666666 42.666667s19.2 42.666667 42.666666 42.666667 42.666667-19.2 42.666667-42.666667-19.2-42.666667-42.666667-42.666667z m170.666667-170.666666c-23.466667 0-42.666667 19.2-42.666667 42.666666s19.2 42.666667 42.666667 42.666667 42.666667-19.2 42.666667-42.666667-19.2-42.666667-42.666667-42.666666z m269.653333-364.202667a203.434667 203.434667 0 0 1 134.314667 167.509333L832 409.898667 832 349.44a118.272 118.272 0 0 0-101.162667-116.48l-7.210666-0.853333a42.026667 42.026667 0 0 1-49.194667 33.706666z" fill="#9D65E1" /><path d="M524.16 416l-140.970667 141.056A42.837333 42.837333 0 0 0 341.333333 522.666667c-23.466667 0-42.666667 19.2-42.666666 42.666666 0 20.650667 14.848 37.973333 34.389333 41.856L124.16 816a190.72 190.72 0 0 1-17.493333-80v-204.16L222.421333 416h301.696zM682.666667 96c23.466667 0 42.666667 19.2 42.666666 42.666667v8.533333c19.626667 1.109333 38.570667 4.992 56.32 11.264l-107.264 107.392a42.965333 42.965333 0 0 1-33.109333-34.602667l-233.984-0.042666 85.333333-85.333334H640V138.666667c0-23.466667 19.2-42.666667 42.666667-42.666667z" fill="#A776E4" /><path d="M341.333333 96c23.466667 0 42.666667 19.2 42.666667 42.666667v7.253333l108.629333-0.042667-85.333333 85.333334H382.72c-3.541333 18.432-17.792 32.853333-36.266667 35.157333L341.333333 266.666667c-20.48 0-37.12-14.933333-40.96-34.56-60.586667 5.12-108.373333 55.466667-108.373333 117.333333v66.56h30.506667L106.666667 531.84V437.333333c0-0.64 0.085333-1.28 0.256-1.877333l0.597333-1.536c-0.426667-1.28-0.853333-2.56-0.853333-3.84V349.44c0-107.946667 85.333333-196.266667 192-202.24v-8.533333c0-23.466667 19.2-42.666667 42.666666-42.666667z" fill="#BD98EB" /></svg>