<?xml version="1.0" standalone="no"?><!DOCTYPE svg PUBLIC "-//W3C//DTD SVG 1.1//EN" "http://www.w3.org/Graphics/SVG/1.1/DTD/svg11.dtd"><svg class="icon" width="200px" height="200.00px" viewBox="0 0 1024 1024" version="1.1" xmlns="http://www.w3.org/2000/svg"><path d="M896 608v64a160 160 0 0 1-160 160H288a160 160 0 0 1-160-160v-64a32 32 0 0 0-32-32 32 32 0 0 0-32 32v64a224 224 0 0 0 224 224h448a224 224 0 0 0 224-224v-64a32 32 0 0 0-32-32 32 32 0 0 0-32 32zM128 416v-64a160 160 0 0 1 160-160h448a160 160 0 0 1 160 160v64a32 32 0 0 0 32 32 32 32 0 0 0 32-32v-64a224 224 0 0 0-224-224H288A224 224 0 0 0 64 352v64a32 32 0 0 0 32 32 32 32 0 0 0 32-32z" fill="#333333" /><path d="M320 384m32 0l0 0q32 0 32 32l0 192q0 32-32 32l0 0q-32 0-32-32l0-192q0-32 32-32Z" fill="#333333" /><path d="M512 384a32 32 0 0 1 32 32v208a16 16 0 0 1-16 16h-32a16 16 0 0 1-16-16V416a32 32 0 0 1 32-32z" fill="#EB4242" /><path d="M640 384m32 0l0 0q32 0 32 32l0 192q0 32-32 32l0 0q-32 0-32-32l0-192q0-32 32-32Z" fill="#333333" /></svg>