<?xml version="1.0" standalone="no"?><!DOCTYPE svg PUBLIC "-//W3C//DTD SVG 1.1//EN" "http://www.w3.org/Graphics/SVG/1.1/DTD/svg11.dtd"><svg class="icon" width="200px" height="200.00px" viewBox="0 0 1024 1024" version="1.1" xmlns="http://www.w3.org/2000/svg"><path d="M840.96 341.333333l-203.52 203.52c-11.946667 11.946667-18.773333 28.16-18.773333 45.226667V768c0 6.826667-2.986667 13.226667-8.533334 17.066667l-170.666666 128c-3.84 2.986667-8.106667 4.266667-12.8 4.266666-3.413333 0-6.4-0.853333-9.386667-2.133333A21.845333 21.845333 0 0 1 405.333333 896v-305.92c0-17.066667-6.826667-33.28-18.773333-45.226667L183.04 341.333333h657.92zM789.333333 106.666667h-554.666666c-46.933333 0-85.333333 38.4-85.333334 85.333333V256h725.333334V192c0-46.933333-38.4-85.333333-85.333334-85.333333z" fill="#73D13D" /><path d="M840.96 341.333333l-203.52 203.52a64 64 0 0 0-17.92 34.816L405.333333 793.898667V590.08c0-17.066667-6.826667-33.28-18.773333-45.226667l-16.938667-16.981333L556.245333 341.333333 840.96 341.333333z m-50.133333-234.666666a85.589333 85.589333 0 0 1 83.84 85.333333V256h-233.088z" fill="#81D550" /><path d="M556.202667 341.333333l-186.581334 186.538667-150.869333-150.826667L254.506667 341.333333h301.696zM789.333333 106.666667h1.536l-149.333333 149.333333h-301.653333l149.333333-149.333333z" fill="#8FDA63" /><path d="M254.506667 341.333333l-35.712 35.754667L183.04 341.333333h71.466667z m234.666666-234.666666L339.84 256H149.333333V192c0-46.933333 38.4-85.333333 85.333334-85.333333h254.506666z" fill="#ABE38A" /></svg>