<?xml version="1.0" standalone="no"?><!DOCTYPE svg PUBLIC "-//W3C//DTD SVG 1.1//EN" "http://www.w3.org/Graphics/SVG/1.1/DTD/svg11.dtd"><svg class="icon" width="200px" height="200.00px" viewBox="0 0 1024 1024" version="1.1" xmlns="http://www.w3.org/2000/svg"><path d="M894.87 395.63a239.35 239.35 0 0 0-103.24-64.75 63.58 63.58 0 0 1-40.39-38.06 256.05 256.05 0 0 0-478.48 0 63.58 63.58 0 0 1-40.39 38.06 240 240 0 0 0-96.9 400C180.76 775.56 242.22 800 305.84 800H352a32 32 0 0 0 32-32 32 32 0 0 0-32-32h-46.29C208.8 736 127.89 656.72 128 559.81c0.1-92.36 72.24-169.39 164.31-175.41a32 32 0 0 0 29.6-27.47C335.16 262.9 416.88 192 512 192s176.84 70.9 190.09 164.93a32 32 0 0 0 29.6 27.47c92.07 6 164.21 83.05 164.31 175.41 0.11 96.91-80.8 176.19-177.71 176.19H672a32 32 0 0 0-32 32 32 32 0 0 0 32 32h46.16c63.62 0 125.08-24.44 170.37-69.13a240 240 0 0 0 6.34-335.24z" fill="#333333" /><path d="M512 896a32 32 0 0 1-32-32V496a32 32 0 0 1 64 0v368a32 32 0 0 1-32 32z" fill="#333333" /><path d="M656.24 624.47l-134.83-98.06a16 16 0 0 0-18.82 0L380.7 615.06A32 32 0 0 1 336 608a32 32 0 0 1 7.06-44.7l150.12-109.18a32 32 0 0 1 37.64 0l163.06 118.59a16 16 0 0 1 3.53 22.35l-18.82 25.88a16 16 0 0 1-22.35 3.53z" fill="#EB4242" /></svg>