<?xml version="1.0" standalone="no"?><!DOCTYPE svg PUBLIC "-//W3C//DTD SVG 1.1//EN" "http://www.w3.org/Graphics/SVG/1.1/DTD/svg11.dtd"><svg class="icon" width="200px" height="200.00px" viewBox="0 0 1024 1024" version="1.1" xmlns="http://www.w3.org/2000/svg"><path d="M874.666667 768c0 82.346667-66.986667 149.333333-149.333334 149.333333h-105.386666V810.666667a106.666667 106.666667 0 0 0-213.333334 0v106.666666H298.666667c-82.346667 0-149.333333-66.986667-149.333334-149.333333v-198.4c34.133333 17.493333 72.106667 27.733333 106.24 27.733333 48.213333 0 95.146667-20.053333 128.426667-52.053333 32.853333 32 79.786667 52.053333 128 52.053333s95.146667-20.053333 128-52.053333c33.28 32 80.213333 52.053333 128.426667 52.053333 34.133333 0 72.106667-10.24 106.24-27.733333V768z m41.557333-390.741333l-46.421333-139.306667A191.701333 191.701333 0 0 0 687.658667 106.666667H336.341333a191.744 191.744 0 0 0-182.144 131.285333L107.776 377.258667a21.504 21.504 0 0 0-1.109333 6.784A149.418667 149.418667 0 0 0 255.573333 533.333333c50.688 0 99.328-24.789333 128.298667-62.549333 28.714667 37.76 77.312 62.549333 128.128 62.549333s99.413333-24.789333 128.128-62.549333c28.970667 37.76 77.653333 62.549333 128.298667 62.549333a149.418667 149.418667 0 0 0 148.906666-149.290666 21.504 21.504 0 0 0-1.109333-6.784z" fill="#FFC130" /><path d="M640 545.28c9.642667 9.258667 20.437333 17.493333 32.042667 24.576l-136.490667 136.490667A106.666667 106.666667 0 0 0 406.613333 810.666667v24.618666L324.608 917.333333 298.666667 917.333333a149.546667 149.546667 0 0 1-147.797334-128l238.848-238.848 1.536 1.450667A186.538667 186.538667 0 0 0 512 597.333333c48.213333 0 95.146667-20.053333 128-52.053333z m158.421333-403.541333a191.573333 191.573333 0 0 1 71.381334 96.213333l33.536 100.608-186.197334 186.282667a163.882667 163.882667 0 0 1-71.338666-47.146667l-5.674667-6.912C611.413333 508.544 562.816 533.333333 512 533.333333c-29.397333 0-58.026667-8.277333-82.474667-22.613333z" fill="#FFC745" /><path d="M384 545.28l5.674667 5.205333L150.869333 789.333333A149.973333 149.973333 0 0 1 149.333333 768v-198.4c34.133333 17.493333 72.106667 27.733333 106.24 27.733333 48.213333 0 95.146667-20.053333 128.426667-52.053333zM687.658667 106.666667c40.704 0 79.146667 12.8 110.762666 35.072l-368.938666 368.981333a156.16 156.16 0 0 1-45.610667-39.936c-28.970667 37.76-77.610667 62.549333-128.298667 62.549333-41.386667 0-78.890667-17.066667-105.898666-44.501333l382.165333-382.208z" fill="#FFCD59" /><path d="M531.84 106.666667l-382.122667 382.208A149.333333 149.333333 0 0 1 106.666667 384c0-2.346667 0.384-4.565333 1.109333-6.784l46.421333-139.306667A191.744 191.744 0 0 1 336.341333 106.666667h195.498667z" fill="#FFD982" /></svg>