<?xml version="1.0" standalone="no"?><!DOCTYPE svg PUBLIC "-//W3C//DTD SVG 1.1//EN" "http://www.w3.org/Graphics/SVG/1.1/DTD/svg11.dtd"><svg class="icon" width="200px" height="200.00px" viewBox="0 0 1024 1024" version="1.1" xmlns="http://www.w3.org/2000/svg"><path d="M928 192H720a16 16 0 0 1-16-16v-48a64 64 0 0 0-64-64H384a64 64 0 0 0-64 64v48a16 16 0 0 1-16 16H96a32 32 0 0 0-32 32 32 32 0 0 0 32 32h16a16 16 0 0 1 16 16v464a224 224 0 0 0 224 224h320a224 224 0 0 0 224-224V272a16 16 0 0 1 16-16h16a32 32 0 0 0 32-32 32 32 0 0 0-32-32z m-528-64h224a16 16 0 0 1 16 16v32a16 16 0 0 1-16 16H400a16 16 0 0 1-16-16v-32a16 16 0 0 1 16-16z m432 608a160 160 0 0 1-160 160H352a160 160 0 0 1-160-160V272a16 16 0 0 1 16-16h608a16 16 0 0 1 16 16z" fill="#333333" /><path d="M320 448m32 0l0 0q32 0 32 32l0 256q0 32-32 32l0 0q-32 0-32-32l0-256q0-32 32-32Z" fill="#333333" /><path d="M480 448m32 0l0 0q32 0 32 32l0 256q0 32-32 32l0 0q-32 0-32-32l0-256q0-32 32-32Z" fill="#333333" /><path d="M672 448a32 32 0 0 1 32 32v272a16 16 0 0 1-16 16h-32a16 16 0 0 1-16-16V480a32 32 0 0 1 32-32z" fill="#EB4242" /></svg>