<?xml version="1.0" standalone="no"?><!DOCTYPE svg PUBLIC "-//W3C//DTD SVG 1.1//EN" "http://www.w3.org/Graphics/SVG/1.1/DTD/svg11.dtd"><svg class="icon" width="200px" height="200.00px" viewBox="0 0 1024 1024" version="1.1" xmlns="http://www.w3.org/2000/svg"><path d="M512 640c-105.87 0-192-86.13-192-192s86.13-192 192-192 192 86.13 192 192-86.13 192-192 192z m0-320a128 128 0 1 0 128 128 128.14 128.14 0 0 0-128-128z" fill="#EB4242" /><path d="M776 726.84l2.13-2.05q2.72-2.6 5.39-5.26A382.91 382.91 0 0 0 896 448c0-2.88 0-5.75-0.1-8.62v-0.4a383.73 383.73 0 0 0-343-372.83h-0.38q-6.45-0.67-13-1.14l-0.92-0.06c-1.87-0.13-3.74-0.24-5.62-0.34h-0.88q-3.12-0.17-6.24-0.27h-1c-1.72-0.06-3.44-0.1-5.16-0.14h-7.74a383.89 383.89 0 0 0-271.49 655.33q2.67 2.67 5.39 5.26l2.13 2.05L132.86 911a32 32 0 0 0 2.14 37 32.63 32.63 0 0 0 25.58 12h702.8A32.63 32.63 0 0 0 889 948a32 32 0 0 0 2.18-37zM519.43 128.09h1.7q7.74 0.21 15.38 0.79h0.17c156.27 12 281.46 136.69 294.23 292.73 0.08 0.95 0.16 1.89 0.22 2.83 0.12 1.63 0.22 3.25 0.31 4.88 0.06 1 0.13 2 0.17 3 0.09 1.71 0.14 3.43 0.2 5.15 0 0.89 0.07 1.77 0.09 2.66 0.06 2.6 0.1 5.2 0.1 7.81a321.91 321.91 0 0 1-2.89 42.94q-0.69 5.15-1.56 10.25-0.75 4.51-1.63 9-1.06 5.38-2.29 10.7-2.18 9.28-4.89 18.35c-1.14 3.8-2.31 7.58-3.58 11.31a318.59 318.59 0 0 1-18.09 42.78 2.1 2.1 0 0 0-0.13 0.26c-0.51 1-1 2-1.55 2.93-0.87 1.64-1.73 3.28-2.62 4.91q-5.31 9.68-11.25 18.94c-0.38 0.59-0.77 1.16-1.15 1.74-1.4 2.15-2.82 4.27-4.26 6.38a322.73 322.73 0 0 1-30.89 38.39c-1 1-1.89 2-2.85 3q-3.72 3.87-7.57 7.6c-1.28 1.24-2.57 2.48-3.87 3.7a323.14 323.14 0 0 1-37.48 30.27c-1.36 0.94-2.72 1.87-4.1 2.79a319.09 319.09 0 0 1-74.51 36.83l-0.32 0.11c-0.92 0.31-1.85 0.6-2.77 0.9-4 1.33-8.13 2.61-12.25 3.78-3.78 1.08-7.6 2.06-11.45 3s-7.73 1.84-11.64 2.65-7.67 1.47-11.53 2.12c-4 0.67-8.09 1.29-12.18 1.81-4.49 0.58-9 1-13.56 1.42l-2.55 0.23c-4 0.3-8.07 0.51-12.12 0.66s-8.29 0.27-12.47 0.27h-1c-175.24-0.55-317.76-142.67-319-317.76v-2.23c0-1.82 0-3.63 0.07-5.44v-2.81c0.05-1.69 0.13-3.38 0.2-5.07 0-1 0.06-2.09 0.12-3.13 0.09-1.73 0.21-3.46 0.33-5.2 0.06-1 0.11-2 0.19-2.94 0.1-1.43 0.25-2.85 0.38-4.28 0.11-1.27 0.21-2.54 0.34-3.81s0.26-2.26 0.38-3.39c0.18-1.54 0.34-3.09 0.54-4.63s0.38-2.78 0.58-4.17 0.34-2.54 0.53-3.8 0.45-2.71 0.68-4.07 0.41-2.56 0.64-3.83 0.46-2.41 0.69-3.61c0.27-1.41 0.53-2.83 0.81-4.23 0.2-1 0.43-1.93 0.64-2.9 0.34-1.62 0.69-3.26 1.06-4.87 0.26-1.14 0.55-2.27 0.83-3.4 0.35-1.43 0.68-2.87 1.05-4.3s0.74-2.73 1.11-4.1c0.32-1.18 0.63-2.36 1-3.53 0.38-1.35 0.8-2.68 1.2-4 0.35-1.18 0.69-2.36 1-3.52 0.55-1.75 1.12-3.48 1.7-5.21 0.24-0.76 0.48-1.52 0.73-2.27 0.46-1.34 0.94-2.67 1.42-4 0.4-1.12 0.78-2.26 1.19-3.38s0.85-2.22 1.27-3.33c0.5-1.33 1-2.66 1.51-4 0.46-1.15 0.94-2.29 1.41-3.44s1-2.53 1.55-3.78c0.43-1 0.88-2 1.33-3 0.59-1.37 1.18-2.74 1.79-4.1 0.39-0.85 0.79-1.69 1.19-2.53 0.69-1.51 1.38-3 2.11-4.51 0.26-0.55 0.54-1.09 0.81-1.64 0.87-1.77 1.74-3.55 2.64-5.31 0.56-1.1 1.15-2.18 1.73-3.27s1.25-2.39 1.89-3.58c1.13-2.07 2.28-4.12 3.45-6.17l0.33-0.58c1-1.77 2.07-3.53 3.13-5.29l0.8-1.36c0.82-1.33 1.66-2.65 2.49-4 0.54-0.85 1.06-1.72 1.6-2.56s1.13-1.7 1.68-2.55c0.85-1.3 1.7-2.61 2.57-3.89 0.39-0.59 0.81-1.16 1.21-1.75 1.05-1.53 2.1-3.07 3.18-4.58 0.95-1.34 1.93-2.66 2.91-4 0.54-0.74 1.07-1.49 1.63-2.23 1.29-1.73 2.6-3.43 3.93-5.13l0.75-1c1.28-1.63 2.58-3.23 3.88-4.83 0.32-0.38 0.63-0.78 0.94-1.16 0.89-1.07 1.79-2.12 2.69-3.18 0.76-0.9 1.51-1.8 2.28-2.69 0.47-0.55 1-1.09 1.44-1.63 1.22-1.38 2.43-2.76 3.66-4.12q4.45-4.89 9.11-9.59l1.49-1.53c1.46-1.46 2.94-2.89 4.42-4.32 0.36-0.34 0.72-0.7 1.08-1 0.83-0.79 1.68-1.56 2.52-2.34 2.9-2.71 5.84-5.39 8.85-8 1.05-0.91 2.13-1.8 3.19-2.7 0.89-0.76 1.78-1.52 2.68-2.27q5.12-4.22 10.42-8.22l1.67-1.28c1-0.79 2.11-1.54 3.16-2.31s2-1.5 3.06-2.23l1.56-1.09q5.52-3.89 11.21-7.55c1.47-0.94 3-1.85 4.43-2.77l2.11-1.32q5.1-3.09 10.33-6c3.28-1.83 6.58-3.62 9.93-5.34l0.84-0.42c2-1 4-2 6.1-3 1.36-0.65 2.73-1.27 4.09-1.91 1-0.46 2-0.93 2.95-1.38 2-0.92 4.08-1.81 6.14-2.69l1-0.43c1.19-0.51 2.39-1 3.58-1.47s2.42-1 3.64-1.49c3.83-1.51 7.7-2.93 11.6-4.3q6.62-2.33 13.37-4.36c4.09-1.23 8.2-2.41 12.36-3.48 1.12-0.29 2.25-0.55 3.37-0.82a313.57 313.57 0 0 1 19.94-4.26l2-0.34c4.58-0.79 9.19-1.5 13.83-2.09 0.25 0 0.5-0.06 0.75-0.09a337.457 337.457 0 0 1 21.73-1.96c6-0.34 12.1-0.53 18.22-0.53 2.56-0.01 5.08-0.01 7.51 0.08zM217.74 896l80.55-128.89q15.13 10.15 31.2 18.84l0.3 0.16c2.57 1.38 5.16 2.75 7.77 4.07 0.47 0.25 0.95 0.47 1.43 0.71q3.36 1.71 6.76 3.35c1.07 0.52 2.16 1 3.24 1.51 1.69 0.79 3.37 1.6 5.08 2.36q4.2 1.9 8.45 3.7a385.16 385.16 0 0 0 299 0q4.26-1.8 8.45-3.69c1.74-0.79 3.47-1.61 5.2-2.42 1-0.49 2.09-1 3.12-1.46 2.29-1.1 4.55-2.23 6.81-3.37l1.38-0.69c2.62-1.33 5.22-2.7 7.8-4.09l0.27-0.14q16.07-8.69 31.2-18.84L806.26 896z" fill="#333333" /></svg>