<?xml version="1.0" standalone="no"?><!DOCTYPE svg PUBLIC "-//W3C//DTD SVG 1.1//EN" "http://www.w3.org/Graphics/SVG/1.1/DTD/svg11.dtd"><svg class="icon" width="200px" height="200.00px" viewBox="0 0 1024 1024" version="1.1" xmlns="http://www.w3.org/2000/svg"><path d="M512 960A448.11 448.11 0 0 1 337.61 99.22a448.11 448.11 0 0 1 348.78 825.56A445.19 445.19 0 0 1 512 960z m0-832c-211.74 0-384 172.26-384 384s172.26 384 384 384 384-172.26 384-384-172.26-384-384-384z" fill="#333333" /><path d="M544 512h-64V256a32 32 0 0 1 32-32 32 32 0 0 1 32 32z" fill="#333333" /><path d="M628.69 673.94L489.37 534.63a32 32 0 0 1 0-45.26 32 32 0 0 1 45.26 0l139.31 139.32a16 16 0 0 1 0 22.62l-22.63 22.63a16 16 0 0 1-22.62 0z" fill="#EB4242" /></svg>