<?xml version="1.0" standalone="no"?><!DOCTYPE svg PUBLIC "-//W3C//DTD SVG 1.1//EN" "http://www.w3.org/Graphics/SVG/1.1/DTD/svg11.dtd"><svg class="icon" width="200px" height="200.00px" viewBox="0 0 1024 1024" version="1.1" xmlns="http://www.w3.org/2000/svg"><path d="M544 896H288A224 224 0 0 1 64 672V352a224 224 0 0 1 224-224h256c88.22 0 160 71.78 160 160v448c0 88.22-71.78 160-160 160zM288 192c-88.22 0-160 71.78-160 160v320c0 88.22 71.78 160 160 160h256a96.11 96.11 0 0 0 96-96V288a96.11 96.11 0 0 0-96-96zM911.64 889.36a47.31 47.31 0 0 1-44.48-30.9L774 614.82a287.64 287.64 0 0 1 0-205.64l93.12-243.64A48 48 0 0 1 960 182.68v658.64a47.42 47.42 0 0 1-39.29 47.21 50.26 50.26 0 0 1-9.07 0.83zM896 269.35L833.83 432a223.65 223.65 0 0 0 0 159.94L896 754.65z m31-81z" fill="#333333" /><path d="M288 640h144a16 16 0 0 1 16 16v32a16 16 0 0 1-16 16H288a32 32 0 0 1-32-32 32 32 0 0 1 32-32z" fill="#EB4242" /></svg>