<?xml version="1.0" standalone="no"?><!DOCTYPE svg PUBLIC "-//W3C//DTD SVG 1.1//EN" "http://www.w3.org/Graphics/SVG/1.1/DTD/svg11.dtd"><svg class="icon" width="200px" height="200.00px" viewBox="0 0 1024 1024" version="1.1" xmlns="http://www.w3.org/2000/svg"><path d="M511.5 959.5a448 448 0 0 1-397.23-240.67A32 32 0 1 1 171 689.17 383.2 383.2 0 0 0 511.5 895.5c182.1 0 335-127.41 374.24-297.76a16 16 0 0 0-22.81-17.87L750.4 636.58a32 32 0 0 1-28.8-57.16l191.5-96.5a32 32 0 0 1 35.54 4.55 32.78 32.78 0 0 1 10.86 24.79 447.66 447.66 0 0 1-448 447.24zM95.5 543.5a32 32 0 0 1-32-32 448.08 448.08 0 0 1 683.84-381 449.68 449.68 0 0 1 162 174.71 32 32 0 1 1-56.8 29.5C786.09 206.91 655.43 127.5 511.5 127.5c-211.74 0-384 172.26-384 384a32 32 0 0 1-32 32z" fill="#333333" /><path d="M67.38 526.31a32 32 0 0 1 14.31-42.93L288 380.22a16 16 0 0 1 21.47 7.16L323.78 416a16 16 0 0 1-7.16 21.47L110.31 540.62a32 32 0 0 1-42.93-14.31z" fill="#EB4242" /></svg>