<?xml version="1.0" standalone="no"?><!DOCTYPE svg PUBLIC "-//W3C//DTD SVG 1.1//EN" "http://www.w3.org/Graphics/SVG/1.1/DTD/svg11.dtd"><svg class="icon" width="200px" height="200.00px" viewBox="0 0 1024 1024" version="1.1" xmlns="http://www.w3.org/2000/svg"><path d="M864 960a32 32 0 0 1-18.82-6.12L568.46 752.63a95.74 95.74 0 0 0-112.92 0L178.82 953.88A32 32 0 0 1 128 928V289A224 224 0 0 1 352 65h320a224 224 0 0 1 224 224v639a32 32 0 0 1-32 32zM512 670.27a159 159 0 0 1 94.11 30.6l200.48 145.81A16 16 0 0 0 832 833.74V289a160 160 0 0 0-160-160H352a160 160 0 0 0-160 160v544.74a16 16 0 0 0 25.41 12.94l200.48-145.81a159 159 0 0 1 94.11-30.6z" fill="#333333" /><path d="M352 320h208a16 16 0 0 1 16 16v32a16 16 0 0 1-16 16H352a32 32 0 0 1-32-32 32 32 0 0 1 32-32z" fill="#EB4242" /></svg>