<?xml version="1.0" standalone="no"?><!DOCTYPE svg PUBLIC "-//W3C//DTD SVG 1.1//EN" "http://www.w3.org/Graphics/SVG/1.1/DTD/svg11.dtd"><svg class="icon" width="200px" height="200.00px" viewBox="0 0 1024 1024" version="1.1" xmlns="http://www.w3.org/2000/svg"><path d="M877.64 208.38l-62-62a160 160 0 0 0-224.35-1.9L201.76 521a32 32 0 0 0-8.63 14.59l-96 352a32 32 0 0 0 39.29 39.29l352-96a32 32 0 0 0 14.58-8.64l376.54-389.52a160 160 0 0 0-1.9-224.34z m-431.5 567.69L200.62 843A16 16 0 0 1 181 823.38l67-245.52a64.09 64.09 0 0 1 17.27-29.18L523 299.44a16 16 0 0 1 22.11-0.13L729.06 473a16 16 0 0 1 0.52 22.75l-254.26 263a64.09 64.09 0 0 1-29.18 17.32z m387.38-387.83l-37.21 38.5a16 16 0 0 1-22.49 0.52L592.26 255.79a16 16 0 0 1-0.13-23.14l43.63-42.17c37.42-36.18 97.8-35.67 134.6 1.14l62 62c36.83 36.82 37.34 97.2 1.16 134.62z" fill="#333333" /><path d="M672 832h240a16 16 0 0 1 16 16v32a16 16 0 0 1-16 16H672a32 32 0 0 1-32-32 32 32 0 0 1 32-32z" fill="#EB4242" /></svg>