<?xml version="1.0" standalone="no"?><!DOCTYPE svg PUBLIC "-//W3C//DTD SVG 1.1//EN" "http://www.w3.org/Graphics/SVG/1.1/DTD/svg11.dtd"><svg class="icon" width="200px" height="200.00px" viewBox="0 0 1024 1024" version="1.1" xmlns="http://www.w3.org/2000/svg"><path d="M533.333333 96c117.76 0 213.333333 95.573333 213.333334 213.333333v127.573334c63.146667 31.573333 106.666667 96 106.666666 171.093333v128c0 105.813333-86.186667 192-192 192h-256c-105.813333 0-192-86.186667-192-192v-128c0-75.093333 43.52-139.52 106.666667-171.093333V309.333333c0-117.76 95.573333-213.333333 213.333333-213.333333z m0 512c-23.466667 0-42.666667 19.2-42.666666 42.666667v42.666666c0 23.466667 19.2 42.666667 42.666666 42.666667s42.666667-19.2 42.666667-42.666667v-42.666666c0-23.466667-19.2-42.666667-42.666667-42.666667z m0-426.666667c-70.4 0-128 57.6-128 128v106.666667h256v-106.666667c0-70.4-57.6-128-128-128z" fill="#FF3D3F" /><path d="M746.666667 364.245333v72.661334a192.384 192.384 0 0 1 101.632 127.445333l-363.776 363.648H405.333333a191.786667 191.786667 0 0 1-150.058666-72.405333L746.666667 364.245333z m-213.333334 243.754667c-21.76 0-39.893333 16.554667-42.368 37.717333l-0.298666 4.949334v42.666666c0 23.466667 19.2 42.666667 42.666666 42.666667 21.76 0 39.893333-16.554667 42.368-37.717333l0.298667-4.949334v-42.666666c0-23.466667-19.2-42.666667-42.666667-42.666667z" fill="#FF5052" /><path d="M746.453333 300.074667l0.213334 9.258666v54.826667L255.274667 855.594667a191.018667 191.018667 0 0 1-41.728-110.592L213.333333 736v-128c0-4.266667 0.128-8.448 0.426667-12.586667l191.573333-191.573333v12.16h256v-106.666667c0-43.733333-22.186667-82.474667-55.893333-105.6l61.056-61.013333a212.992 212.992 0 0 1 79.957333 157.354667z" fill="#FF6365" /><path d="M533.333333 96c50.346667 0 96.682667 17.493333 133.205334 46.72l-61.056 61.013333A127.061333 127.061333 0 0 0 533.333333 181.333333a128.426667 128.426667 0 0 0-127.786666 120.490667L405.333333 309.333333v94.506667l-191.573333 191.530667a191.146667 191.146667 0 0 1 98.133333-154.154667l8.106667-4.309333V309.333333c0-117.76 95.573333-213.333333 213.333333-213.333333z" fill="#FF8A8B" /></svg>