<?xml version="1.0" standalone="no"?><!DOCTYPE svg PUBLIC "-//W3C//DTD SVG 1.1//EN" "http://www.w3.org/Graphics/SVG/1.1/DTD/svg11.dtd"><svg class="icon" width="200px" height="200.00px" viewBox="0 0 1024 1024" version="1.1" xmlns="http://www.w3.org/2000/svg"><path fill="#ffffff" d="M0 504.236V96C0 42.98 42.98 0 96 0h408.236a96 96 0 0 1 67.882 28.118l423.764 423.764c37.49 37.49 37.49 98.274 0 135.764L587.646 995.882c-37.49 37.49-98.274 37.49-135.764 0L28.118 572.118A96 96 0 0 1 0 504.236zM224 128c-53.02 0-96 42.98-96 96s42.98 96 96 96 96-42.98 96-96-42.98-96-96-96z" /></svg>