<?xml version="1.0" standalone="no"?><!DOCTYPE svg PUBLIC "-//W3C//DTD SVG 1.1//EN" "http://www.w3.org/Graphics/SVG/1.1/DTD/svg11.dtd"><svg class="icon" width="200px" height="200.00px" viewBox="0 0 1024 1024" version="1.1" xmlns="http://www.w3.org/2000/svg"><path fill="#ffffff" d="M802.133333 972.8c-12.8 0-25.6-4.266667-34.133333-8.533333l-256-140.8-251.733333 136.533333c-38.4 17.066667-81.066667 4.266667-98.133334-29.866667-4.266667-12.8-8.533333-21.333333-8.533333-34.133333V281.6C149.333333 157.866667 234.666667 85.333333 379.733333 85.333333h268.8c145.066667 0 226.133333 68.266667 226.133334 187.733334V896c0 42.666667-29.866667 76.8-72.533334 76.8z m-290.133333-213.333333c8.533333 0 21.333333 4.266667 29.866667 8.533333l256 136.533333c4.266667 0 12.8 0 12.8-8.533333V273.066667c0-81.066667-55.466667-123.733333-162.133334-123.733334H379.733333C213.333333 149.333333 213.333333 251.733333 213.333333 281.6v618.666667c4.266667 4.266667 8.533333 4.266667 12.8 4.266666l251.733334-136.533333c12.8-4.266667 25.6-8.533333 34.133333-8.533333z"  /><path fill="#ffffff" d="M669.866667 430.933333H358.4c-17.066667 0-34.133333-12.8-34.133333-34.133333s17.066667-29.866667 34.133333-29.866667h311.466667c17.066667 0 34.133333 12.8 34.133333 34.133334s-17.066667 29.866667-34.133333 29.866666z"  /></svg>