<?xml version="1.0" standalone="no"?><!DOCTYPE svg PUBLIC "-//W3C//DTD SVG 1.1//EN" "http://www.w3.org/Graphics/SVG/1.1/DTD/svg11.dtd"><svg t="1689083248973" class="icon" viewBox="0 0 1061 1024" version="1.1" xmlns="http://www.w3.org/2000/svg" p-id="18818" xmlns:xlink="http://www.w3.org/1999/xlink" width="207.2265625" height="200"><path d="M712.806448 420.368672l-54.831117 0c0 70.663249-57.276345 127.939594-127.934762 127.939594s-127.94636-57.276345-127.94636-127.939594l-54.835949 0c0 100.943494 81.840748 182.770711 182.782309 182.770711S712.806448 521.312166 712.806448 420.368672zM1060.075341 610.664502c0-92.762126-51.845618-173.453712-128.274001-215.088325C928.280404 176.543592 749.907239 0 530.039604 0c-219.891798 0-398.292025 176.57742-401.774301 395.645765C51.836919 437.297774 0 517.949735 0 610.664502c0 113.223762 77.376513 208.256181 182.38508 236.416906L127.453448 1023.516753l55.317263 0 18.281227-54.831117 49.456445-164.873182c-1.285437 0.024162-2.476157 0.378866-3.768359 0.378866-105.987624 0-191.905042-85.921284-191.905042-191.91374 0-62.966093 30.742229-118.346178 77.58141-153.33808 20.784445 146.459545 120.307194 267.26255 254.415917 318.458684l-59.16584 191.286486 0.027062 0-16.985159 54.831117 54.831117 0 18.284126-54.831117 78.612659-226.016468c-159.411526-31.471932-279.664597-171.934384-279.664597-340.573025 0-191.792929 155.47983-347.26406 347.268893-347.26406s347.258261 155.471132 347.258261 347.26406c0 168.638641-120.242439 309.102059-279.653965 340.573025l78.612659 226.016468 18.270596 54.831117 54.83305 0L732.228138 968.685637l0.169136 0-59.186137-191.298084c134.144483-51.200966 233.697193-172.026201 254.45361-318.530205 46.86141 34.988036 77.619103 90.407747 77.619103 153.421199 0 105.992457-85.841065 191.91374-191.744604 191.91374-1.3009 0-2.503218-0.356636-3.797353-0.383698l49.420685 164.877048-0.140142 0 18.274462 54.831117 55.388783 0-54.882341-176.42568C982.741353 818.94098 1060.075341 723.898896 1060.075341 610.664502z" fill="#272636" p-id="18819"></path></svg>