<?xml version="1.0" standalone="no"?><!DOCTYPE svg PUBLIC "-//W3C//DTD SVG 1.1//EN" "http://www.w3.org/Graphics/SVG/1.1/DTD/svg11.dtd"><svg class="icon" width="200px" height="200.00px" viewBox="0 0 1024 1024" version="1.1" xmlns="http://www.w3.org/2000/svg"><path d="M640 106.666667H384C231.253333 106.666667 106.666667 231.253333 106.666667 384v256c0 152.746667 124.586667 277.333333 277.333333 277.333333h256c152.746667 0 277.333333-124.586667 277.333333-277.333333V384c0-152.746667-124.586667-277.333333-277.333333-277.333333zM682.666667 554.666667h-128v128c0 23.466667-19.2 42.666667-42.666667 42.666666s-42.666667-19.2-42.666667-42.666666v-128H341.333333c-23.466667 0-42.666667-19.2-42.666666-42.666667s19.2-42.666667 42.666666-42.666667h128V341.333333c0-23.466667 19.2-42.666667 42.666667-42.666666s42.666667 19.2 42.666667 42.666666v128h128c23.466667 0 42.666667 19.2 42.666666 42.666667s-19.2 42.666667-42.666666 42.666667z" fill="#FF3D3F" /><path d="M385.536 554.666667H469.333333v128a42.794667 42.794667 0 0 0 47.530667 42.368l-186.922667 187.008a278.442667 278.442667 0 0 1-179.328-122.453334l234.922667-234.965333z m301.994667-0.298667l-133.205334 133.12L554.666667 682.666667v-128h128a42.666667 42.666667 0 0 0 4.864-0.298667z m102.016-403.754667a278.442667 278.442667 0 0 1 122.453333 179.328l-187.008 186.88L725.333333 512c0-21.76-16.554667-39.893333-37.717333-42.368L682.666667 469.333333h-128V385.536z" fill="#FF5052" /><path d="M640 106.666667c55.04 0 106.368 16.170667 149.546667 43.946666L554.666667 385.536 554.666667 341.333333c0-21.76-16.554667-39.893333-37.717334-42.368L512 298.666667c-23.466667 0-42.666667 19.2-42.666667 42.666666v128H341.333333c-23.466667 0-42.666667 19.2-42.666666 42.666667s19.2 42.666667 42.666666 42.666667h44.202667L150.613333 789.504a275.413333 275.413333 0 0 1-43.776-139.605333L106.666667 640v-108.16L531.84 106.666667z" fill="#FF6365" /><path d="M531.84 106.666667L106.666667 531.84V384c0-149.418667 119.210667-271.914667 267.392-277.162667L384 106.666667h147.84z" fill="#FF8A8B" /></svg>