<?xml version="1.0" standalone="no"?><!DOCTYPE svg PUBLIC "-//W3C//DTD SVG 1.1//EN" "http://www.w3.org/Graphics/SVG/1.1/DTD/svg11.dtd"><svg class="icon" width="200px" height="200.00px" viewBox="0 0 1024 1024" version="1.1" xmlns="http://www.w3.org/2000/svg"><path d="M64 480m32 0l832 0q32 0 32 32l0 0q0 32-32 32l-832 0q-32 0-32-32l0 0q0-32 32-32Z" fill="#333333" /><path d="M64 192m32 0l832 0q32 0 32 32l0 0q0 32-32 32l-832 0q-32 0-32-32l0 0q0-32 32-32Z" fill="#333333" /><path d="M192 128m64 0l0 0q64 0 64 64l0 64q0 64-64 64l0 0q-64 0-64-64l0-64q0-64 64-64Z" fill="#333333" /><path d="M448 416m64 0l0 0q64 0 64 64l0 64q0 64-64 64l0 0q-64 0-64-64l0-64q0-64 64-64Z" fill="#333333" /><path d="M64 768m32 0l832 0q32 0 32 32l0 0q0 32-32 32l-832 0q-32 0-32-32l0 0q0-32 32-32Z" fill="#333333" /><path d="M832 704a64 64 0 0 1 64 64v96a32 32 0 0 1-32 32h-64a32 32 0 0 1-32-32v-96a64 64 0 0 1 64-64z" fill="#EB4242" /></svg>