<svg xmlns="http://www.w3.org/2000/svg" xmlns:xlink="http://www.w3.org/1999/xlink" fill="none" version="1.1" width="200" height="200" viewBox="0 0 200 200"><defs><clipPath id="master_svg0_42_02816"><rect x="200" y="0" width="200" height="200" rx="0"/></clipPath></defs><g transform="matrix(0,1,-1,0,200,-200)" clip-path="url(#master_svg0_42_02816)"><g><path d="M300.000048046875,25C304.602448046875,25,308.333448046875,28.73096,308.333448046875,33.333330000000004C308.333448046875,33.333330000000004,308.333448046875,166.667,308.333448046875,166.667C308.333448046875,171.269,304.602448046875,175,300.000048046875,175C295.397748046875,175,291.666748046875,171.269,291.666748046875,166.667C291.666748046875,166.667,291.666748046875,33.333330000000004,291.666748046875,33.333330000000004C291.666748046875,28.73096,295.397748046875,25,300.000048046875,25C300.000048046875,25,300.000048046875,25,300.000048046875,25ZM349.99974804687497,75C354.60274804687504,75,358.33374804687503,78.731,358.33374804687503,83.33330000000001C358.33374804687503,83.33330000000001,358.33374804687503,166.667,358.33374804687503,166.667C358.33374804687503,171.269,354.60274804687504,175,349.99974804687497,175C345.397748046875,175,341.666748046875,171.269,341.666748046875,166.667C341.666748046875,166.667,341.666748046875,83.33330000000001,341.666748046875,83.33330000000001C341.666748046875,78.731,345.397748046875,75,349.99974804687497,75C349.99974804687497,75,349.99974804687497,75,349.99974804687497,75ZM250.000078046875,25C254.602448046875,25,258.333448046875,28.73083,258.333448046875,33.333330000000004C258.333448046875,33.333330000000004,258.333448046875,45.8333,258.333448046875,58.3333C258.333448046875,70.83330000000001,258.333448046875,83.33330000000001,258.333448046875,83.33330000000001C258.333448046875,87.9358,254.602448046875,91.6667,250.000078046875,91.6667C245.397708046875,91.6667,241.666748046875,87.9358,241.666748046875,83.33330000000001C241.666748046875,83.33330000000001,241.666748046875,33.333330000000004,241.666748046875,33.333330000000004C241.666748046875,28.73083,245.397708046875,25,250.000078046875,25C250.000078046875,25,250.000078046875,25,250.000078046875,25Z" /></g></g></svg>