<?xml version="1.0" standalone="no"?><!DOCTYPE svg PUBLIC "-//W3C//DTD SVG 1.1//EN" "http://www.w3.org/Graphics/SVG/1.1/DTD/svg11.dtd"><svg class="icon" width="200px" height="200.00px" viewBox="0 0 1024 1024" version="1.1" xmlns="http://www.w3.org/2000/svg"><path d="M830.39 129.61A222.53 222.53 0 0 0 672 64H352a224 224 0 0 0-224 224v32H96a32 32 0 0 0-32 32 32 32 0 0 0 32 32h32v256H96a32 32 0 0 0-32 32 32 32 0 0 0 32 32h32v32a224 224 0 0 0 224 224h320a224 224 0 0 0 224-224V288a222.53 222.53 0 0 0-65.61-158.39zM832 736c0 88.22-71.78 160-160 160H352c-88.22 0-160-71.78-160-160v-32h32a32 32 0 0 0 32-32 32 32 0 0 0-32-32h-32V384h32a32 32 0 0 0 32-32 32 32 0 0 0-32-32h-32v-32c0-88.22 71.78-160 160-160h320c88.22 0 160 71.78 160 160z" fill="#333333" /><path d="M672 256a32 32 0 0 1 32 32v208a16 16 0 0 1-16 16h-32a16 16 0 0 1-16-16V288a32 32 0 0 1 32-32z" fill="#EB4242" /></svg>