<?xml version="1.0" standalone="no"?><!DOCTYPE svg PUBLIC "-//W3C//DTD SVG 1.1//EN" "http://www.w3.org/Graphics/SVG/1.1/DTD/svg11.dtd"><svg t="1689070505645" class="icon" viewBox="0 0 1024 1024" version="1.1" xmlns="http://www.w3.org/2000/svg" p-id="7403" xmlns:xlink="http://www.w3.org/1999/xlink" width="200" height="200"><path d="M752 80H272C184 80 112 152 112 240v416c0 78.4 57.6 144 132.8 156.8L144 872c-16 9.6-20.8 28.8-11.2 43.2 9.6 16 28.8 20.8 43.2 11.2L368 816h288l193.6 112c16 9.6 35.2 3.2 43.2-11.2 9.6-16 3.2-35.2-11.2-43.2l-100.8-59.2c73.6-14.4 131.2-80 131.2-158.4V240c0-88-72-160-160-160zM272 144h480c52.8 0 96 43.2 96 96v224H176V240c0-52.8 43.2-96 96-96z m480 608H272c-52.8 0-96-43.2-96-96v-112h672v112c0 52.8-43.2 96-96 96z" fill="#4A576A" p-id="7404"></path><path d="M336 640m-48 0a48 48 0 1 0 96 0 48 48 0 1 0-96 0Z" fill="#4A576A" p-id="7405"></path><path d="M688 640m-48 0a48 48 0 1 0 96 0 48 48 0 1 0-96 0Z" fill="#4A576A" p-id="7406"></path></svg>