<?xml version="1.0" standalone="no"?><!DOCTYPE svg PUBLIC "-//W3C//DTD SVG 1.1//EN" "http://www.w3.org/Graphics/SVG/1.1/DTD/svg11.dtd"><svg class="icon" width="200px" height="200.00px" viewBox="0 0 1024 1024" version="1.1" xmlns="http://www.w3.org/2000/svg"><path d="M736 192H336a16 16 0 0 1-16-16v-14.78c0-52.85-42.2-96.7-95-97.22a96.12 96.12 0 0 0-97 96v702.78c0 52.85 42.2 96.7 95.05 97.22A96.12 96.12 0 0 0 320 864V718.78A14.78 14.78 0 0 1 334.78 704H736a160 160 0 0 0 160-160V352a160 160 0 0 0-160-160zM256 864a32 32 0 0 1-64 0V160a32 32 0 0 1 64 0v704z m576-320a96 96 0 0 1-96 96H334.78A14.78 14.78 0 0 1 320 625.22V270.78A14.78 14.78 0 0 1 334.78 256H736a96 96 0 0 1 96 96z" fill="#333333" /><path d="M672 320a32 32 0 0 1 32 32v144a16 16 0 0 1-16 16h-32a16 16 0 0 1-16-16V352a32 32 0 0 1 32-32z" fill="#EB4242" /></svg>