<?xml version="1.0" standalone="no"?><!DOCTYPE svg PUBLIC "-//W3C//DTD SVG 1.1//EN" "http://www.w3.org/Graphics/SVG/1.1/DTD/svg11.dtd"><svg class="icon" width="200px" height="200.00px" viewBox="0 0 1024 1024" version="1.1" xmlns="http://www.w3.org/2000/svg"><path d="M736 896H288A224 224 0 0 1 64 672V352a224 224 0 0 1 224-224h448a224 224 0 0 1 224 224v320a224 224 0 0 1-224 224zM288 192c-88.22 0-160 71.78-160 160v320c0 88.22 71.78 160 160 160h448c88.22 0 160-71.78 160-160V352c0-88.22-71.78-160-160-160z" fill="#333333" /><path d="M528 736a32 32 0 0 1-27.17-15l-55.32-88.52a16 16 0 0 0-21.63-5.34l-124.12 72.38A32 32 0 0 1 256 688a32 32 0 0 1 11.52-43.76l164.36-95.88A32 32 0 0 1 475.14 559l55.54 88.87a16 16 0 0 0 21.51 5.41l156.15-89.23A32 32 0 0 1 752 576a32 32 0 0 1-11.91 43.66L543.88 731.78A31.84 31.84 0 0 1 528 736z" fill="#333333" /><path d="M704 384m-64 0a64 64 0 1 0 128 0 64 64 0 1 0-128 0Z" fill="#EB4242" /></svg>