<?xml version="1.0" standalone="no"?><!DOCTYPE svg PUBLIC "-//W3C//DTD SVG 1.1//EN" "http://www.w3.org/Graphics/SVG/1.1/DTD/svg11.dtd"><svg class="icon" width="200px" height="200.00px" viewBox="0 0 1024 1024" version="1.1" xmlns="http://www.w3.org/2000/svg"><path d="M512 960a448 448 0 0 1-43.35-893.93A32.05 32.05 0 0 1 480.07 64C497.82 64 512 78.88 512 96.62V448a64 64 0 0 0 64 64h350.26a32.84 32.84 0 0 1 18 5.19 32 32 0 0 1 14.43 29.24A448 448 0 0 1 512 960z m-64-807.24a16 16 0 0 0-19.58-15.6C256.19 175.65 128 330.9 128 512c0 211.74 172.26 384 384 384 181.1 0 336.34-128.19 374.84-300.42a16 16 0 0 0-15.6-19.58H576a128 128 0 0 1-128-128z" fill="#333333" /><path d="M916.87 448H608a32 32 0 0 1-32-32V107.13A32 32 0 0 1 615.36 76 448.66 448.66 0 0 1 948 408.64 32 32 0 0 1 916.87 448zM656 384h194.67a16 16 0 0 0 14.71-22.32 388.35 388.35 0 0 0-203.06-203.06A16 16 0 0 0 640 173.33V368a16 16 0 0 0 16 16z" fill="#333333" /><path d="M512 751.48a16 16 0 0 1-16.91 16A256.14 256.14 0 0 1 258.55 548.4a32 32 0 0 1 31.69-36.4 31.92 31.92 0 0 1 31.65 27.47c12.49 89.58 85.31 157.24 175.3 164A16 16 0 0 1 512 719.4z" fill="#EB4242" /></svg>