<?xml version="1.0" standalone="no"?><!DOCTYPE svg PUBLIC "-//W3C//DTD SVG 1.1//EN" "http://www.w3.org/Graphics/SVG/1.1/DTD/svg11.dtd"><svg class="icon" width="200px" height="200.00px" viewBox="0 0 1024 1024" version="1.1" xmlns="http://www.w3.org/2000/svg"><path d="M928 896H288A224 224 0 0 1 64 672V160a32 32 0 0 1 64 0v512c0 88.22 71.78 160 160 160h640a32 32 0 0 1 0 64z" fill="#333333" /><path d="M223 704a32 32 0 0 1-22.63-54.63L434.75 416a64.07 64.07 0 0 1 90.5 0l71.44 71.43a16 16 0 0 0 22.62 0l222.06-222.06a32 32 0 0 1 45.26 45.26L653.25 544a64 64 0 0 1-90.5 0l-71.44-71.43a16 16 0 0 0-22.62 0L245.63 694.63A31.9 31.9 0 0 1 223 704z" fill="#333333" /><path d="M192 192m32 0l128 0q32 0 32 32l0 0q0 32-32 32l-128 0q-32 0-32-32l0 0q0-32 32-32Z" fill="#EB4242" /></svg>