<?xml version="1.0" standalone="no"?><!DOCTYPE svg PUBLIC "-//W3C//DTD SVG 1.1//EN" "http://www.w3.org/Graphics/SVG/1.1/DTD/svg11.dtd"><svg class="icon" width="200px" height="200.00px" viewBox="0 0 1024 1024" version="1.1" xmlns="http://www.w3.org/2000/svg"><path d="M736 896H288A224 224 0 0 1 64 672V352a224 224 0 0 1 224-224h448a224 224 0 0 1 224 224v320a224 224 0 0 1-224 224zM288 192c-88.22 0-160 71.78-160 160v320c0 88.22 71.78 160 160 160h448c88.22 0 160-71.78 160-160V352c0-88.22-71.78-160-160-160z" fill="#333333" /><path d="M352 448a32 32 0 0 1 32 32v208a16 16 0 0 1-16 16h-32a16 16 0 0 1-16-16V480a32 32 0 0 1 32-32z" fill="#EB4242" /><path d="M480 384m32 0l0 0q32 0 32 32l0 256q0 32-32 32l0 0q-32 0-32-32l0-256q0-32 32-32Z" fill="#333333" /><path d="M640 320m32 0l0 0q32 0 32 32l0 320q0 32-32 32l0 0q-32 0-32-32l0-320q0-32 32-32Z" fill="#333333" /></svg>