<?xml version="1.0" standalone="no"?><!DOCTYPE svg PUBLIC "-//W3C//DTD SVG 1.1//EN" "http://www.w3.org/Graphics/SVG/1.1/DTD/svg11.dtd"><svg class="icon" width="200px" height="200.00px" viewBox="0 0 1024 1024" version="1.1" xmlns="http://www.w3.org/2000/svg"><path d="M629.333333 234.666667V129.706667l179.626667 179.626666H704c-40.96 0-74.666667-33.706667-74.666667-74.666666z m74.666667 138.666666c-76.373333 0-138.666667-62.293333-138.666667-138.666666v-128H384C278.186667 106.666667 192 192.853333 192 298.666667v426.666666c0 105.813333 86.186667 192 192 192h256c105.813333 0 192-86.186667 192-192V373.333333h-128z" fill="#9254DE" /><path d="M630.613333 352.256c21.333333 13.354667 46.506667 21.077333 73.386667 21.077333h128v79.232L367.957333 916.650667a192.554667 192.554667 0 0 1-167.338666-134.4z m110.634667-110.634667L808.96 309.333333H704c-9.045333 0-17.706667-1.621333-25.770667-4.650666l63.018667-63.061334z" fill="#9D65E1" /><path d="M565.333333 115.84V234.666667c0 49.493333 26.112 93.013333 65.28 117.546666L200.618667 782.293333A191.146667 191.146667 0 0 1 192 725.333333v-236.16l373.333333-373.333333z m64 13.866667l111.914667 111.914666-63.061333 63.061334A75.093333 75.093333 0 0 1 629.333333 234.666667V129.706667z" fill="#A776E4" /><path d="M565.333333 106.666667v9.173333l-373.333333 373.333333V298.666667a192.298667 192.298667 0 0 1 182.997333-191.786667L384 106.666667h181.333333z" fill="#BD98EB" /></svg>