<?xml version="1.0" standalone="no"?><!DOCTYPE svg PUBLIC "-//W3C//DTD SVG 1.1//EN" "http://www.w3.org/Graphics/SVG/1.1/DTD/svg11.dtd"><svg class="icon" width="200px" height="200.00px" viewBox="0 0 1024 1024" version="1.1" xmlns="http://www.w3.org/2000/svg"><path d="M512 85.333333C276.906667 85.333333 85.333333 276.906667 85.333333 512s191.573333 426.666667 426.666667 426.666667 426.666667-191.573333 426.666667-426.666667S747.093333 85.333333 512 85.333333z m0 682.666667c-23.466667 0-42.666667-19.2-42.666667-42.666667s19.2-42.666667 42.666667-42.666666 42.666667 19.2 42.666667 42.666666-19.2 42.666667-42.666667 42.666667z m87.04-199.68c-39.253333 26.026667-45.653333 40.106667-46.506667 42.666667-5.973333 17.92-22.613333 29.013333-40.533333 29.013333-4.693333 0-8.96-0.853333-13.653333-2.133333-22.186667-7.68-34.133333-32-26.88-54.186667 13.226667-38.4 52.053333-67.84 80.213333-86.613333 53.333333-35.413333 46.506667-73.813333 44.373333-86.186667-5.973333-33.706667-34.56-62.293333-68.266666-68.266667A85.461333 85.461333 0 0 0 426.666667 426.666667c0 23.466667-19.2 42.666667-42.666667 42.666666s-42.666667-19.2-42.666667-42.666666c0-50.346667 22.186667-98.133333 61.013334-130.56 38.826667-32.853333 90.026667-46.08 140.373333-37.546667 68.693333 12.373333 125.013333 68.693333 137.386667 137.386667 11.946667 68.266667-17.066667 129.706667-81.066667 172.373333z" fill="#73D13D" /><path d="M792.234667 190.634667a428.544 428.544 0 0 1 122.154666 179.541333l-360.064 360.021333L554.666667 725.333333c0-21.76-16.554667-39.893333-37.717334-42.368L512 682.666667c-23.466667 0-42.666667 19.2-42.666667 42.666666a42.794667 42.794667 0 0 0 47.573334 42.368l-146.730667 146.688a428.544 428.544 0 0 1-179.541333-122.154666l399.786666-399.701334c2.56 5.845333 4.522667 11.989333 5.632 18.346667 2.133333 12.373333 8.96 50.773333-44.373333 86.186667-28.16 18.773333-66.986667 48.213333-80.213333 86.613333-7.253333 22.186667 4.693333 46.506667 26.88 54.186667 4.693333 1.28 8.96 2.133333 13.653333 2.133333 17.92 0 34.56-11.093333 40.533333-29.013333 0.853333-2.56 7.253333-16.64 46.506667-42.666667 64-42.666667 93.013333-104.106667 81.066667-172.373333a167.552 167.552 0 0 0-27.392-65.706667z" fill="#81D550" /><path d="M588.885333 92.288a425.642667 425.642667 0 0 1 203.306667 98.346667l-139.52 139.562666A172.458667 172.458667 0 0 0 542.72 258.56c-50.346667-8.533333-101.546667 4.693333-140.373333 37.546667C363.52 328.533333 341.333333 376.32 341.333333 426.666667c0 23.466667 19.2 42.666667 42.666667 42.666666s42.666667-19.2 42.666667-42.666666a85.461333 85.461333 0 0 1 101.12-84.053334c27.349333 4.864 51.328 24.576 62.592 49.877334l-399.786667 399.701333a425.642667 425.642667 0 0 1-98.304-203.306667z" fill="#8FDA63" /><path d="M512 85.333333c26.24 0 51.968 2.389333 76.928 6.954667l-496.64 496.64A426.709333 426.709333 0 0 1 85.333333 512C85.333333 276.906667 276.906667 85.333333 512 85.333333z" fill="#ABE38A" /></svg>