<?xml version="1.0" standalone="no"?><!DOCTYPE svg PUBLIC "-//W3C//DTD SVG 1.1//EN" "http://www.w3.org/Graphics/SVG/1.1/DTD/svg11.dtd"><svg class="icon" width="200px" height="200.00px" viewBox="0 0 1024 1024" version="1.1" xmlns="http://www.w3.org/2000/svg"><path d="M894.34 321.69A222.52 222.52 0 0 0 736 256.14h-0.16l-112.12 0.09h-0.12a161.12 161.12 0 0 1-113.27-47l-15.41-15.45A224 224 0 0 0 336.34 128H288A224 224 0 0 0 64 352v320a224 224 0 0 0 224 224h448a224 224 0 0 0 224-224V480.14a222.52 222.52 0 0 0-65.66-158.45zM128 352a160 160 0 0 1 160-160h48.34a159 159 0 0 1 113.27 47L465 254.44a224.06 224.06 0 0 0 158.57 65.79h0.19l112.11-0.09h0.13a160.26 160.26 0 0 1 150.9 106.58A16 16 0 0 1 871.79 448H144a16 16 0 0 1-16-16z m768 320a160 160 0 0 1-160 160H288a160 160 0 0 1-160-160V528a16 16 0 0 1 16-16h736a16 16 0 0 1 16 16z" fill="#333333" /><path d="M288 640h144a16 16 0 0 1 16 16v32a16 16 0 0 1-16 16H288a32 32 0 0 1-32-32 32 32 0 0 1 32-32z" fill="#EB4242" /></svg>