<?xml version="1.0" standalone="no"?><!DOCTYPE svg PUBLIC "-//W3C//DTD SVG 1.1//EN" "http://www.w3.org/Graphics/SVG/1.1/DTD/svg11.dtd"><svg class="icon" width="200px" height="200.00px" viewBox="0 0 1024 1024" version="1.1" xmlns="http://www.w3.org/2000/svg"><path d="M320 320c0-117.632 95.701333-213.333333 213.333333-213.333333 117.674667 0 213.333333 95.701333 213.333334 213.333333s-95.658667 213.333333-213.333334 213.333333c-117.632 0-213.333333-95.701333-213.333333-213.333333z m388.992 258.986667a98.133333 98.133333 0 0 0-71.253333 9.344 215.296 215.296 0 0 1-208.810667 0 98.773333 98.773333 0 0 0-71.253333-9.301334C272.682667 600.490667 213.333333 677.546667 213.333333 766.592v43.093333c0 27.264 7.253333 53.845333 21.034667 77.056 11.221333 18.858667 32.256 30.592 54.826667 30.592h488.234666c22.613333 0 43.648-11.648 54.826667-30.634666A150.613333 150.613333 0 0 0 853.333333 809.685333v-43.093333c0-88.96-59.306667-166.101333-144.341333-187.562667z" fill="#40A9FF" /><path d="M637.781333 588.330667a98.133333 98.133333 0 0 1 71.253334-9.301334 189.013333 189.013333 0 0 1 81.066666 43.52L495.189333 917.333333H289.237333c-20.522667 0-39.808-9.685333-51.541333-25.6l-3.328-4.992c-1.28-2.133333-2.517333-4.352-3.669333-6.570666l267.733333-267.690667a215.210667 215.210667 0 0 0 139.349333-24.149333z m-54.186666-61.013334l3.541333-0.853333z" fill="#53B1FF" /><path d="M357.674667 578.986667a98.773333 98.773333 0 0 1 71.253333 9.344 214.272 214.272 0 0 0 69.546667 24.149333l-267.776 267.648A151.082667 151.082667 0 0 1 213.333333 809.728v-43.136c0-88.96 59.349333-166.101333 144.341334-187.562667zM746.666667 320c0 117.632-95.658667 213.333333-213.333334 213.333333a213.162667 213.162667 0 0 1-171.221333-86.272l298.325333-298.325333A213.162667 213.162667 0 0 1 746.666667 320z" fill="#66BAFF" /><path d="M533.333333 106.666667c47.616 0 91.605333 15.616 127.146667 42.069333l-298.368 298.325333A212.224 212.224 0 0 1 320 320c0-117.632 95.701333-213.333333 213.333333-213.333333z" fill="#8CCBFF" /></svg>