<?xml version="1.0" standalone="no"?><!DOCTYPE svg PUBLIC "-//W3C//DTD SVG 1.1//EN" "http://www.w3.org/Graphics/SVG/1.1/DTD/svg11.dtd"><svg class="icon" width="200px" height="200.00px" viewBox="0 0 1024 1024" version="1.1" xmlns="http://www.w3.org/2000/svg"><path d="M894.39 258.11A222.53 222.53 0 0 0 736 192.5h-25.67a16 16 0 0 1-15.56-12.26l-10.37-43.17a95.71 95.71 0 0 0-93.34-73.57H433.44a95.71 95.71 0 0 0-93.34 73.57l-10.37 43.17a16 16 0 0 1-15.56 12.26H288.5a224 224 0 0 0-224 224v255a224 224 0 0 0 224 224H736a224 224 0 0 0 224-224v-255a222.53 222.53 0 0 0-65.61-158.39zM896 671.5a160 160 0 0 1-160 160H288.5a160 160 0 0 1-160-160v-255a160 160 0 0 1 160-160h38.28A63.81 63.81 0 0 0 389 207.45L402.33 152a32 32 0 0 1 31.11-24.52h157.62A32 32 0 0 1 622.17 152l13.32 55.43a63.81 63.81 0 0 0 62.23 49.05H736a160 160 0 0 1 160 160z" fill="#333333" /><path d="M512 704c-105.87 0-192-86.13-192-192s86.13-192 192-192 192 86.13 192 192-86.13 192-192 192z m0-320a128 128 0 1 0 128 128 128.14 128.14 0 0 0-128-128z" fill="#EB4242" /></svg>