<?xml version="1.0" standalone="no"?><!DOCTYPE svg PUBLIC "-//W3C//DTD SVG 1.1//EN" "http://www.w3.org/Graphics/SVG/1.1/DTD/svg11.dtd"><svg class="icon" width="200px" height="200.00px" viewBox="0 0 1024 1024" version="1.1" xmlns="http://www.w3.org/2000/svg"><path d="M896.426667 436.906667C841.386667 345.6 718.592 192 511.744 192c-206.421333 0-329.685333 153.6-384.298667 244.906667a145.237333 145.237333 0 0 0 0 149.76c54.613333 91.733333 177.877333 245.333333 384.298667 245.333333 206.848 0 329.685333-153.6 384.682667-245.333333 13.653333-23.04 20.906667-48.64 20.906666-74.666667 0-26.026667-7.253333-51.626667-20.906666-75.093333z m-384.682667 267.093333A192.256 192.256 0 0 1 319.829333 512c0-105.813333 86.144-192 191.914667-192s191.914667 86.186667 191.914667 192-86.186667 192-191.914667 192z m106.197333-197.973333c0.426667 2.133333 0.426667 3.84 0.426667 5.973333a106.666667 106.666667 0 0 1-106.666667 106.666667 106.666667 106.666667 0 0 1 0-213.333334c26.026667 0 49.92 9.386667 68.266667 24.746667-14.933333 6.826667-25.6 21.76-25.6 39.253333 0 23.466667 19.2 42.666667 42.666667 42.666667 7.68 0 14.933333-2.133333 20.906666-5.973333z" fill="#9254DE" /><path d="M798.293333 312.661333c43.989333 42.24 76.373333 88.106667 98.133334 124.245334 10.88 18.688 17.706667 38.741333 20.053333 59.306666l-328.533333 328.533334a396.8 396.8 0 0 1-76.202667 7.253333 387.498667 387.498667 0 0 1-186.026667-46.805333l101.077334-101.077334c25.6 12.714667 54.442667 19.882667 84.906666 19.882667 105.813333 0 191.957333-86.186667 191.957334-192 0-30.464-7.125333-59.306667-19.84-84.906667z m-180.352 193.365334c0.426667 2.133333 0.426667 3.84 0.426667 5.973333a106.666667 106.666667 0 0 1-124.586667 105.173333l105.258667-105.344 3.669333-0.213333a37.845333 37.845333 0 0 0 15.232-5.546667z" fill="#9D65E1" /><path d="M321.322667 487.808a192.298667 192.298667 0 0 0 105.472 196.309333l-101.12 101.077334c-69.632-37.504-122.496-91.861333-160-141.653334zM511.744 405.333333c26.026667 0 49.92 9.386667 68.266667 24.746667-14.933333 6.826667-25.6 21.76-25.6 39.253333 0 23.466667 19.2 42.666667 42.624 42.666667l1.962666-0.170667-105.173333 105.344a106.752 106.752 0 0 1 17.92-211.84z m94.208-202.112c79.530667 19.541333 143.189333 62.208 192.341333 109.397334l-114.474666 114.432a192.213333 192.213333 0 0 0-196.224-105.557334z" fill="#A776E4" /><path d="M511.744 192c33.621333 0 64.981333 4.053333 94.250667 11.221333l-118.357334 118.272a192.469333 192.469333 0 0 0-166.314666 166.314667l-155.690667 155.733333a631.125333 631.125333 0 0 1-38.186667-56.874666 145.237333 145.237333 0 0 1 0-149.76C182.058667 345.6 305.322667 192 511.744 192z" fill="#BD98EB" /></svg>