<?xml version="1.0" standalone="no"?><!DOCTYPE svg PUBLIC "-//W3C//DTD SVG 1.1//EN" "http://www.w3.org/Graphics/SVG/1.1/DTD/svg11.dtd"><svg class="icon" width="200px" height="200.00px" viewBox="0 0 1024 1024" version="1.1" xmlns="http://www.w3.org/2000/svg"><path d="M736 896H288A224 224 0 0 1 64 672V352a224 224 0 0 1 224-224h448a224 224 0 0 1 224 224v320a224 224 0 0 1-224 224zM288 192c-88.22 0-160 71.78-160 160v320c0 88.22 71.78 160 160 160h448c88.22 0 160-71.78 160-160V352c0-88.22-71.78-160-160-160z" fill="#333333" /><path d="M512 544a32 32 0 0 1-14.31-3.38L270.31 426.93A32 32 0 0 1 256 384a32 32 0 0 1 42.93-14.31l205.91 103a16 16 0 0 0 14.32 0l220.22-110.16a16 16 0 0 1 21.46 7.16l14.32 28.62a16 16 0 0 1-7.16 21.47L526.31 540.62A32 32 0 0 1 512 544z" fill="#EB4242" /></svg>