<?xml version="1.0" standalone="no"?><!DOCTYPE svg PUBLIC "-//W3C//DTD SVG 1.1//EN" "http://www.w3.org/Graphics/SVG/1.1/DTD/svg11.dtd"><svg class="icon" width="200px" height="200.00px" viewBox="0 0 1024 1024" version="1.1" xmlns="http://www.w3.org/2000/svg"><path d="M704 928H320A224 224 0 0 1 96 704V320A224 224 0 0 1 320 96h384a224 224 0 0 1 224 224v384a224 224 0 0 1-224 224zM320 160c-88.22 0-160 71.78-160 160v384c0 88.22 71.78 160 160 160h384c88.22 0 160-71.78 160-160V320c0-88.22-71.78-160-160-160z" fill="#333333" /><path d="M352 704h336a16 16 0 0 1 16 16v32a16 16 0 0 1-16 16H352a32 32 0 0 1-32-32 32 32 0 0 1 32-32z" fill="#EB4242" /><path d="M695.12 524.38L529.75 634.63a32 32 0 0 1-35.5 0L328.88 524.38A32 32 0 0 1 320 480a32 32 0 0 1 44.38-8.88l103.18 68.8a8 8 0 0 0 12.44-6.66V288a32 32 0 0 1 32-32 32 32 0 0 1 32 32v245.26a8 8 0 0 0 12.44 6.66l103.18-68.8A32 32 0 0 1 704 480a32 32 0 0 1-8.88 44.38z" fill="#333333" /></svg>