<?xml version="1.0" standalone="no"?><!DOCTYPE svg PUBLIC "-//W3C//DTD SVG 1.1//EN" "http://www.w3.org/Graphics/SVG/1.1/DTD/svg11.dtd"><svg class="icon" width="200px" height="200.00px" viewBox="0 0 1024 1024" version="1.1" xmlns="http://www.w3.org/2000/svg"><path d="M704 992H192c-70.4 0-128-57.6-128-128V160c0-70.4 57.6-128 128-128h512c70.4 0 128 57.6 128 128v704c0 70.4-57.6 128-128 128z" fill="#4E8DF6" /><path d="M497.6 308.8H233.6c-25.6 0-48-20.8-48-48v-11.2c0-25.6 20.8-48 48-48H496c25.6 0 48 20.8 48 48v11.2c1.6 25.6-20.8 48-46.4 48zM440 492.8H233.6c-25.6 0-48-20.8-48-48v-11.2c0-25.6 20.8-48 48-48h206.4c25.6 0 48 22.4 48 48v11.2c0 27.2-20.8 48-48 48z" fill="#FFFFFF" /><path d="M936 193.6l-57.6-36.8c-24-14.4-56-8-70.4 16l-36.8 56c-4.8 8-3.2 19.2 6.4 24l115.2 70.4c8 4.8 19.2 3.2 24-4.8l36.8-56c14.4-22.4 6.4-54.4-17.6-68.8zM512 670.4l113.6 70.4c8 4.8 19.2 3.2 25.6-4.8L880 379.2c4.8-8 3.2-19.2-6.4-25.6l-113.6-70.4c-8-4.8-19.2-3.2-25.6 4.8L505.6 646.4c-4.8 8-3.2 19.2 6.4 24zM483.2 872l116.8-78.4c11.2-8 9.6-22.4 0-30.4L500.8 704c-11.2-6.4-25.6 0-27.2 12.8l-19.2 139.2c-1.6 14.4 16 25.6 28.8 16z" fill="#E1E1DF" /><path d="M752 473.6c9.6 6.4 20.8 3.2 27.2-6.4l36.8-56c6.4-9.6 3.2-20.8-6.4-27.2-9.6-6.4-20.8-3.2-27.2 6.4l-36.8 56c-4.8 9.6-3.2 20.8 6.4 27.2z" fill="#2166CC" /></svg>