<?xml version="1.0" standalone="no"?><!DOCTYPE svg PUBLIC "-//W3C//DTD SVG 1.1//EN" "http://www.w3.org/Graphics/SVG/1.1/DTD/svg11.dtd"><svg class="icon" width="200px" height="200.00px" viewBox="0 0 1024 1024" version="1.1" xmlns="http://www.w3.org/2000/svg"><path d="M894.39 193.61A222.53 222.53 0 0 0 736 128H288A224 224 0 0 0 64 352v320a224 224 0 0 0 224 224h448a224 224 0 0 0 224-224V352a222.53 222.53 0 0 0-65.61-158.39zM896 672a160 160 0 0 1-160 160H288a160 160 0 0 1-160-160V465a16 16 0 0 1 16-16h736a16 16 0 0 1 16 16z m-16-287H144a16 16 0 0 1-16-16v-17a160 160 0 0 1 160-160h448a160 160 0 0 1 160 160v17a16 16 0 0 1-16 16z" fill="#333333" /><path d="M608 640h144a16 16 0 0 1 16 16v32a16 16 0 0 1-16 16H608a32 32 0 0 1-32-32 32 32 0 0 1 32-32z" fill="#EB4242" /></svg>