<?xml version="1.0" standalone="no"?><!DOCTYPE svg PUBLIC "-//W3C//DTD SVG 1.1//EN" "http://www.w3.org/Graphics/SVG/1.1/DTD/svg11.dtd"><svg class="icon" width="200px" height="200.00px" viewBox="0 0 1024 1024" version="1.1" xmlns="http://www.w3.org/2000/svg"><path d="M352 320m32 0l256 0q32 0 32 32l0 0q0 32-32 32l-256 0q-32 0-32-32l0 0q0-32 32-32Z" fill="#333333" /><path d="M544 224v272a16 16 0 0 1-16 16h-32a16 16 0 0 1-16-16V224a32 32 0 0 1 32-32 32 32 0 0 1 32 32z" fill="#EB4242" /><path d="M928 896h-32V288A224 224 0 0 0 672 64H352a224 224 0 0 0-224 224v608H96a32 32 0 0 0-32 32 32 32 0 0 0 32 32h832a32 32 0 0 0 32-32 32 32 0 0 0-32-32z m-544 0V736a32 32 0 0 1 32-32h192a32 32 0 0 1 32 32v160z m320 0V736a96.11 96.11 0 0 0-96-96H416a96.11 96.11 0 0 0-96 96v160H192V288c0-88.22 71.78-160 160-160h320c88.22 0 160 71.78 160 160v608z" fill="#333333" /></svg>