<?xml version="1.0" standalone="no"?><!DOCTYPE svg PUBLIC "-//W3C//DTD SVG 1.1//EN" "http://www.w3.org/Graphics/SVG/1.1/DTD/svg11.dtd"><svg class="icon" width="200px" height="200.00px" viewBox="0 0 1024 1024" version="1.1" xmlns="http://www.w3.org/2000/svg"><path d="M736 896H288A224 224 0 0 1 64 672v-0.57c0-29.3 18.69-55.84 46.5-66C139.18 594.87 160 555.59 160 512s-20.82-82.87-49.5-93.38C82.69 408.41 64 381.87 64 352.57V352a224 224 0 0 1 224-224h448a224 224 0 0 1 224 224v0.57c0 29.3-18.69 55.84-46.5 66.05C884.82 429.13 864 468.41 864 512s20.82 82.87 49.5 93.38c27.81 10.21 46.5 36.75 46.5 66v0.62a224 224 0 0 1-224 224zM288 192c-88.22 0-160 71.78-160 160v0.57a6.5 6.5 0 0 0 4.54 6c26.88 9.86 50.72 30.88 67.14 59.2 15.91 27.4 24.32 60 24.32 94.23s-8.41 66.83-24.32 94.27c-16.42 28.32-40.26 49.34-67.14 59.2a6.5 6.5 0 0 0-4.54 6v0.53c0 88.22 71.78 160 160 160h448c88.22 0 160-71.78 160-160v-0.57a6.5 6.5 0 0 0-4.54-6c-26.88-9.86-50.72-30.88-67.14-59.2-15.91-27.4-24.32-60-24.32-94.23s8.41-66.83 24.32-94.27c16.42-28.32 40.26-49.34 67.14-59.2a6.5 6.5 0 0 0 4.54-6V352c0-88.22-71.78-160-160-160z" fill="#333333" /><path d="M608 384a32 32 0 0 1 32 32v208a16 16 0 0 1-16 16h-32a16 16 0 0 1-16-16V416a32 32 0 0 1 32-32z" fill="#EB4242" /></svg>