<?xml version="1.0" standalone="no"?><!DOCTYPE svg PUBLIC "-//W3C//DTD SVG 1.1//EN" "http://www.w3.org/Graphics/SVG/1.1/DTD/svg11.dtd"><svg class="icon" width="200px" height="200.00px" viewBox="0 0 1024 1024" version="1.1" xmlns="http://www.w3.org/2000/svg"><path d="M512 106.666667c-223.573333 0-405.333333 181.76-405.333333 405.333333s181.76 405.333333 405.333333 405.333333 405.333333-181.76 405.333333-405.333333-181.76-405.333333-405.333333-405.333333z m115.626667 435.626666l-128 128c-8.533333 8.106667-19.2 12.373333-30.293334 12.373334-11.093333 0-21.76-4.266667-30.293333-12.373334-16.64-16.64-16.64-43.946667 0-60.586666l98.133333-97.706667-98.133333-97.706667c-16.64-16.64-16.64-43.946667 0-60.586666 16.64-16.64 43.946667-16.64 60.586667 0l128 128c16.64 16.64 16.64 43.946667 0 60.586666z" fill="#FFC130" /><path d="M799.232 226.218667a405.077333 405.077333 0 0 1 107.648 194.133333L420.352 906.88a405.077333 405.077333 0 0 1-194.133333-107.648l299.093333-299.093333 11.861333 11.861333-98.133333 97.706667c-16.64 16.64-16.64 43.946667 0 60.586666 8.533333 8.106667 19.2 12.373333 30.293333 12.373334 11.093333 0 21.76-4.266667 30.293334-12.373334l128-128c16.64-16.64 16.64-43.946667 0-60.586666l-41.898667-41.898667z" fill="#FFC745" /><path d="M606.08 117.674667a405.162667 405.162667 0 0 1 193.237333 108.629333l-213.589333 213.504L499.626667 353.706667a43.050667 43.050667 0 0 0-56.576-3.541334l-4.010667 3.541334c-16.64 16.64-16.64 43.946667 0 60.586666l86.272 85.888-299.008 299.093334a405.162667 405.162667 0 0 1-108.629333-193.194667z" fill="#FFCD59" /><path d="M512 106.666667c32.426667 0 63.914667 3.84 94.165333 11.050666L117.717333 606.165333A405.290667 405.290667 0 0 1 106.666667 512c0-223.573333 181.76-405.333333 405.333333-405.333333z" fill="#FFD982" /></svg>