<?xml version="1.0" standalone="no"?><!DOCTYPE svg PUBLIC "-//W3C//DTD SVG 1.1//EN" "http://www.w3.org/Graphics/SVG/1.1/DTD/svg11.dtd"><svg class="icon" width="200px" height="200.00px" viewBox="0 0 1024 1024" version="1.1" xmlns="http://www.w3.org/2000/svg"><path d="M442.026667 499.626667L136.106667 282.453333A191.829333 191.829333 0 0 1 298.666667 192h426.666666c68.266667 0 128.426667 35.84 162.56 90.026667l-305.066666 216.746666c-43.093333 28.586667-98.56 28.586667-140.8 0.853334zM916.48 366.933333l-285.013333 202.24c-36.693333 24.32-78.506667 36.266667-119.893334 36.266667-40.96 0-81.92-11.946667-117.76-35.84L107.52 366.933333c-0.426667 5.546667-0.853333 11.52-0.853333 17.066667v256c0 105.813333 86.186667 192 192 192h426.666666c105.813333 0 192-86.186667 192-192V384c0-5.546667-0.426667-11.52-0.853333-17.066667z" fill="#FF9449" /><path d="M916.48 366.933333l0.085333 1.066667L452.522667 832H298.666667a190.890667 190.890667 0 0 1-111.786667-36.010667l219.008-218.88a211.626667 211.626667 0 0 0 105.685333 28.330667c41.386667 0 83.2-11.946667 119.893334-36.266667z m-28.586667-84.906666l-305.066666 216.746666a128.426667 128.426667 0 0 1-113.152 14.506667l312.618666-312.661333A192.938667 192.938667 0 0 1 887.893333 282.026667z" fill="#FF9E5B" /><path d="M228.522667 452.608L393.813333 569.6c3.968 2.645333 7.978667 5.12 12.032 7.466667L186.88 795.989333A191.914667 191.914667 0 0 1 106.666667 640v-65.493333l121.856-121.898667zM725.333333 192c19.797333 0 38.912 2.986667 56.917334 8.618667l-312.576 312.618666a125.696 125.696 0 0 1-27.648-13.610666L289.706667 391.466667 489.130667 192 725.333333 192z" fill="#FFA96D" /><path d="M107.52 366.933333l121.045333 85.674667L106.666667 574.506667V384c0-2.773333 0.128-5.632 0.256-8.533333l0.597333-8.533334z m381.653333-174.933333L289.706667 391.466667 136.106667 282.453333A191.829333 191.829333 0 0 1 298.666667 192h190.506666z" fill="#FFBE91" /></svg>