<?xml version="1.0" standalone="no"?><!DOCTYPE svg PUBLIC "-//W3C//DTD SVG 1.1//EN" "http://www.w3.org/Graphics/SVG/1.1/DTD/svg11.dtd"><svg class="icon" width="200px" height="200.00px" viewBox="0 0 1024 1024" version="1.1" xmlns="http://www.w3.org/2000/svg"><path d="M879.786667 421.077333l-24.746667-24.746666c-11.946667-11.946667-18.773333-28.16-18.773333-45.226667v-34.986667c0-70.826667-57.6-128.426667-128.426667-128.426666h-34.986667c-17.066667 0-33.28-6.4-45.226666-18.773334l-24.746667-24.746666a129.024 129.024 0 0 0-181.76 0l-24.746667 24.746666c-11.946667 12.373333-28.16 18.773333-45.226666 18.773334h-34.986667c-70.826667 0-128.426667 57.6-128.426667 128.426666v34.986667c0 17.066667-6.4 33.28-18.773333 45.226667l-24.746667 24.746666c-24.32 24.32-37.546667 56.746667-37.546666 90.88 0 34.133333 13.226667 66.56 37.546666 90.88l24.746667 24.746667c12.373333 11.946667 18.773333 28.16 18.773333 45.226667v34.986666c0 70.826667 57.6 128.426667 128.426667 128.426667h34.986667c17.066667 0 33.28 6.4 45.226666 18.773333l24.746667 24.746667c25.173333 25.173333 58.026667 37.546667 90.88 37.546667 32.853333 0 65.706667-12.373333 90.88-37.546667l24.746667-24.746667c11.946667-12.373333 28.16-18.773333 45.226666-18.773333h34.986667c70.826667 0 128.426667-57.6 128.426667-128.426667v-34.986666c0-17.066667 6.826667-33.28 18.773333-45.226667l24.746667-24.746667c24.32-24.32 37.546667-56.746667 37.546666-90.88 0-34.133333-13.226667-66.56-37.546666-90.88zM405.333333 351.957333a53.333333 53.333333 0 1 1 0 106.666667 53.333333 53.333333 0 0 1 0-106.666667z m213.333334 320a53.333333 53.333333 0 1 1 0-106.709333 53.333333 53.333333 0 0 1 0 106.666667z m51.626666-257.706666l-256 256c-8.533333 8.106667-19.2 12.373333-30.293333 12.373333-10.666667 0-21.76-4.266667-30.293333-12.373333-16.64-16.64-16.64-43.946667 0-60.586667l256-256c17.066667-16.64 43.946667-16.64 60.586666 0 16.64 16.64 16.64 43.946667 0 60.586667z" fill="#FFC130" /><path d="M799.36 226.090667a128 128 0 0 1 36.906667 90.026666v34.986667c0 17.066667 6.826667 33.28 18.773333 45.226667l24.746667 24.746666c4.437333 4.437333 8.533333 9.173333 12.245333 14.165334L435.242667 891.989333a129.194667 129.194667 0 0 1-14.122667-12.245333l-24.746667-24.746667c-11.946667-12.373333-28.16-18.773333-45.226666-18.773333h-34.986667a128 128 0 0 1-90.026667-36.906667l128.426667-128.298666c8.405333 7.594667 19.114667 11.605333 29.44 11.605333 11.093333 0 21.76-4.266667 30.293333-12.373333l256-256c16.64-16.64 16.64-43.946667 0-60.586667l0.725334 0.810667z m-180.693333 339.2a53.333333 53.333333 0 1 0 0 106.666666 53.333333 53.333333 0 0 0 0-106.666666z" fill="#FFC745" /><path d="M590.506667 133.290667c4.309333 3.328 8.448 6.954667 12.373333 10.88l24.746667 24.746666c11.946667 12.373333 28.16 18.773333 45.226666 18.773334h34.986667c35.84 0 68.266667 14.72 91.605333 38.485333l-128.426666 128.341333-0.725334-0.853333a42.922667 42.922667 0 0 0-56.490666-3.541333l-4.096 3.541333-256 256a43.008 43.008 0 0 0 0.853333 61.354667l-128.341333 128.384a128.042667 128.042667 0 0 1-38.485334-91.605334v-34.986666c0-17.066667-6.4-33.28-18.773333-45.226667l-24.746667-24.746667a129.408 129.408 0 0 1-10.88-12.373333zM405.333333 352a53.333333 53.333333 0 1 0 0 106.666667 53.333333 53.333333 0 0 0 0-106.666667z" fill="#FFCD59" /><path d="M421.12 144.170667a129.152 129.152 0 0 1 169.386667-10.88L133.418667 590.506667a127.872 127.872 0 0 1-26.709334-78.549334c0-34.133333 13.226667-66.56 37.546667-90.88l24.746667-24.746666c12.373333-11.946667 18.773333-28.16 18.773333-45.226667v-34.986667c0-70.826667 57.6-128.426667 128.426667-128.426666h34.986666c17.066667 0 33.28-6.4 45.226667-18.773334z" fill="#FFD982" /></svg>