<?xml version="1.0" standalone="no"?><!DOCTYPE svg PUBLIC "-//W3C//DTD SVG 1.1//EN" "http://www.w3.org/Graphics/SVG/1.1/DTD/svg11.dtd"><svg class="icon" width="200px" height="200.00px" viewBox="0 0 1024 1024" version="1.1" xmlns="http://www.w3.org/2000/svg"><path d="M320 736a32 32 0 0 1-30.36-42.12l96-288a32.05 32.05 0 0 1 20.24-20.24l288-96a32 32 0 0 1 40.48 40.48l-96 288a32.05 32.05 0 0 1-20.24 20.24l-288 96A32.14 32.14 0 0 1 320 736z m111.18-264.34l-50.46 151.39A16 16 0 0 0 401 643.28l151.39-50.46a64 64 0 0 0 40.48-40.48L643.28 401a16 16 0 0 0-20.23-20.23l-151.39 50.41a64 64 0 0 0-40.48 40.48z" fill="#EB4242" /><path d="M512 960A448.11 448.11 0 0 1 337.61 99.22a448.11 448.11 0 0 1 348.78 825.56A445.19 445.19 0 0 1 512 960z m0-832c-211.74 0-384 172.26-384 384s172.26 384 384 384 384-172.26 384-384-172.26-384-384-384z" fill="#333333" /></svg>